<svg width="1078" height="675" viewBox="0 0 1078 675" fill="none" xmlns="http://www.w3.org/2000/svg">
<rect x="61.6528" y="2.18064" width="470.512" height="179.652" rx="15.2645" stroke="#E7EAF3" stroke-opacity="0.6" stroke-width="4.36129" stroke-dasharray="8.72 8.72"/>
<rect x="61.6526" y="231.523" width="470.512" height="179.652" rx="15.2645" stroke="#E7EAF3" stroke-opacity="0.5" stroke-width="4.36129" stroke-dasharray="8.72 8.72"/>
<g filter="url(#filter0_d)">
<rect x="19.0002" y="234.004" width="474.874" height="184.014" rx="17.4451" transform="rotate(-13.7148 19.0002 234.004)" fill="white"/>
<rect x="21.6357" y="235.605" width="470.512" height="179.652" rx="15.2645" transform="rotate(-13.7148 21.6357 235.605)" stroke="#E7EAF3" stroke-opacity="0.5" stroke-width="4.36129"/>
</g>
<path d="M117.844 294.768C118.593 297.839 116.78 300.92 113.795 301.648C110.809 302.377 107.781 300.478 107.031 297.407C106.282 294.336 108.095 291.256 111.08 290.527C114.066 289.798 117.094 291.697 117.844 294.768Z" fill="#377dff"/>
<path d="M99.3558 281.605C95.3747 282.576 92.9576 286.683 93.9569 290.778L103.004 327.85C104.003 331.944 108.041 334.476 112.022 333.505L155.272 322.95C159.253 321.978 161.67 317.871 160.671 313.776L151.624 276.705C150.624 272.61 146.587 270.078 142.606 271.05L99.3558 281.605ZM143.511 274.757C145.501 274.271 147.52 275.537 148.019 277.584L153.9 301.681L138.528 297.784C137.747 297.596 136.943 297.941 136.532 298.639L126.517 315.656L115.33 311.424C114.496 311.108 113.567 311.437 113.112 312.21L105.704 323.263L97.5611 289.898C97.0614 287.851 98.27 285.797 100.261 285.312L143.511 274.757Z" fill="#377dff"/>
<rect x="262.343" y="223.498" width="65.2951" height="11.8718" rx="5.93592" transform="rotate(-13.7148 262.343 223.498)" fill="#377dff"/>
<rect x="272.355" y="270.673" width="104.221" height="11.5801" rx="5.79006" transform="rotate(-13.7148 272.355 270.673)" fill="#D9DDEA"/>
<rect x="396.104" y="240.473" width="46.3205" height="11.5801" rx="5.79006" transform="rotate(-13.7148 396.104 240.473)" fill="#D9DDEA"/>
<rect x="282.008" y="304.077" width="35.6155" height="11.8718" rx="5.93592" transform="rotate(-13.7148 282.008 304.077)" fill="#D9DDEA"/>
<rect x="333.946" y="291.565" width="35.6155" height="11.8718" rx="5.93592" transform="rotate(-13.7148 333.946 291.565)" fill="#D9DDEA"/>
<rect x="385.845" y="278.899" width="35.6155" height="11.8718" rx="5.93592" transform="rotate(-13.7148 385.845 278.899)" fill="#D9DDEA"/>
<rect x="193.408" y="197.55" width="4.47994" height="172.142" transform="rotate(-13.7148 193.408 197.55)" fill="#E7EAF3" fill-opacity="0.5"/>
<g filter="url(#filter1_d)">
<rect x="59.4722" y="455.986" width="474.874" height="184.014" rx="17.4451" fill="white"/>
<rect x="61.6528" y="458.167" width="470.512" height="179.652" rx="15.2645" stroke="#E7EAF3" stroke-opacity="0.5" stroke-width="4.36129"/>
</g>
<path d="M141.091 538.453C141.091 541.615 138.6 544.177 135.526 544.177C132.453 544.177 129.962 541.615 129.962 538.453C129.962 535.292 132.453 532.729 135.526 532.729C138.6 532.729 141.091 535.292 141.091 538.453Z" fill="#DEE1EC"/>
<path d="M126.252 521.282C122.154 521.282 118.832 524.699 118.832 528.914V567.073C118.832 571.288 122.154 574.705 126.252 574.705H170.771C174.869 574.705 178.191 571.288 178.191 567.073V528.914C178.191 524.699 174.869 521.282 170.771 521.282H126.252ZM170.771 525.098C172.82 525.098 174.481 526.806 174.481 528.914V553.717L160.471 546.287C159.757 545.919 158.894 546.063 158.329 546.644L144.565 560.802L134.7 554.038C133.965 553.533 132.985 553.633 132.36 554.276L122.542 563.257V528.914C122.542 526.806 124.203 525.098 126.252 525.098H170.771Z" fill="#DEE1EC"/>
<rect x="298.368" y="503.474" width="65.2951" height="11.8718" rx="5.93592" fill="#71869D"/>
<rect x="296.909" y="551.678" width="104.221" height="11.5801" rx="5.79006" fill="#D9DDEA"/>
<rect x="424.29" y="551.678" width="46.3205" height="11.5801" rx="5.79006" fill="#D9DDEA"/>
<rect x="298.368" y="586.418" width="35.6155" height="11.8718" rx="5.93592" fill="#D9DDEA"/>
<rect x="351.792" y="586.577" width="35.6155" height="11.8718" rx="5.93592" fill="#D9DDEA"/>
<rect x="405.214" y="586.577" width="35.6155" height="11.8718" rx="5.93592" fill="#D9DDEA"/>
<rect x="237.55" y="461.922" width="4.47994" height="172.142" fill="#E7EAF3" fill-opacity="0.5"/>
<g filter="url(#filter2_d)">
<rect x="580.514" y="455.986" width="474.874" height="184.014" rx="17.4451" fill="white"/>
<rect x="582.694" y="458.167" width="470.512" height="179.652" rx="15.2645" stroke="#E7EAF3" stroke-opacity="0.5" stroke-width="4.36129"/>
</g>
<path d="M662.133 538.453C662.133 541.615 659.641 544.177 656.568 544.177C653.494 544.177 651.003 541.615 651.003 538.453C651.003 535.292 653.494 532.729 656.568 532.729C659.641 532.729 662.133 535.292 662.133 538.453Z" fill="#DEE1EC"/>
<path d="M647.293 521.282C643.195 521.282 639.873 524.699 639.873 528.914V567.073C639.873 571.288 643.195 574.705 647.293 574.705H691.812C695.91 574.705 699.232 571.288 699.232 567.073V528.914C699.232 524.699 695.91 521.282 691.812 521.282H647.293ZM691.812 525.098C693.861 525.098 695.522 526.806 695.522 528.914V553.717L681.512 546.287C680.798 545.919 679.935 546.063 679.371 546.644L665.606 560.802L655.742 554.038C655.006 553.533 654.026 553.633 653.401 554.276L643.583 563.257V528.914C643.583 526.806 645.244 525.098 647.293 525.098H691.812Z" fill="#DEE1EC"/>
<rect x="819.409" y="503.474" width="65.2951" height="11.8718" rx="5.93592" fill="#71869D"/>
<rect x="817.951" y="551.678" width="104.221" height="11.5801" rx="5.79006" fill="#D9DDEA"/>
<rect x="945.332" y="551.678" width="46.3205" height="11.5801" rx="5.79006" fill="#D9DDEA"/>
<rect x="819.409" y="586.418" width="35.6155" height="11.8718" rx="5.93592" fill="#D9DDEA"/>
<rect x="872.833" y="586.577" width="35.6155" height="11.8718" rx="5.93592" fill="#D9DDEA"/>
<rect x="926.255" y="586.577" width="35.6155" height="11.8718" rx="5.93592" fill="#D9DDEA"/>
<rect x="758.592" y="461.922" width="4.47994" height="172.142" fill="#E7EAF3" fill-opacity="0.5"/>
<g filter="url(#filter3_d)">
<rect x="582.694" y="232.053" width="470.512" height="179.652" rx="15.2645" stroke="#E7EAF3" stroke-opacity="0.5" stroke-width="4.36129" stroke-dasharray="8.72 8.72"/>
</g>
<rect x="582.694" y="5.93812" width="470.512" height="179.652" rx="15.2645" stroke="#E7EAF3" stroke-opacity="0.5" stroke-width="4.36129" stroke-dasharray="8.72 8.72"/>
<defs>
<filter id="filter0_d" x="0.828461" y="116.329" width="541.305" height="327.698" filterUnits="userSpaceOnUse" color-interpolation-filters="sRGB">
<feFlood flood-opacity="0" result="BackgroundImageFix"/>
<feColorMatrix in="SourceAlpha" type="matrix" values="0 0 0 0 0 0 0 0 0 0 0 0 0 0 0 0 0 0 127 0" result="hardAlpha"/>
<feOffset dy="13.0839"/>
<feGaussianBlur stdDeviation="10.9032"/>
<feColorMatrix type="matrix" values="0 0 0 0 0.54902 0 0 0 0 0.596078 0 0 0 0 0.643137 0 0 0 0.125 0"/>
<feBlend mode="normal" in2="BackgroundImageFix" result="effect1_dropShadow"/>
<feBlend mode="normal" in="SourceGraphic" in2="effect1_dropShadow" result="shape"/>
</filter>
<filter id="filter1_d" x="37.6657" y="447.264" width="518.487" height="227.626" filterUnits="userSpaceOnUse" color-interpolation-filters="sRGB">
<feFlood flood-opacity="0" result="BackgroundImageFix"/>
<feColorMatrix in="SourceAlpha" type="matrix" values="0 0 0 0 0 0 0 0 0 0 0 0 0 0 0 0 0 0 127 0" result="hardAlpha"/>
<feOffset dy="13.0839"/>
<feGaussianBlur stdDeviation="10.9032"/>
<feColorMatrix type="matrix" values="0 0 0 0 0.54902 0 0 0 0 0.596078 0 0 0 0 0.643137 0 0 0 0.125 0"/>
<feBlend mode="normal" in2="BackgroundImageFix" result="effect1_dropShadow"/>
<feBlend mode="normal" in="SourceGraphic" in2="effect1_dropShadow" result="shape"/>
</filter>
<filter id="filter2_d" x="558.707" y="447.264" width="518.487" height="227.626" filterUnits="userSpaceOnUse" color-interpolation-filters="sRGB">
<feFlood flood-opacity="0" result="BackgroundImageFix"/>
<feColorMatrix in="SourceAlpha" type="matrix" values="0 0 0 0 0 0 0 0 0 0 0 0 0 0 0 0 0 0 127 0" result="hardAlpha"/>
<feOffset dy="13.0839"/>
<feGaussianBlur stdDeviation="10.9032"/>
<feColorMatrix type="matrix" values="0 0 0 0 0.54902 0 0 0 0 0.596078 0 0 0 0 0.643137 0 0 0 0.125 0"/>
<feBlend mode="normal" in2="BackgroundImageFix" result="effect1_dropShadow"/>
<feBlend mode="normal" in="SourceGraphic" in2="effect1_dropShadow" result="shape"/>
</filter>
<filter id="filter3_d" x="558.707" y="221.149" width="518.487" height="227.626" filterUnits="userSpaceOnUse" color-interpolation-filters="sRGB">
<feFlood flood-opacity="0" result="BackgroundImageFix"/>
<feColorMatrix in="SourceAlpha" type="matrix" values="0 0 0 0 0 0 0 0 0 0 0 0 0 0 0 0 0 0 127 0" result="hardAlpha"/>
<feOffset dy="13.0839"/>
<feGaussianBlur stdDeviation="10.9032"/>
<feColorMatrix type="matrix" values="0 0 0 0 0.54902 0 0 0 0 0.596078 0 0 0 0 0.643137 0 0 0 0.125 0"/>
<feBlend mode="normal" in2="BackgroundImageFix" result="effect1_dropShadow"/>
<feBlend mode="normal" in="SourceGraphic" in2="effect1_dropShadow" result="shape"/>
</filter>
</defs>
</svg>
