<svg width="227" height="88" viewBox="0 0 227 88" fill="none" xmlns="http://www.w3.org/2000/svg">
<g clip-path="url(#clip0)">
<path d="M70.1 76.7C70.1 83 75.2 88.1 81.5 88.1H147C153.3 88.1 158.4 83 158.4 76.7V11.2C158.4 4.89999 153.3 -0.200012 147 -0.200012H81.4C75.1 -0.200012 70 4.89999 70 11.2V76.7H70.1Z" fill="#BDC5D1"/>
<path d="M106.7 38.9V26.4H117.7C118.7 26.4 119.8 26.5 120.7 26.7C121.7 26.9 122.5 27.2 123.3 27.6C124 28 124.6 28.7 125.1 29.5C125.5 30.3 125.8 31.3 125.8 32.6C125.8 34.8 125.1 36.5 123.8 37.5C122.5 38.5 120.7 39 118.6 39L106.7 38.9ZM94.8999 17.2V70.6H120.8C123.2 70.6 125.5 70.3 127.8 69.7C130.1 69.1 132.1 68.2 133.9 66.9C135.7 65.7 137.1 64 138.1 62.1C139.1 60.1 139.7 57.8 139.7 55.1C139.7 51.8 138.9 48.9 137.3 46.5C135.7 44.1 133.2 42.5 129.9 41.5C132.3 40.4 134.1 38.9 135.3 37.1C136.5 35.3 137.1 33.1 137.1 30.4C137.1 27.9 136.7 25.8 135.9 24.1C135.1 22.4 133.9 21 132.4 20C130.9 19 129.1 18.2 127 17.8C124.9 17.4 122.6 17.1 120 17.1H94.8999V17.2ZM106.7 61.5V46.9H119.5C122 46.9 124.1 47.5 125.6 48.7C127.1 49.9 127.9 51.8 127.9 54.6C127.9 56 127.7 57.1 127.2 58C126.7 58.9 126.1 59.6 125.3 60.1C124.5 60.6 123.6 61 122.5 61.2C121.5 61.4 120.4 61.5 119.2 61.5H106.7V61.5Z" fill="white"/>
</g>
<defs>
<clipPath id="clip0">
<rect width="226.3" height="88" fill="white"/>
</clipPath>
</defs>
</svg>
