<svg width="400" height="182" viewBox="0 0 400 182" fill="none" xmlns="http://www.w3.org/2000/svg">
<g clip-path="url(#clip0)">
<path d="M399.977 90.9606C399.977 94.6781 401.308 148.269 383.841 165.737C366.376 183.204 309.064 181.873 309.064 181.873C309.064 181.873 251.752 183.204 234.287 165.737C216.819 148.269 218.152 94.6781 218.152 90.9606C218.152 87.2443 216.819 33.6527 234.287 16.1869C251.752 -1.28132 309.063 0.0481056 309.063 0.0481056C309.063 0.0481056 366.376 -1.28133 383.84 16.1857C401.308 33.6527 399.977 87.2443 399.977 90.9606V90.9606ZM18.3016 114.187V26.1442C18.3016 21.0342 14.3448 17.0774 9.23248 17.0774C4.12252 17.0774 0 21.0342 0 26.1442V114.187C0 124.247 8.24387 132.488 18.3016 132.488C23.4127 132.488 27.3695 128.531 27.3695 123.421C27.3695 118.309 23.4127 114.187 18.3016 114.187V114.187ZM105.529 50.0529C101.242 50.0529 97.9437 53.1857 96.9551 57.3082C90.6884 52.8565 83.2709 50.0529 75.0259 50.0529C63.815 50.0529 54.0876 54.8337 46.997 62.417C39.9074 69.8368 35.7861 80.0591 35.7861 91.4357C35.7861 102.647 39.9074 112.868 46.997 120.453C54.0865 127.872 63.815 132.487 75.0259 132.487C83.2709 132.487 90.6884 129.85 96.9551 125.399C97.9437 129.357 101.241 132.487 105.529 132.487C110.31 132.487 114.267 128.53 114.267 123.752V58.9551C114.267 54.0074 110.31 50.0529 105.529 50.0529V50.0529ZM90.3593 108.417C86.4025 112.539 80.7965 114.846 75.0259 114.846C69.0919 114.846 63.4859 112.539 59.6937 108.417C55.7357 104.129 53.427 98.1937 53.427 91.4357C53.427 84.5107 55.7357 78.5732 59.6937 74.4542C63.4859 70.0026 69.0919 67.695 75.0259 67.695C80.7965 67.695 86.4037 70.0026 90.3593 74.4542C94.3172 78.5744 96.7905 84.5119 96.7905 91.4357C96.7905 98.1937 94.3172 104.129 90.3593 108.417V108.417ZM191.759 50.0529C186.814 50.0529 183.186 53.844 183.186 58.7905V97.7C183.186 107.262 175.6 114.517 166.203 114.517C156.806 114.517 149.056 107.262 149.056 97.7V58.7905C149.056 53.844 145.43 50.0529 140.319 50.0529C135.868 50.0529 131.746 53.844 131.746 58.7905V97.7C131.746 116.661 147.244 132.324 166.203 132.324C171.645 132.324 177.251 131.006 181.866 128.366C179.228 136.941 170.985 143.205 161.257 143.369C157.96 143.369 154.828 142.545 151.695 141.061C147.737 138.917 142.131 140.732 139.987 144.689C138.009 149.303 139.658 154.416 144.274 156.393C149.221 158.868 155.32 160.515 161.256 160.515C183.185 160.515 200.661 143.203 200.661 121.109V58.7905C200.661 53.8428 196.54 50.0529 191.759 50.0529V50.0529Z" fill="#00B2CB"/>
<path d="M373.487 67.9542H373.301C360.826 67.9542 349.433 82.6305 349.433 95.3657V123.607C349.433 125.983 348.489 128.261 346.809 129.941C345.129 131.621 342.851 132.565 340.475 132.566C339.299 132.567 338.134 132.335 337.047 131.885C335.96 131.435 334.972 130.775 334.14 129.943C333.308 129.111 332.648 128.123 332.198 127.036C331.748 125.949 331.517 124.784 331.517 123.607V59.0053C331.517 57.8286 331.748 56.6634 332.198 55.5761C332.648 54.4889 333.308 53.5009 334.14 52.6686C334.972 51.8363 335.959 51.176 337.046 50.7255C338.133 50.2749 339.298 50.0428 340.475 50.0425C345.418 50.0425 349.433 54.06 349.433 59.0053V59.6811C354.904 53.7623 362.735 50.0425 371.437 50.0425H373.488C378.433 50.0425 382.443 54.06 382.443 59.0053C382.441 61.3796 381.497 63.6561 379.818 65.3343C378.138 67.0124 375.861 67.9548 373.487 67.9542ZM305.311 50.053C301.025 50.053 297.727 53.1857 296.738 57.3082C290.473 52.8566 283.053 50.053 274.809 50.053C263.598 50.053 253.871 54.8338 246.78 62.417C239.691 69.8369 235.57 80.0591 235.57 91.4358C235.57 102.647 239.691 112.868 246.78 120.453C253.87 127.872 263.597 132.487 274.809 132.487C283.053 132.487 290.473 129.85 296.738 125.399C297.727 129.357 301.025 132.487 305.311 132.487C310.093 132.487 314.05 128.53 314.05 123.752V58.9552C314.05 54.0074 310.092 50.053 305.311 50.053V50.053ZM290.142 108.417C286.186 112.539 280.581 114.846 274.809 114.846C268.875 114.846 263.268 112.539 259.476 108.417C255.518 104.129 253.209 98.1938 253.209 91.4358C253.209 84.5108 255.519 78.5733 259.476 74.4543C263.268 70.0026 268.875 67.6951 274.809 67.6951C280.58 67.6951 286.186 70.0026 290.142 74.4543C294.1 78.5745 296.574 84.512 296.574 91.4358C296.572 98.1938 294.099 104.129 290.142 108.417V108.417Z" fill="white"/>
</g>
<defs>
<clipPath id="clip0">
<rect width="400" height="181.92" fill="white"/>
</clipPath>
</defs>
</svg>
