<svg width="274" height="67" viewBox="0 0 274 67" fill="none" xmlns="http://www.w3.org/2000/svg">
<path d="M77.2997 32.6925V32.6912V32.6925ZM260.253 49.2798L260.346 49.2811C265.854 49.2811 269.731 45.4645 269.773 40.0025C269.794 37.2978 269.012 34.8218 267.573 33.0332C266.051 31.1398 263.92 30.1305 261.41 30.1105H261.36C257.973 30.1105 254.828 32.6805 251.744 37.9685L251.499 38.3905L251.342 37.9305C250.563 35.6645 249.87 33.7765 249.455 32.6465C249.164 31.8585 249.036 31.5045 249.006 31.3898C248.858 30.8178 248.369 30.4625 247.728 30.4625C247.334 30.4625 246.915 30.5965 246.519 30.8485C246.126 31.0985 245.907 31.4038 245.828 31.8118L245.808 31.8732C242.722 41.4978 240.178 46.1705 238.022 46.1705C237.709 46.1678 237.464 46.0658 237.281 45.8618C236.716 45.2378 236.855 43.7538 237.047 41.6992C237.188 40.1898 237.348 38.4812 237.282 36.6678C237.155 33.1818 235.247 31.0885 232.181 31.0658C228.284 31.0645 225.758 35.2152 224.595 37.6892L224.248 38.4265L224.171 37.6132C223.88 34.5518 222.853 30.8952 219.609 30.8712C215.825 30.8712 212.942 35.3112 211.184 39.0378L210.712 40.0365L210.759 38.9338C210.968 33.9638 211.139 31.0292 211.269 30.2152C211.397 29.3985 211.33 28.8505 211.062 28.5365C210.809 28.2425 210.332 28.1338 209.632 28.1778C208.42 28.2545 207.801 28.9918 206.868 31.4632C205.336 35.5218 201.44 44.9645 198.328 44.9645C197.711 44.9598 197.222 44.7498 196.864 44.3385C195.56 42.8432 196.082 38.7992 196.804 33.2038L196.858 32.7805C197.2 30.1312 196.618 29.5658 195.178 29.3012C195.034 29.274 194.888 29.2597 194.741 29.2585C193.592 29.2585 193.054 30.3592 191.981 33.4178C190.071 38.8605 187.614 44.5845 184.742 44.5845C184.637 44.5845 184.534 44.5765 184.428 44.5598C182.906 44.3005 182.939 42.0432 182.981 39.1825C183.002 37.6358 183.028 35.8818 182.79 34.2985C182.361 31.4572 180.688 29.6832 178.42 29.6652C173.898 29.6652 170.848 35.4572 169.429 38.9105L169.108 39.6918L169 38.8532C168.722 36.6365 168.539 34.4089 168.452 32.1765L168.448 32.0932L168.499 32.0278C176.964 21.3725 180.762 13.6832 180.813 7.09518C180.846 2.88652 178.904 0.35852 175.619 0.33252C173.217 0.33252 167.506 2.33319 165.522 20.8638C165.151 24.3426 164.951 27.8375 164.922 31.3358L164.92 31.4052L164.881 31.4612C161.008 37.0665 152.743 46.7085 144.651 46.7085C137.34 46.7085 131.506 40.7932 131.506 30.3518C131.506 16.3545 141.414 7.76051 148.87 7.76051H148.932C150.552 7.77251 151.941 8.22518 152.949 9.06918C153.996 9.94518 154.544 11.1732 154.533 12.6198C154.518 14.5525 153.888 15.5458 153.28 16.5052C153.124 16.7525 152.968 16.9978 152.825 17.2578C152.681 17.5205 152.55 17.9012 152.741 18.2272C152.937 18.5612 153.438 18.7712 154.048 18.7758C155.822 18.7758 158.506 16.2065 158.536 12.3358C158.566 8.28451 155.154 4.10985 149.065 4.10985C139.851 4.10985 127.441 14.2325 127.441 30.6378C127.441 42.2425 134.717 50.2631 144.573 50.2631C151.567 50.2631 158.486 45.2551 164.613 36.8905L164.988 36.3838L165.015 37.0132C165.145 40.0751 165.367 42.4871 165.529 44.2491C165.634 45.3818 165.71 46.1998 165.707 46.6511C165.699 47.6398 165.86 48.3278 166.202 48.7491C166.542 49.1711 167.084 49.3705 167.905 49.3758C169.281 49.3758 169.557 48.4378 170.102 46.1231L170.258 45.4625C170.936 42.6578 173.437 33.5032 177.199 33.5032C177.814 33.5092 178.288 33.6905 178.624 34.0472C179.455 34.9285 179.364 36.7372 179.259 38.8325C179.192 40.1398 179.126 41.4898 179.256 42.8051C179.61 46.3558 181.144 48.0925 183.943 48.1125C186.818 48.1138 189.818 45.0171 191.401 42.1398L191.7 41.5978L191.816 42.2071C192.108 43.7471 193.415 48.8018 197.506 48.8018C201.214 48.8018 204.396 44.8971 207.882 36.8605L208.339 35.8112L208.311 36.9558C208.237 40.0012 208.072 43.7198 208.071 46.5951C208.07 48.8191 208.294 49.6678 209.322 49.6678L209.556 49.6785C210.542 49.6785 211.211 49.0898 211.545 47.9258C214.169 38.7812 216.436 34.5225 218.683 34.5225C220.883 34.5392 221.089 38.5618 221.266 45.6698L221.278 46.1685C221.331 48.6545 221.421 49.7545 222.965 49.7658C224.137 49.7658 224.428 48.8451 225.034 46.5785C225.15 46.1465 225.276 45.6725 225.424 45.1605C227.543 37.8105 229.299 34.8118 231.486 34.8118C233.358 34.8258 233.462 36.7558 233.496 37.3898C233.568 38.7478 233.428 40.1698 233.294 41.5425C233.168 42.8185 233.038 44.1385 233.087 45.3645C233.202 48.2391 234.775 49.8345 237.519 49.8551C241.08 49.8551 244.295 45.6898 247.11 37.4778L247.306 36.9058L247.529 37.4692C248.04 38.7598 248.706 40.5072 249.321 42.5918L249.344 42.6712L249.31 42.7465C246.584 48.7998 244.66 55.5425 244.633 59.1451C244.596 63.8898 246.743 66.9731 250.102 66.9991H250.16C251.988 66.9991 256.247 66.2651 256.33 59.4758C256.364 56.6931 255.706 52.7585 254.377 47.7791L254.224 47.2091L254.714 47.5358C256.416 48.6618 258.329 49.2638 260.253 49.2798V49.2798ZM168.462 26.2538C168.538 24.5525 168.681 22.8958 168.884 21.3292C170.203 11.2345 172.954 4.18518 175.577 4.18518H175.589C176.84 4.19452 177.465 5.14051 177.452 6.99518C177.416 11.5532 174.528 18.0785 168.87 26.3898L168.427 27.0405L168.462 26.2538V26.2538ZM252.11 62.5451C251.693 63.1011 251.112 63.3831 250.384 63.3831C249.548 63.3758 248.92 63.0851 248.492 62.5138C247.295 60.9145 247.632 57.1545 249.586 50.3298C249.82 49.5138 250.072 48.6945 250.34 47.8925L250.567 47.2118L250.766 47.9005C253.042 55.7785 253.494 60.7051 252.11 62.5451ZM252.818 42.3618L252.777 42.2865L252.694 42.0245L252.733 41.9465C255.328 36.5998 258.301 33.5352 260.888 33.5352H260.914C263.836 33.5572 265.856 36.1865 265.828 39.9258C265.808 42.4218 264.708 43.8592 263.789 44.6251C262.74 45.4998 261.344 45.9998 259.957 45.9998C256.538 45.9738 254.192 44.0065 252.818 42.3618ZM260.888 33.7598V33.7565V33.7598ZM87.3284 48.3958C91.3337 48.0758 94.511 42.6285 95.691 40.3005L95.995 39.7005L96.1104 40.3632C96.677 43.6365 98.4577 49.1365 104.028 49.1805H104.074C106.484 49.1805 109.217 47.7065 111.98 44.9191L112.182 44.7145L112.33 44.9605C114.19 48.0711 116.684 49.7238 119.34 49.5878C123.25 49.3845 125.624 46.6138 125.832 44.6891C125.886 44.1985 125.756 43.7365 125.476 43.4251C125.124 43.0331 124.614 42.9878 124.239 43.3472L124.06 43.5165C123.15 44.3905 121.454 46.0191 119.606 46.1151C117.343 46.2258 115.67 44.8731 114.588 42.0812L114.544 41.9638L114.62 41.8651C120.842 33.7272 125.208 21.3098 124.776 12.9812C124.578 9.12651 123.457 4.53118 119.247 4.53118L118.933 4.53918C117.32 4.62252 115.854 5.39118 114.574 6.82251C110.668 11.1925 108.624 21.9485 109.366 34.2252C109.52 36.7758 109.963 39.1598 110.682 41.3085L110.723 41.4291L110.641 41.5265C108.332 44.2245 106.054 45.7105 104.226 45.7105C99.8284 45.7105 99.9764 38.3358 100.324 32.2212C100.399 30.9025 100.51 30.0625 100.12 29.5852C99.8417 29.2432 99.375 29.0745 98.695 29.0692L98.6157 29.0685C97.0504 29.0685 96.723 29.3905 95.9224 31.7132C94.2564 36.5385 90.9677 44.6365 87.6597 44.6365C86.743 44.6278 86.043 44.3151 85.5637 43.7045C83.959 41.6565 85.1777 36.5485 86.1564 32.4425C86.3324 31.7045 86.501 30.9958 86.6457 30.3398C86.8597 29.3665 86.7944 28.6565 86.4504 28.2265C86.105 27.7978 85.4164 27.6245 84.5077 27.6965C83.091 27.8098 82.185 28.4032 81.747 31.0972L81.659 31.6572L81.3297 31.2585C80.711 30.3452 79.505 29.2572 77.2657 29.2572C77.0697 29.2572 76.8664 29.2652 76.6564 29.2818C74.267 29.4778 71.5464 31.1425 69.555 33.6272C67.2304 36.5278 66.1197 40.1991 66.429 43.9665C66.445 44.1658 66.4737 44.3571 66.5024 44.5471L66.5184 44.6518L66.4464 44.7311C65.0557 46.2458 63.6384 47.0151 62.2344 47.0151C60.067 46.9991 58.8237 45.3885 58.8237 42.7051C58.8237 38.1892 61.8844 24.5738 61.8844 19.6452C61.8844 14.3998 59.547 11.5445 55.4884 11.5132H55.427C49.5004 11.5132 44.8817 18.2378 40.4617 32.0738C40.0418 33.402 39.6343 34.7341 39.239 36.0698L38.6184 38.1505L38.8017 35.9878C39.2015 31.3499 39.4809 26.7023 39.6397 22.0498C39.8597 15.3632 38.9564 11.0598 36.8757 8.89451C35.7537 7.72651 34.2697 7.15118 32.3364 7.13651H32.287C25.035 7.13651 21.561 19.3672 19.031 27.9972C18.2677 30.6025 16.763 36.4792 15.7584 40.4965L16.3537 39.5292C16.7997 34.4705 18.0924 21.7992 18.0077 14.9245C17.9157 7.54985 15.461 4.24385 10.0444 4.20252H9.97769C7.08435 4.20252 5.07702 5.64051 3.90302 6.84651C2.01769 8.78251 0.84302 11.6118 0.908353 14.0552C0.948353 15.5405 1.85969 16.8625 2.55035 16.8625C3.00035 16.8625 3.24969 16.2618 3.35769 15.9038C5.03369 10.3645 7.20235 7.67118 9.98502 7.67118C11.139 7.67985 11.9984 8.01985 12.641 8.71118C14.8157 11.0438 14.4197 17.3425 13.703 28.7778C13.471 32.4632 13.2097 36.6385 12.989 41.3885C12.9505 42.1722 12.9047 42.9556 12.8517 43.7385C12.6404 47.0365 12.4724 49.6431 13.7237 49.8371C15.3517 50.0911 16.411 49.4298 16.9537 47.8191C17.7577 45.4285 19.561 38.8945 23.0504 26.9552C26.3984 15.4978 28.9277 11.3292 32.1637 11.3292C35.9024 11.3292 36.181 17.7485 35.4957 31.2952C35.3497 34.1672 35.1544 37.4198 35.0044 40.9592C34.9837 41.4565 34.9604 41.9392 34.9364 42.4032C34.7924 45.3345 34.679 47.6458 35.5164 48.5325C35.7777 48.8085 36.1324 48.9451 36.6024 48.9478C38.223 48.9478 38.7104 47.5271 39.5177 45.1718C39.6604 44.7565 39.8117 44.3125 39.9804 43.8485C45.5337 28.5292 49.6397 15.2378 55.151 15.2378C56.8037 15.2378 58.0904 16.5805 58.0904 19.1992C58.0904 25.2438 55.1344 36.9232 55.1344 42.8458C55.1344 44.9678 55.745 46.8718 56.8984 48.2105C58.0824 49.5851 59.739 50.3171 61.689 50.3338H61.7317C63.5757 50.3338 65.4964 49.4378 67.443 47.6711L67.6257 47.5058L67.7724 47.7038C69.0544 49.4265 71.1224 50.3525 73.3557 50.1805C76.781 49.9138 79.655 46.8638 80.7244 43.9878L80.9337 43.4251L81.1424 43.9878C81.937 46.1218 83.6557 48.6938 87.3284 48.3958V48.3958ZM118.891 8.36785L118.95 8.36651C119.341 8.36651 119.685 8.56251 119.97 8.95051C121.33 10.7892 121.351 17.5005 119.012 25.1365C117.675 29.5005 115.877 33.6232 113.814 37.0572L113.485 37.6038L113.401 36.9712C113.158 35.1245 113.038 33.2018 112.954 31.5658C112.358 20.0238 115.849 8.52585 118.891 8.36785V8.36785ZM80.8857 35.3432C79.687 40.1665 77.3884 45.9891 73.2437 46.3225L72.9064 46.3365C71.187 46.3365 70.223 45.2111 70.041 42.9898C69.813 40.2112 71.011 36.9572 73.0924 34.6978C74.417 33.2592 75.9117 32.4672 77.3004 32.4672H77.3284C79.081 32.4805 80.3097 33.8878 80.8744 35.2005L80.9044 35.2685L80.8857 35.3432V35.3432ZM100.109 17.6598C98.579 17.6598 97.3437 18.8652 97.3317 20.3472C97.3197 21.8398 98.5477 23.0638 100.068 23.0752L100.09 23.2972V23.0752C101.598 23.0752 102.832 21.8705 102.844 20.3892C102.856 18.8958 101.629 17.6718 100.109 17.6598ZM196.304 17.6598C194.774 17.6598 193.54 18.8652 193.527 20.3472C193.515 21.8398 194.742 23.0638 196.263 23.0752L196.284 23.2972V23.0752C197.794 23.0752 199.028 21.8705 199.04 20.3892C199.051 18.8958 197.824 17.6718 196.304 17.6598Z" fill="#010101"/>
<path d="M271.215 46.2241C270.717 46.225 270.239 46.4234 269.887 46.7758C269.535 47.1282 269.337 47.6059 269.336 48.1041C269.337 48.6019 269.536 49.0789 269.888 49.4307C270.24 49.7824 270.717 49.9803 271.215 49.9808C271.713 49.9803 272.19 49.7825 272.542 49.4307C272.895 49.079 273.093 48.6019 273.094 48.1041C273.094 47.6057 272.896 47.1279 272.544 46.7754C272.191 46.4229 271.713 46.2247 271.215 46.2241V46.2241ZM271.215 49.7095C270.326 49.7095 269.609 48.9941 269.609 48.1048C269.609 47.2155 270.326 46.4981 271.215 46.4981C272.104 46.4981 272.822 47.2155 272.822 48.1048C272.822 48.9941 272.104 49.7095 271.215 49.7095ZM272.048 47.6135C272.048 47.2255 271.857 47.0135 271.366 47.0135H270.533V49.1788H270.806V48.2308H271.195L271.842 49.1788H272.15L271.503 48.2308C271.796 48.1795 272.048 48.0128 272.048 47.6135ZM271.155 47.9868H270.807V47.2541H271.292C271.524 47.2541 271.778 47.3348 271.778 47.6121C271.776 47.9728 271.453 47.9868 271.155 47.9868V47.9868Z" fill="#020202"/>
</svg>
