<svg width="400" height="107" viewBox="0 0 400 107" fill="none" xmlns="http://www.w3.org/2000/svg">
<path d="M149.679 26.1654H127.573C126.841 26.1649 126.133 26.4259 125.577 26.9012C125.02 27.3764 124.652 28.0348 124.538 28.7577L115.597 85.4432C115.556 85.7062 115.573 85.975 115.645 86.2311C115.718 86.4872 115.845 86.7245 116.019 86.9266C116.192 87.1288 116.407 87.291 116.649 87.402C116.891 87.5131 117.154 87.5704 117.42 87.57H127.974C128.706 87.5704 129.414 87.309 129.971 86.8331C130.528 86.3571 130.896 85.6979 131.009 84.9745L133.42 69.6855C133.534 68.9626 133.901 68.3039 134.457 67.828C135.013 67.3521 135.721 67.0904 136.452 67.09H143.45C158.012 67.09 166.416 60.0435 168.611 46.0798C169.6 39.9707 168.653 35.1707 165.792 31.8091C162.65 28.1177 157.078 26.1654 149.679 26.1654V26.1654ZM152.229 46.8685C151.02 54.8006 144.96 54.8006 139.1 54.8006H135.764L138.104 39.9869C138.173 39.5535 138.393 39.1587 138.727 38.8737C139.061 38.5887 139.485 38.4321 139.924 38.4321H141.453C145.445 38.4321 149.21 38.4321 151.156 40.7077C152.317 42.0653 152.672 44.0822 152.229 46.8685V46.8685ZM215.758 46.6131H205.172C204.733 46.6131 204.309 46.7698 203.975 47.0548C203.641 47.3398 203.42 47.7345 203.352 48.1679L202.883 51.1287L202.143 50.0556C199.851 46.7295 194.741 45.6176 189.64 45.6176C177.943 45.6176 167.951 54.4774 166.006 66.9057C164.994 73.1053 166.432 79.0334 169.949 83.1676C173.175 86.9688 177.791 88.5527 183.282 88.5527C192.708 88.5527 197.934 82.492 197.934 82.492L197.463 85.4335C197.421 85.6964 197.436 85.9654 197.508 86.2219C197.58 86.4783 197.706 86.7161 197.879 86.9188C198.052 87.1216 198.266 87.2846 198.508 87.3964C198.75 87.5083 199.013 87.5664 199.279 87.5668H208.815C209.547 87.5671 210.255 87.3058 210.812 86.8298C211.368 86.3539 211.736 85.6947 211.85 84.9712L217.571 48.74C217.613 48.4776 217.598 48.2092 217.526 47.9533C217.454 47.6974 217.328 47.4602 217.155 47.258C216.983 47.0557 216.769 46.8933 216.527 46.782C216.286 46.6707 216.023 46.6131 215.758 46.6131V46.6131ZM201.002 67.216C199.981 73.2637 195.181 77.3235 189.059 77.3235C185.985 77.3235 183.528 76.3377 181.951 74.4694C180.386 72.614 179.791 69.9732 180.289 67.0318C181.243 61.0358 186.124 56.8435 192.152 56.8435C195.158 56.8435 197.602 57.8423 199.211 59.7267C200.824 61.6306 201.464 64.2875 201.002 67.216V67.216ZM272.136 46.6131H261.498C260.997 46.6139 260.503 46.7371 260.059 46.972C259.616 47.2069 259.237 47.5464 258.954 47.961L244.283 69.5724L238.064 48.8047C237.873 48.1713 237.483 47.6161 236.952 47.2214C236.421 46.8267 235.778 46.6135 235.116 46.6131H224.663C224.369 46.6124 224.08 46.6817 223.819 46.8153C223.557 46.949 223.332 47.1431 223.161 47.3815C222.99 47.6199 222.878 47.8957 222.835 48.186C222.792 48.4763 222.819 48.7726 222.914 49.0503L234.631 83.4359L223.615 98.9866C223.42 99.2623 223.303 99.5866 223.28 99.9239C223.256 100.261 223.326 100.599 223.481 100.899C223.636 101.199 223.871 101.451 224.16 101.627C224.449 101.803 224.78 101.896 225.118 101.896H235.743C236.239 101.896 236.728 101.777 237.168 101.547C237.607 101.317 237.985 100.984 238.268 100.577L273.649 49.5061C273.84 49.2298 273.953 48.9062 273.974 48.5706C273.995 48.2349 273.924 47.8999 273.768 47.6018C273.612 47.3038 273.377 47.0541 273.09 46.8798C272.802 46.7055 272.472 46.6133 272.136 46.6131V46.6131Z" fill="#253B80"/>
<path d="M307.355 26.1654H285.246C284.515 26.1657 283.808 26.427 283.252 26.9022C282.696 27.3774 282.328 28.0354 282.214 28.7577L273.274 85.4431C273.232 85.7057 273.248 85.9742 273.32 86.2301C273.392 86.4859 273.519 86.7231 273.692 86.9253C273.864 87.1274 274.079 87.2898 274.32 87.4011C274.562 87.5124 274.824 87.57 275.09 87.57H286.436C286.948 87.5692 287.442 87.3859 287.831 87.0529C288.22 86.7199 288.477 86.2591 288.556 85.7534L291.094 69.6855C291.207 68.9626 291.575 68.3038 292.13 67.828C292.686 67.3521 293.394 67.0904 294.126 67.0899H301.12C315.685 67.0899 324.086 60.0435 326.284 46.0798C327.276 39.9707 326.323 35.1707 323.462 31.8091C320.324 28.1177 314.754 26.1654 307.355 26.1654V26.1654ZM309.906 46.8685C308.7 54.8006 302.639 54.8006 296.776 54.8006H293.444L295.787 39.9868C295.854 39.5534 296.074 39.1584 296.407 38.8732C296.741 38.588 297.165 38.4316 297.604 38.4321H299.132C303.121 38.4321 306.89 38.4321 308.836 40.7077C309.996 42.0652 310.349 44.0822 309.906 46.8685V46.8685ZM373.431 46.6131H362.851C362.413 46.6119 361.988 46.7682 361.655 47.0535C361.321 47.3388 361.101 47.7342 361.035 48.1679L360.566 51.1287L359.823 50.0556C357.531 46.7295 352.424 45.6176 347.323 45.6176C335.625 45.6176 325.638 54.4774 323.692 66.9057C322.683 73.1053 324.115 79.0334 327.632 83.1676C330.864 86.9688 335.474 88.5526 340.965 88.5526C350.391 88.5526 355.617 82.492 355.617 82.492L355.146 85.4334C355.103 85.6969 355.119 85.9665 355.191 86.2234C355.264 86.4803 355.391 86.7184 355.564 86.9213C355.738 87.1242 355.953 87.287 356.195 87.3984C356.438 87.5099 356.702 87.5673 356.969 87.5668H366.501C367.232 87.5663 367.94 87.3046 368.496 86.8287C369.052 86.3529 369.419 85.6941 369.533 84.9712L375.257 48.74C375.298 48.4768 375.281 48.2079 375.208 47.9518C375.134 47.6957 375.007 47.4585 374.833 47.2564C374.66 47.0544 374.445 46.8922 374.202 46.7812C373.96 46.6702 373.697 46.6128 373.431 46.6131V46.6131ZM358.675 67.216C357.66 73.2637 352.854 77.3235 346.732 77.3235C343.664 77.3235 341.201 76.3376 339.624 74.4694C338.059 72.614 337.471 69.9732 337.962 67.0318C338.922 61.0358 343.797 56.8435 349.825 56.8435C352.831 56.8435 355.275 57.8422 356.885 59.7267C358.504 61.6305 359.144 64.2875 358.675 67.216V67.216ZM385.911 27.7202L376.838 85.4431C376.796 85.7057 376.812 85.9742 376.884 86.2301C376.956 86.4859 377.083 86.7231 377.256 86.9253C377.428 87.1274 377.643 87.2898 377.884 87.4011C378.126 87.5124 378.388 87.57 378.654 87.57H387.776C389.292 87.57 390.578 86.471 390.811 84.9744L399.758 28.2923C399.8 28.0295 399.784 27.7609 399.712 27.5049C399.64 27.2488 399.513 27.0115 399.34 26.8091C399.168 26.6067 398.953 26.444 398.712 26.3324C398.47 26.2207 398.208 26.1626 397.942 26.1622H387.727C387.289 26.1637 386.865 26.3214 386.532 26.6068C386.2 26.8923 385.979 27.287 385.911 27.7202V27.7202Z" fill="#179BD7"/>
<path d="M23.7958 98.5858L25.4863 87.848L21.7206 87.7607H3.73914L16.2353 8.52656C16.2725 8.28446 16.3955 8.06379 16.5818 7.90478C16.7681 7.74577 17.0054 7.659 17.2503 7.66029H47.5696C57.6351 7.66029 64.5813 9.75484 68.208 13.889C69.9082 15.8284 70.991 17.8551 71.5147 20.0854C72.0642 22.4256 72.0739 25.2216 71.5373 28.6317L71.4985 28.8806V31.0656L73.1987 32.0288C74.4967 32.6864 75.6634 33.576 76.6412 34.6535C78.0957 36.3117 79.0363 38.4192 79.4339 40.9178C79.8444 43.4875 79.7087 46.5452 79.0363 50.0071C78.2606 53.9893 77.0064 57.4576 75.3127 60.2956C73.8183 62.838 71.809 65.0399 69.4137 66.7603C67.164 68.357 64.4908 69.5691 61.4686 70.3449C58.5401 71.1077 55.2011 71.4924 51.5389 71.4924H49.1793C47.492 71.4924 45.8532 72.1001 44.5667 73.1894C43.2821 74.2903 42.4299 75.8114 42.1619 77.4819L41.9841 78.4484L38.9974 97.3737L38.8617 98.0686C38.8261 98.2884 38.7647 98.3983 38.6742 98.4727C38.5865 98.5444 38.4771 98.5842 38.3639 98.5858H23.7958Z" fill="#253B80"/>
<path d="M74.8085 29.1326C74.718 29.7112 74.6145 30.3027 74.4982 30.9104C70.4998 51.439 56.8206 58.5307 39.3498 58.5307H30.4544C28.3178 58.5307 26.5174 60.0822 26.1845 62.1897L21.6302 91.0738L20.3404 99.2613C20.2891 99.5861 20.3087 99.9181 20.3979 100.235C20.4872 100.551 20.644 100.844 20.8575 101.094C21.071 101.345 21.3361 101.545 21.6347 101.683C21.9333 101.821 22.2581 101.892 22.5869 101.892H38.3639C40.2322 101.892 41.8193 100.535 42.1134 98.6924L42.2686 97.8908L45.2391 79.0399L45.4298 78.0055C45.7207 76.1566 47.311 74.799 49.1793 74.799H51.5389C66.8246 74.799 78.7907 68.593 82.2881 50.6341C83.7491 43.1319 82.9928 36.8676 79.1269 32.4619C77.9016 31.0991 76.4382 29.9709 74.8085 29.1326V29.1326Z" fill="#179BD7"/>
<path d="M70.6259 27.4648C69.3492 27.0954 68.0505 26.8072 66.7374 26.6017C64.1429 26.203 61.5207 26.0117 58.8958 26.0296H35.1317C34.2273 26.0289 33.3525 26.3518 32.6654 26.9398C31.9783 27.5279 31.5243 28.3424 31.3854 29.2361L26.33 61.2556L26.1846 62.1897C26.3421 61.1704 26.8592 60.2411 27.6424 59.57C28.4255 58.8988 29.4231 58.5302 30.4545 58.5307H39.3499C56.8206 58.5307 70.4999 51.4357 74.4983 30.9104C74.6179 30.3027 74.7181 29.7112 74.8086 29.1326C73.7535 28.5794 72.6539 28.1155 71.5213 27.746C71.2244 27.6474 70.9259 27.5537 70.6259 27.4648V27.4648Z" fill="#222D65"/>
<path d="M31.3854 29.2361C31.5231 28.3422 31.9769 27.5274 32.6643 26.9396C33.3518 26.3518 34.2272 26.0301 35.1317 26.0329H58.8958C61.7112 26.0329 64.339 26.2171 66.7374 26.605C68.3604 26.8601 69.961 27.2416 71.5245 27.746C72.7043 28.1371 73.8001 28.5994 74.8118 29.1327C76.0013 21.5464 74.8021 16.3811 70.7003 11.704C66.1782 6.55485 58.0166 4.3504 47.5729 4.3504H17.2537C15.1203 4.3504 13.3005 5.90192 12.9708 8.01264L0.34209 88.0614C0.283268 88.433 0.305648 88.813 0.40769 89.1752C0.509733 89.5373 0.689017 89.8731 0.93321 90.1594C1.1774 90.4456 1.48071 90.6756 1.82226 90.8335C2.16382 90.9914 2.53552 91.0734 2.91179 91.0739H21.6302L26.33 61.2556L31.3854 29.2361Z" fill="#253B80"/>
</svg>
