<svg width="98" height="235" viewBox="0 0 98 235" fill="none" xmlns="http://www.w3.org/2000/svg">
<g clip-path="url(#clip0)">
<path d="M44.083 220.036L33.749 228.06C34.549 225.607 35.24 223.503 35.929 221.399L34.11 220.332L23.046 234.9L21.971 234.283C23.2697 231.525 24.5697 228.767 25.871 226.01L24.471 225.22C22.7024 228.02 20.9327 230.82 19.162 233.62L18.376 233.244C18.699 232.093 19.021 230.944 19.384 229.644C18.739 229.544 18.216 229.3 17.843 229.444C16.296 230.036 14.843 231.138 13.264 231.326C10.5 231.655 7.50903 232.126 7.48103 227.499C7.46903 225.37 6.15103 223.161 5.07503 221.178C4.73203 220.546 3.26203 220.527 1.59803 220.005C-0.729973 202.949 -0.866973 185.195 3.57203 167.305C5.92803 157.811 5.82803 147.727 7.17203 137.956C8.12503 131.042 7.00703 123.485 13.072 117.918C14.223 116.861 14.396 114.569 14.7 112.791C15.76 106.574 16.553 100.308 17.744 94.118C18.044 92.56 19.352 91.141 20.379 89.799C20.955 89.047 22.279 88.748 22.627 87.962C25.048 82.547 27.182 77 29.648 71.6C31.709 67.088 33.439 62.2 36.465 58.4C44.858 47.834 54.377 38.14 62.382 27.312C66.294 22.02 67.982 15.347 74.61 11.858C76.618 10.801 76.71 6.43 78.14 3.828C78.98 2.3 80.719 1.259 82.054 0L85.538 4.357C87.396 4.01 90.515 3.235 91.074 7.692C91.3668 6.82612 91.7908 6.01029 92.331 5.273C93.5461 4.16754 94.8206 3.12933 96.149 2.163C96.8465 3.68008 97.3773 5.26838 97.732 6.9C98.903 17.491 92.895 26.68 91.732 36.774C90.887 44.129 91.254 51.621 91.01 59.049C90.91 62.213 92.31 65.855 88.29 68.649L86.37 63.458L85.643 63.531C85.408 66.792 85.174 70.053 84.906 73.775C82.495 70.106 80.901 70.966 79.246 73.782C77.086 77.457 76.992 77.402 72.783 76.356L66.783 81.223C65.013 85.342 63.624 88.792 62.058 92.159C60.187 96.181 58.013 99.611 59.824 104.84C60.966 108.14 58.368 112.64 57.833 116.651C57.7142 118.751 57.8968 120.857 58.375 122.905C58.79 125.466 59.409 127.994 60.017 130.905L62.778 129.485L66 138.016L69.28 133.245C74.767 136.158 74.95 141.319 74.516 146.759L75.892 146.537V138.447L76.8 137.613C78.209 139.713 80.626 141.723 80.823 143.932C81.269 148.938 81.396 154.226 80.247 159.066C78.281 167.356 75.314 175.416 72.562 183.503C72.169 184.658 70.631 185.422 70.506 185.539C69.701 188.278 69.086 190.368 68.472 192.458L66.697 192.075C66.888 190.514 67.08 188.954 67.377 186.539C58.745 199.4 52.85 213.611 37.435 219.7L38.835 221.508L44.083 220.036ZM38.256 182.036C34.098 182.228 33.733 183.018 30.017 199.766C35.5 194.318 36.518 188.1 38.256 182.041V182.036Z" fill="#008060" fill-opacity="0.1"/>
</g>
<defs>
<clipPath id="clip0">
<rect width="98" height="235" fill="white"/>
</clipPath>
</defs>
</svg>
