<svg width="123" height="47" viewBox="0 0 123 47" fill="none" xmlns="http://www.w3.org/2000/svg">
<path d="M22.3552 8.10372C23.2634 8.10372 24.1017 7.82428 24.7304 7.2654C25.3592 6.70652 25.7085 5.93806 25.7085 5.09973C25.7085 4.19155 25.3592 3.49294 24.7304 2.8642C24.1017 2.30532 23.3332 2.02588 22.3552 2.02588C21.447 2.02588 20.6785 2.30532 20.0498 2.93406C19.421 3.5628 19.1416 4.26141 19.1416 5.09973C19.1416 5.93806 19.421 6.63666 20.0498 7.2654C20.6785 7.82428 21.447 8.10372 22.3552 8.10372Z" fill="white" fill-opacity="0.3"/>
<path d="M42.475 0V14.3214H42.3353C42.1257 13.9721 41.7764 13.6228 41.4271 13.2735C41.0079 12.9242 40.5189 12.5749 39.96 12.2954C39.4011 12.016 38.7724 11.7365 38.0039 11.5269C37.2355 11.3174 36.3972 11.2475 35.489 11.2475C34.0219 11.2475 32.6946 11.5269 31.5069 12.0858C30.3193 12.6447 29.2714 13.4132 28.3632 14.3912C27.5249 15.3693 26.8263 16.487 26.3373 17.8144C25.8483 19.1417 25.6387 20.5389 25.6387 22.006C25.6387 23.4731 25.8483 24.9401 26.3373 26.1976C26.7564 27.525 27.455 28.6427 28.3632 29.6208C29.2714 30.5988 30.3193 31.3673 31.5069 31.9261C32.7644 32.485 34.1616 32.7645 35.7684 32.7645C37.2355 32.7645 38.5628 32.485 39.8203 31.9261C41.0778 31.3673 42.0558 30.4591 42.8243 29.2016H42.8942V32.1357H47.7145V0H42.475ZM42.2654 24.2415C41.986 25.01 41.5668 25.6387 41.0778 26.1976C40.5189 26.7565 39.8902 27.2455 39.1916 27.525C38.4231 27.8743 37.5848 28.014 36.6766 28.014C35.7684 28.014 34.9301 27.8743 34.1616 27.525C33.3932 27.1756 32.7644 26.7565 32.2754 26.1976C31.7165 25.6387 31.3672 25.01 31.0878 24.2415C30.8083 23.4731 30.6686 22.7745 30.6686 21.9361C30.6686 21.1677 30.8083 20.3992 31.0878 19.6307C31.3672 18.8623 31.7864 18.2335 32.2754 17.6747C32.8343 17.1158 33.463 16.6267 34.1616 16.3473C34.9301 15.998 35.7684 15.8583 36.6766 15.8583C37.5848 15.8583 38.4231 15.998 39.1916 16.3473C39.96 16.6966 40.5888 17.1158 41.0778 17.6747C41.6367 18.2335 41.986 18.8623 42.2654 19.6307C42.5449 20.3992 42.6846 21.1677 42.6846 21.9361C42.6846 22.7046 42.5449 23.4731 42.2654 24.2415Z" fill="white" fill-opacity="0.3"/>
<path d="M82.6446 13.8325L77.6147 18.8625V28.1539H77.4749C77.1955 27.8046 76.916 27.4553 76.4969 27.106C76.0777 26.7567 75.5887 26.4074 75.0298 26.1279C74.4709 25.8485 73.8422 25.569 73.0737 25.3595C72.5847 25.2197 71.956 25.1499 71.3272 25.08L60.7783 35.7687C60.7783 37.2357 60.9879 38.6329 61.4769 39.9603C61.8961 41.2876 62.5947 42.4054 63.5029 43.3834C64.4111 44.3615 65.459 45.1299 66.6466 45.619C67.9041 46.1778 69.3013 46.4573 70.8382 46.4573C72.3053 46.4573 73.6326 46.1778 74.8901 45.619C76.1476 45.0601 77.1256 44.1519 77.8242 42.8944H77.8941V45.9683H82.7145V13.8325H82.6446ZM77.4051 38.0042C77.1256 38.7726 76.7065 39.4014 76.2174 39.9603C75.7284 40.5192 75.0298 41.0082 74.3312 41.2876C73.5628 41.6369 72.7943 41.7766 71.8162 41.7766C70.9081 41.7766 70.0697 41.6369 69.3013 41.2876C68.5328 40.9383 67.9041 40.5192 67.415 39.9603C66.926 39.4014 66.5069 38.7726 66.2274 38.0042C65.948 37.2357 65.8083 36.5371 65.8083 35.6988C65.8083 34.9303 65.948 34.1619 66.2274 33.3934C66.5069 32.6249 66.926 31.9962 67.415 31.4373C67.9041 30.8784 68.5328 30.3894 69.3013 30.11C70.0697 29.7607 70.8382 29.6209 71.8162 29.6209C72.7244 29.6209 73.5628 29.7607 74.3312 30.11C75.0997 30.4593 75.7284 30.8784 76.2174 31.4373C76.7065 31.9962 77.1256 32.6249 77.4051 33.3934C77.6845 34.1619 77.8242 34.9303 77.8242 35.6988C77.8242 36.5371 77.6845 37.3056 77.4051 38.0042Z" fill="white"/>
<path d="M104.721 31.3675C104.162 30.0402 103.324 28.9224 102.346 28.0142C101.368 27.106 100.18 26.3376 98.8527 25.8485C97.5253 25.3595 96.0583 25.0801 94.5213 25.0801C92.9844 25.0801 91.5872 25.3595 90.19 25.8485C88.8626 26.3376 87.675 27.106 86.697 28.0142C85.7189 28.9224 84.9505 30.0402 84.3217 31.3675C83.7628 32.6948 83.4834 34.1619 83.4834 35.7687C83.4834 37.3755 83.7628 38.8426 84.3217 40.1699C84.8806 41.4972 85.7189 42.615 86.697 43.5232C87.675 44.4314 88.8626 45.1998 90.19 45.6889C91.5173 46.1779 92.9844 46.4573 94.5213 46.4573C96.0583 46.4573 97.4555 46.1779 98.8527 45.6889C100.18 45.1998 101.368 44.4314 102.346 43.5232C103.324 42.615 104.092 41.4972 104.721 40.1699C105.28 38.8426 105.559 37.3755 105.559 35.7687C105.629 34.1619 105.35 32.6948 104.721 31.3675ZM100.11 38.0042C99.8307 38.7727 99.4116 39.4014 98.9225 39.9603C98.4335 40.5192 97.8048 41.0082 97.0363 41.2877C96.2678 41.637 95.4994 41.7767 94.5213 41.7767C93.6131 41.7767 92.7748 41.637 92.0064 41.2877C91.2379 40.9384 90.6092 40.5192 90.1201 39.9603C89.6311 39.4014 89.2119 38.7727 88.9325 38.0042C88.6531 37.2358 88.5133 36.5372 88.5133 35.6988C88.5133 34.9304 88.6531 34.1619 88.9325 33.3934C89.2119 32.625 89.5612 31.9962 90.1201 31.4374C90.6092 30.8785 91.2379 30.3895 92.0064 30.11C92.7748 29.7607 93.5433 29.621 94.5213 29.621C95.4295 29.621 96.2678 29.7607 97.0363 30.11C97.8048 30.4593 98.4335 30.8785 98.9225 31.4374C99.4116 31.9962 99.8307 32.625 100.11 33.3934C100.39 34.1619 100.529 34.9304 100.529 35.6988C100.529 36.5372 100.39 37.3056 100.11 38.0042Z" fill="white"/>
<path d="M121.418 36.7467C120.859 35.9783 120.23 35.3495 119.392 34.9304C118.554 34.5112 117.715 34.1619 116.737 33.9523C115.829 33.7428 114.991 33.5332 114.083 33.3236C113.244 33.114 112.615 32.9044 112.057 32.625C111.498 32.3455 111.218 31.8565 111.218 31.2976C111.218 30.5292 111.568 29.9703 112.196 29.621C112.825 29.2717 113.524 29.132 114.222 29.132C115.899 29.132 117.226 29.8306 118.204 31.2278L121.627 28.1539C120.789 27.0362 119.741 26.1978 118.414 25.7787C117.087 25.2897 115.759 25.0801 114.362 25.0801C113.314 25.0801 112.336 25.2198 111.358 25.4294C110.38 25.7088 109.472 26.0581 108.703 26.617C107.935 27.1759 107.306 27.8745 106.887 28.643C106.398 29.4813 106.188 30.4593 106.188 31.5771C106.188 32.9044 106.468 33.8825 107.027 34.6509C107.586 35.4194 108.214 35.9783 109.053 36.3974C109.891 36.8166 110.729 37.096 111.707 37.3056C112.685 37.5152 113.524 37.6549 114.362 37.9344C115.2 38.1439 115.829 38.4234 116.388 38.7727C116.947 39.122 117.226 39.611 117.226 40.3096C117.226 40.7288 117.087 41.0781 116.877 41.3575C116.667 41.637 116.388 41.9164 116.039 42.126C115.689 42.3356 115.34 42.4753 114.921 42.5451C114.502 42.615 114.152 42.6849 113.803 42.6849C112.755 42.6849 111.847 42.4753 111.079 41.9863C110.31 41.4972 109.611 40.9384 108.983 40.1699L105.56 43.3835C106.607 44.5711 107.795 45.4094 109.122 45.8286C110.45 46.2477 111.917 46.5272 113.524 46.5272C114.502 46.5272 115.48 46.4573 116.528 46.2477L122.326 40.4493C122.326 40.3096 122.326 40.1699 122.326 40.0302C122.256 38.5631 121.977 37.5152 121.418 36.7467Z" fill="white"/>
<path d="M14.8104 12.0161L9.36128 26.1279H9.29142L3.91218 12.0161L0 15.9283L6.63673 32.1359H12.016L19.7705 12.575V32.1359H24.8703V12.0161H14.8104Z" fill="white" fill-opacity="0.3"/>
<path d="M67.0658 23.9621V20.4691C67.0658 19.9801 67.0658 19.4212 66.9959 18.7924C66.9959 18.1637 66.8562 17.4651 66.7165 16.8363C66.5768 16.1377 66.2973 15.509 65.948 14.8104C65.5987 14.1817 65.1097 13.5529 64.4111 13.0639C63.7823 12.5749 62.944 12.1557 61.966 11.8064C60.9879 11.4571 59.7304 11.3174 58.3332 11.3174C56.7265 11.3174 55.1895 11.5968 53.6526 12.0858C52.1157 12.5749 50.7883 13.4132 49.6706 14.6008L52.3253 17.2555C53.0239 16.6268 53.7923 16.0679 54.7704 15.7186C55.6786 15.3693 56.7265 15.1597 57.7744 15.1597C59.1017 15.1597 60.2195 15.509 61.1277 16.1377C62.0358 16.7665 62.455 17.7445 62.455 19.002V19.5609H61.1975C60.3592 19.5609 59.451 19.5609 58.473 19.6308C57.4949 19.7006 56.5867 19.7705 55.6087 19.9102C54.6307 20.0499 53.7225 20.3294 52.8841 20.6088C51.976 20.8882 51.2075 21.3074 50.5788 21.8663C49.8802 22.3553 49.3911 23.0539 48.972 23.8224C48.5528 24.5908 48.4131 25.5689 48.4131 26.6168C48.4131 27.6647 48.6227 28.503 49.0418 29.2715C49.461 30.0399 50.0199 30.6687 50.7185 31.1577C51.4171 31.6467 52.1855 32.0659 53.0937 32.2755C54.0019 32.5549 54.9101 32.6248 55.8183 32.6248C56.936 32.6248 57.9141 32.4851 58.8921 32.1357L67.0658 23.9621ZM62.1756 24.1717C62.1756 25.6387 61.7564 26.7565 60.9181 27.5948C60.0798 28.4332 58.8223 28.8523 57.0059 28.8523C56.5867 28.8523 56.1676 28.7825 55.7484 28.7126C55.3293 28.6427 54.9101 28.4332 54.6307 28.2236C54.2814 28.014 54.0019 27.7346 53.7923 27.3853C53.5827 27.0359 53.443 26.6866 53.443 26.1976C53.443 25.4292 53.7225 24.8703 54.2814 24.4511C54.8402 24.032 55.469 23.7525 56.2374 23.5429C57.0059 23.3334 57.8442 23.1936 58.6825 23.1238C59.5907 23.0539 60.3592 23.0539 61.0578 23.0539H62.1057V24.1717H62.1756Z" fill="white" fill-opacity="0.3"/>
</svg>
