<svg width="400" height="152" viewBox="0 0 400 152" fill="none" xmlns="http://www.w3.org/2000/svg">
<g clip-path="url(#clip0)">
<path d="M73.2463 26.5188C76.304 26.5188 78.8749 25.5689 80.9589 23.6685C83.0441 21.7704 84.0864 19.3837 84.0864 16.5118C84.0864 13.6405 83.0441 11.2532 80.9589 9.35282C78.8743 7.45471 76.3034 6.50421 73.2463 6.50421C70.1879 6.50421 67.6629 7.50061 65.6713 9.49284C63.6767 11.4868 62.6827 13.8253 62.6827 16.5124C62.6827 19.1989 63.6767 21.5397 65.6713 23.5314C67.6629 25.5236 70.1879 26.5188 73.2463 26.5188V26.5188ZM139.048 46.8425H138.631C137.796 45.7305 136.73 44.5976 135.435 43.4367C134.135 42.2794 132.561 41.1918 130.708 40.1704C128.854 39.1531 126.723 38.317 124.314 37.6686C121.904 37.0203 119.123 36.6949 115.975 36.6949C111.248 36.6949 106.892 37.5989 102.909 39.4058C98.9238 41.2127 95.5192 43.6924 92.6938 46.8425C89.865 49.9938 87.6659 53.7006 86.0914 57.961C84.5158 62.2249 83.7291 66.8112 83.7291 71.7212C83.7291 76.6346 84.4693 81.2222 85.9532 85.482C87.4341 89.7453 89.6122 93.4526 92.4852 96.6034C95.3553 99.7541 98.8099 102.232 102.84 104.04C106.871 105.845 111.479 106.749 116.669 106.749C121.396 106.749 125.795 105.822 129.874 103.97C133.952 102.118 137.193 99.1528 139.604 95.0736H139.882V105.08H155.727V0H139.048V46.8425V46.8425ZM138.283 79.2282C137.401 81.6376 136.106 83.7687 134.391 85.6226C132.676 87.4754 130.615 88.9569 128.206 90.0701C125.795 91.181 123.063 91.7375 120.005 91.7375C116.947 91.7375 114.213 91.181 111.805 90.0701C109.395 88.9569 107.334 87.4754 105.62 85.6226C103.904 83.7692 102.608 81.6382 101.728 79.2282C100.846 76.8194 100.408 74.3165 100.408 71.7212C100.408 69.1282 100.847 66.6271 101.728 64.2159C102.608 61.8071 103.905 59.6766 105.62 57.8233C107.334 55.9705 109.395 54.4861 111.805 53.3752C114.214 52.2632 116.948 51.7066 120.005 51.7066C123.063 51.7066 125.795 52.2632 128.206 53.3752C130.615 54.4861 132.675 55.9705 134.391 57.8233C136.106 59.6766 137.402 61.8071 138.283 64.2159C139.162 66.6203 139.609 69.1612 139.604 71.7212C139.604 74.3165 139.163 76.82 138.283 79.2282V79.2282ZM254.024 61.6601V92.035H253.608C252.775 90.9242 251.711 89.793 250.416 88.6345C249.121 87.48 247.547 86.393 245.699 85.3745C243.847 84.3578 241.721 83.5241 239.317 82.8762C237.625 82.4225 235.746 82.1303 233.69 81.9943L198.8 116.886C198.801 121.786 199.539 126.36 201.019 130.608C202.498 134.865 204.672 138.565 207.541 141.709C210.407 144.855 213.855 147.329 217.878 149.132C221.902 150.935 226.503 151.838 231.684 151.838C236.402 151.838 240.796 150.912 244.866 149.063C248.935 147.214 252.173 144.255 254.58 140.183H254.857V150.173H270.676V45.2738H270.413L254.024 61.6601V61.6601ZM253.261 124.364C252.381 126.772 251.087 128.898 249.376 130.747C247.663 132.598 245.605 134.076 243.201 135.187C240.794 136.297 238.066 136.852 235.014 136.852C231.961 136.852 229.232 136.297 226.828 135.187C224.42 134.077 222.363 132.598 220.652 130.747C218.94 128.897 217.644 126.77 216.767 124.364C215.886 121.96 215.448 119.462 215.448 116.872C215.448 114.284 215.886 111.785 216.767 109.379C217.644 106.975 218.939 104.848 220.652 102.997C222.363 101.147 224.42 99.6675 226.828 98.5561C229.232 97.447 231.961 96.891 235.014 96.891C238.066 96.891 240.794 97.447 243.201 98.5561C245.605 99.6658 247.663 101.147 249.376 102.997C251.086 104.849 252.381 106.975 253.261 109.379C254.139 111.78 254.585 114.316 254.58 116.872C254.585 119.427 254.138 121.964 253.261 124.364V124.364ZM342.741 102.511C340.841 98.2092 338.276 94.5327 335.039 91.4802C331.801 88.4276 327.962 86.0688 323.523 84.4031C319.082 82.738 314.364 81.9048 309.369 81.9048C304.374 81.9048 299.657 82.738 295.217 84.4031C290.776 86.0676 286.937 88.4276 283.701 91.4802C280.461 94.5327 277.894 98.2092 275.999 102.511C274.101 106.811 273.155 111.599 273.155 116.872C273.155 122.144 274.102 126.931 275.999 131.234C277.894 135.535 280.461 139.212 283.701 142.265C286.937 145.317 290.777 147.676 295.217 149.341C299.657 151.006 304.375 151.839 309.369 151.839C314.365 151.839 319.083 151.006 323.523 149.341C327.963 147.677 331.801 145.317 335.039 142.265C338.276 139.212 340.841 135.535 342.741 131.234C344.635 126.932 345.585 122.144 345.585 116.872C345.585 111.599 344.635 106.811 342.741 102.511V102.511ZM327.616 124.364C326.736 126.772 325.442 128.898 323.73 130.747C322.017 132.598 319.959 134.076 317.556 135.187C315.148 136.297 312.42 136.852 309.368 136.852C306.315 136.852 303.587 136.297 301.182 135.187C298.775 134.077 296.717 132.598 295.006 130.747C293.294 128.897 291.999 126.77 291.122 124.364C290.24 121.96 289.802 119.462 289.802 116.872C289.802 114.284 290.24 111.785 291.122 109.379C291.999 106.975 293.293 104.848 295.006 102.997C296.717 101.147 298.775 99.6675 301.182 98.5561C303.586 97.447 306.315 96.891 309.368 96.891C312.42 96.891 315.148 97.447 317.556 98.5561C319.959 99.6658 322.017 101.147 323.73 102.997C325.44 104.849 326.736 106.975 327.616 109.379C328.493 111.78 328.939 114.316 328.935 116.872C328.939 119.427 328.493 121.964 327.616 124.364V124.364ZM397.296 120.202C395.539 117.704 393.317 115.74 390.636 114.306C387.951 112.872 385.061 111.807 381.963 111.114C379.066 110.468 376.175 109.797 373.29 109.102C370.606 108.456 368.387 107.668 366.63 106.743C364.871 105.818 363.994 104.338 363.994 102.303C363.994 99.8052 365.056 98.0012 367.185 96.8904C369.311 95.7807 371.486 95.2264 373.708 95.2264C379.164 95.2264 383.511 97.4934 386.749 102.025L397.85 92.035C395.167 88.3358 391.65 85.7214 387.305 84.1951C382.956 82.6688 378.563 81.906 374.123 81.906C370.793 81.906 367.508 82.3231 364.271 83.1545C361.033 83.9883 358.166 85.2833 355.668 87.0396C353.171 88.7977 351.159 91.0427 349.632 93.7699C348.104 96.4994 347.343 99.714 347.343 103.414C347.343 107.669 348.221 111 349.98 113.404C351.735 115.811 353.955 117.683 356.64 119.023C359.321 120.366 362.212 121.337 365.313 121.938C368.411 122.54 371.302 123.186 373.985 123.881C376.666 124.574 378.888 125.476 380.645 126.585C382.401 127.696 383.281 129.409 383.281 131.72C383.281 133.016 382.934 134.149 382.242 135.12C381.548 136.092 380.645 136.902 379.536 137.549C378.415 138.2 377.197 138.669 375.928 138.937C374.632 139.215 373.383 139.353 372.181 139.353C368.665 139.353 365.681 138.59 363.232 137.065C360.779 135.537 358.491 133.573 356.364 131.168L345.263 141.575C348.685 145.46 352.57 148.144 356.92 149.622C361.266 151.101 366.03 151.842 371.211 151.842C374.454 151.842 377.698 151.505 380.944 150.841L399.895 131.888C399.921 131.426 399.933 130.955 399.933 130.473C399.932 126.123 399.052 122.699 397.296 120.202V120.202ZM48.4228 39.1635L30.7025 85.3199H30.4283L12.8446 39.1635L0.0673828 51.9413L21.7738 105.1H39.3564L64.5901 41.0181V105.1H81.2686V39.1635H48.4228ZM219.377 78.3067V66.7752C219.377 65.2042 219.33 63.3781 219.239 61.2988C219.145 59.2182 218.845 57.0697 218.337 54.8503C217.827 52.6327 216.995 50.4377 215.842 48.2648C214.684 46.0948 213.045 44.1746 210.918 42.5112C208.792 40.8478 206.112 39.4848 202.877 38.421C199.641 37.3601 195.667 36.8268 190.954 36.8268C185.685 36.8268 180.577 37.6582 175.633 39.3227C170.687 40.9861 166.364 43.7145 162.67 47.5025L171.404 56.2377C173.623 54.1125 176.258 52.4247 179.308 51.1767C182.358 49.9293 185.639 49.3053 189.151 49.3053C193.59 49.3053 197.238 50.3442 200.106 52.4247C202.969 54.5041 204.403 57.624 204.403 61.7827V63.5856H200.243C197.471 63.5856 194.512 63.6553 191.371 63.7936C188.228 63.9318 185.108 64.2572 182.011 64.7638C178.914 65.2739 175.933 66.0356 173.069 67.0518C170.203 68.0708 167.683 69.4332 165.512 71.1419C163.339 72.853 161.607 74.9788 160.313 77.5201C159.018 80.0625 158.371 83.136 158.371 86.7387C158.371 90.0672 159.064 92.9797 160.451 95.4739C161.838 97.9704 163.662 100.05 165.928 101.713C168.191 103.377 170.782 104.625 173.692 105.457C176.601 106.288 179.611 106.707 182.635 106.704C186.222 106.704 189.562 106.133 192.666 105.017C192.693 105.006 192.721 104.999 192.747 104.989L219.378 78.3579V78.3067H219.377V78.3067ZM186.656 94.2277C185.27 94.2277 183.884 94.0685 182.496 93.7437C181.111 93.4189 179.862 92.8879 178.754 92.1483C177.645 91.4099 176.743 90.5099 176.05 89.4455C175.358 88.3846 175.011 87.0664 175.011 85.4925C175.011 83.0906 175.887 81.2198 177.645 79.8777C179.398 78.5386 181.548 77.5212 184.092 76.8287C186.632 76.1344 189.337 75.6975 192.203 75.5104C195.068 75.3268 197.656 75.2321 199.967 75.2321H203.434V78.9755C203.434 83.6908 202.068 87.4121 199.344 90.1375C196.616 92.8653 192.386 94.2277 186.656 94.2277V94.2277Z" fill="#32C7A0"/>
</g>
<defs>
<clipPath id="clip0">
<rect width="400" height="151.84" fill="white"/>
</clipPath>
</defs>
</svg>
