<svg width="200" height="144" viewBox="0 0 200 144" fill="none" xmlns="http://www.w3.org/2000/svg">
<path d="M196 0H4C1.79086 0 0 1.79086 0 4V140C0 142.209 1.79086 144 4 144H196C198.209 144 200 142.209 200 140V4C200 1.79086 198.209 0 196 0Z" fill="#F8FAFD"/>
<path d="M89.3957 85.7891C89.5756 83.3983 89.6663 81.7394 89.4485 80.2998C89.209 78.6978 88.9505 77.0877 88.3119 75.5804C86.9589 76.9199 85.8318 78.1377 83.7292 77.4841C80.923 76.6128 84.2839 72.8081 85.7344 72.1464C84.698 71.3346 85.0579 69.2591 85.4327 68.1915C86.0483 66.4623 87.9222 65.2351 89.6108 64.8089C91.8487 64.2407 94.5792 63.7631 96.8766 63.368C99.5015 62.9174 104.203 62.682 104.203 62.682C102.986 64.1974 101.227 67.262 100.55 68.5907C103.489 73.4995 104.87 79.5069 105.46 82.9964" stroke="#71869D" stroke-width="0.947123" stroke-linecap="round" stroke-linejoin="round"/>
<path d="M91.1302 71.0735C91.0688 70.8844 91.0599 70.6823 91.1044 70.4885C91.149 70.2948 91.2453 70.1168 91.3831 69.9736C91.5209 69.8304 91.6951 69.7272 91.8869 69.6753C92.0788 69.6233 92.2812 69.6244 92.4724 69.6785" stroke="#71869D" stroke-width="0.947123" stroke-linecap="round" stroke-linejoin="round"/>
<path d="M95.0785 68.5298C95.4276 67.603 96.1122 67.3405 96.8658 67.8709" stroke="#71869D" stroke-width="0.947123" stroke-linecap="round" stroke-linejoin="round"/>
<path d="M94.3451 74.7064C95.441 75.6535 98.2053 75.2801 98.2689 73.1477" stroke="#71869D" stroke-width="0.947123" stroke-linecap="round" stroke-linejoin="round"/>
<path d="M139.24 63.8226C137.894 63.464 135.126 63.552 133.836 66.3203C133.137 67.8154 132.831 67.4541 131.562 68.0792C130.129 68.7787 127.908 70.6933 125.497 72.8338C123.941 74.2152 120.897 77.8075 116.352 80.3188C111.807 82.83 108.612 84.0707 107.152 84.4753L105.767 82.6433C105.016 83.6175 103.243 84.7256 102.114 85.2492C100.399 86.0638 98.5597 86.5869 96.6724 86.7971C95.2233 86.9635 93.6808 87.2544 92.1925 86.9824C91.4266 86.8471 89.4485 86.287 89.1319 85.781C89.1319 85.781 88.3566 87.2098 87.6693 87.1895C86.9819 87.1692 83.3504 85.168 79.6147 81.5852C75.8789 78.0024 71.7901 72.6917 68.467 69.4512C67.2628 68.2781 66.0032 67.2295 65.0479 65.8508C64.4959 65.0511 64.0061 64.1406 63.3878 63.3977C62.6909 62.5589 62.0036 62.5332 61.2229 62.0894C59.9605 61.3695 59.7251 60.7228 58.7076 59.8122C58.0203 59.1979 57.337 58.5755 56.2857 59.3373C54.4767 60.9731 50.7951 64.8847 50.3323 67.4947C50.0225 69.2131 51.9113 71.1696 52.8476 72.5997C55.0179 75.9241 56.7187 79.5773 58.5466 83.0952C59.6507 85.2181 67.0707 98.8512 68.0327 101.04" stroke="#71869D" stroke-width="0.947123" stroke-linecap="round" stroke-linejoin="round"/>
<path d="M89.2604 88.7211C90.0857 90.1729 91.0261 92.0834 94.3789 92.1821C96.9294 92.2579 98.2296 90.4097 99.1334 88.0676C100.32 89.4558 101.975 90.2852 103.881 90.02C105.351 89.8157 106.376 88.008 106.438 85.9122" stroke="#71869D" stroke-width="0.947123" stroke-linecap="round" stroke-linejoin="round"/>
<path d="M99.7275 91.1444C100.6 92.1158 98.9914 95.9571 98.8426 97.1451C98.687 98.3858 97.9807 102.165 99.8493 102.519C101.221 102.778 102.256 100.819 101.933 103.38C101.85 104.037 101.347 105.129 102.033 105.545C102.719 105.96 103.609 105.012 104.348 105.537C105.836 106.596 105.306 110.376 105.259 112" stroke="#71869D" stroke-width="0.947123" stroke-linecap="round" stroke-linejoin="round"/>
<path d="M111.539 97.6957C113.189 97.7431 115.681 97.8094 117.328 97.8649" stroke="#71869D" stroke-width="0.947123" stroke-linecap="round" stroke-linejoin="round"/>
<path d="M100.07 98.8864L100.313 98.3249" stroke="#71869D" stroke-width="0.947123" stroke-linecap="round" stroke-linejoin="round"/>
<path d="M107.212 107.397L107.346 106.719" stroke="#71869D" stroke-width="0.947123" stroke-linecap="round" stroke-linejoin="round"/>
<path d="M139.287 63.6886C140.27 62.571 141.815 60.1478 143.382 59.9583C144.812 60.0936 148.568 63.2259 149.343 64.4666C149.893 65.2595 149.485 65.5748 148.615 66.553C147.939 67.3175 146.16 69.4052 146.16 69.4052C145.709 71.9435 143.821 74.6347 142.746 77.1175C141.685 79.5215 140.483 81.8609 139.147 84.1235C138.675 84.9353 138.181 85.7349 137.644 86.517C136.982 87.4804 130.202 100.183 130.202 100.183" stroke="#71869D" stroke-width="0.947123" stroke-linecap="round" stroke-linejoin="round"/>
<path d="M50.3891 67.2092C48.2933 65.2392 47.0742 63.8551 47.4125 62.6928C47.8704 61.1221 48.5682 59.6315 49.4812 58.2738C50.542 56.7313 51.6461 55.9737 52.2874 55.8153C52.9288 55.657 56.0759 59.2263 56.0759 59.2263" stroke="#71869D" stroke-width="0.947123" stroke-linecap="round" stroke-linejoin="round"/>
<path d="M139.24 63.8226C140.657 63.8645 142.081 64.9984 142.914 65.6411C143.746 66.2838 145.349 67.7951 146.161 69.4011" stroke="#71869D" stroke-width="0.947123" stroke-linecap="round" stroke-linejoin="round"/>
<path d="M74.0726 42.8506C73.8926 42.7153 73.5313 42.4528 69.59 43.7355C69.1976 39.7535 68.6902 39.4991 68.494 39.4058C68.4054 39.3606 68.3067 39.3391 68.2073 39.3434C68.108 39.3476 68.0115 39.3775 67.9271 39.4301C67.7363 39.5465 67.417 39.7427 66.5835 42.4501C66.298 43.3796 66.0423 44.2929 65.9341 44.7178C60.277 46.6716 60.2716 47.229 60.2689 47.5591C60.2689 48.2749 61.1579 48.398 62.2985 48.5536C62.8509 48.6118 63.3976 48.7154 63.9329 48.8635C63.7313 49.5102 63.362 50.3518 63.0305 51.1054C62.2186 52.9618 61.9751 53.5991 62.2552 54.032C62.3107 54.116 62.3863 54.1847 62.4752 54.232C62.564 54.2793 62.6633 54.3036 62.7639 54.3027H62.7896C63.0751 54.3027 63.5135 54.2188 65.8502 51.2746C66.6052 50.3274 67.3263 49.3627 67.7228 48.8296C68.1287 49.1977 68.8174 49.8025 69.5182 50.387C71.4883 52.0282 72.1526 52.3868 72.6045 52.0512C72.9238 51.8144 73.1106 51.4234 72.1715 49.0204C71.8008 48.0733 71.3516 47.0707 71.0634 46.5011C71.2867 46.3062 71.5952 46.0505 71.9158 45.784C73.7559 44.2591 74.2904 43.7449 74.2958 43.2836C74.2958 43.1988 74.2755 43.1153 74.2367 43.04C74.1978 42.9647 74.1416 42.8997 74.0726 42.8506Z" fill="#71869D"/>
<path d="M85.5409 39.1067L85.292 39.2109C85.0917 38.5967 84.9199 37.8227 84.7656 37.1232C84.38 35.3846 84.1676 34.428 83.464 34.4171C83.0852 34.4171 82.5169 34.4077 81.5603 39.8144C81.0502 39.8428 80.099 39.9037 79.156 40.0038C76.4783 40.2907 75.9763 40.6506 75.9872 41.2134C75.9872 41.5354 76.0075 42.2728 80.4441 42.7248C80.2776 43.3282 80.0016 44.3484 79.7432 45.3862C78.88 48.8513 79.0396 49.0637 79.202 49.2883C79.2497 49.3531 79.3118 49.4059 79.3834 49.4426C79.455 49.4792 79.5342 49.4987 79.6146 49.4994H79.6214C80.0273 49.4994 80.3493 49.1219 81.7551 47.2304C82.4614 46.2832 83.6291 44.711 84.0458 44.462C84.426 44.5974 85.4516 45.6554 86.0118 46.2345C87.0482 47.3048 87.4298 47.6755 87.8208 47.6647C87.8959 47.6629 87.9698 47.6455 88.0378 47.6136C88.1059 47.5817 88.1665 47.5359 88.2159 47.4793C88.5595 47.0856 88.3336 46.5322 87.1253 44.1238C86.756 43.385 86.346 42.5678 86.1552 42.0767C86.6883 41.7289 87.6801 41.0808 88.5284 40.4422C89.9721 39.3598 90.397 38.7888 90.1521 38.2692C89.7908 37.4885 88.496 37.8768 85.5409 39.1067Z" fill="#71869D"/>
<path d="M103.455 36.0962C102.609 36.0222 101.759 36.015 100.911 36.0746C100.826 35.6768 100.685 35.0436 100.522 34.405C100.037 32.5202 99.7478 31.9776 99.2228 31.9993C98.6978 32.0209 98.3623 32.5405 97.5572 35.4414C97.5504 35.4644 97.545 35.4887 97.5383 35.5117C96.756 35.486 95.9729 35.5 95.1921 35.5537C92.7824 35.7093 92.3386 36.0584 92.1911 36.1734C92.1064 36.2339 92.0367 36.3128 91.987 36.4042C91.9373 36.4956 91.909 36.5971 91.9042 36.7011C91.8772 37.5399 93.1382 37.8836 95.2205 38.349L95.529 38.4194C94.9289 39.2055 94.3893 40.0359 93.9148 40.9036C93.306 41.9941 92.5983 43.4283 92.6849 44.067C92.6946 44.1716 92.7307 44.2721 92.7899 44.359C92.849 44.4458 92.9293 44.5162 93.0232 44.5635C93.3858 44.7408 93.7809 44.5527 94.6468 43.7909C95.1393 43.3593 95.782 42.7396 96.556 41.9481C97.3867 41.0984 98.1972 40.2284 98.6802 39.7021C98.9684 40.2433 99.419 41.0632 99.8844 41.8832C101.485 44.7083 101.76 44.8747 102.061 44.8747H102.122C102.209 44.8709 102.293 44.8468 102.368 44.8045C102.443 44.7622 102.507 44.7029 102.555 44.6312C102.998 43.9939 102.436 40.8089 101.978 39.1487C103.301 38.7644 105.192 37.866 105.466 37.2369C105.505 37.1523 105.523 37.0593 105.518 36.9661C105.513 36.8729 105.485 36.7823 105.437 36.7024C105.345 36.5427 105.165 36.2478 103.455 36.0962Z" fill="#71869D"/>
<path d="M120.15 41.2554C119.568 40.7642 117.406 40.3082 116.191 40.2406C116.216 39.9537 116.245 39.6371 116.276 39.3097C116.563 36.31 116.579 35.3183 116.129 34.9597C116.05 34.8967 115.957 34.8546 115.858 34.8376C115.759 34.8205 115.657 34.829 115.562 34.8623C115.056 35.0301 114.597 35.8094 113.764 37.2977C113.358 38.0094 112.917 38.8037 112.48 39.4369C111.939 39.265 111.106 39.081 110.642 38.9904C108.655 38.6021 108.418 38.7928 108.262 38.9187C108.178 38.9844 108.115 39.0741 108.083 39.176C108.051 39.278 108.05 39.3873 108.081 39.4897C108.122 39.625 108.241 40.0309 110.615 41.7262C110.22 42.1551 109.564 42.8763 108.921 43.6205C106.71 46.1642 106.802 46.4212 106.908 46.7189C106.941 46.8117 106.999 46.8936 107.076 46.9555C107.152 47.0174 107.245 47.0568 107.342 47.0693C107.777 47.1289 108.437 46.7365 110.216 45.6013C111.134 45.0154 112.344 44.2483 112.944 44.0115C113.324 44.5175 113.819 45.3808 114.264 46.1547C115.271 47.9136 115.645 48.5171 116.114 48.5171C116.16 48.5167 116.205 48.5112 116.249 48.5008C116.782 48.3804 116.874 47.7905 116.677 45.7583C116.584 44.8111 116.435 43.7098 116.305 42.8614C116.676 42.8127 117.142 42.7748 117.6 42.7369C119.436 42.5854 120.441 42.5029 120.407 41.7438C120.402 41.6487 120.376 41.5558 120.332 41.4716C120.288 41.3873 120.226 41.3135 120.15 41.2554Z" fill="#71869D"/>
<path d="M131.832 45.7515C131.934 45.2373 132.103 44.343 132.245 43.4256C132.678 40.6303 132.484 40.1242 132.271 39.8699C132.212 39.7989 132.138 39.7423 132.054 39.7043C131.97 39.6663 131.878 39.648 131.786 39.6507C131.488 39.6615 131.083 39.6764 129.15 42.6788C128.523 43.6556 127.933 44.6393 127.635 45.144C123.507 43.6232 123.143 44.1224 122.964 44.366C122.913 44.4382 122.876 44.52 122.856 44.6067C122.836 44.6934 122.834 44.7831 122.849 44.8707C122.939 45.4281 123.706 46.0099 124.956 46.9002C125.116 47.0152 125.271 47.1248 125.411 47.2277C121.736 50.6238 121.757 51.1623 121.757 51.3693C121.76 51.4619 121.786 51.5523 121.833 51.6319C121.881 51.7115 121.948 51.7776 122.028 51.8239C122.434 52.0607 122.975 51.8171 125.348 50.5764C126.385 50.0352 127.544 49.4263 128.395 49.0881C128.918 49.8742 129.397 51.1244 129.79 52.1513C130.411 53.7682 130.685 54.4285 131.208 54.507C131.238 54.5089 131.267 54.5089 131.296 54.507C131.444 54.5063 131.585 54.4509 131.694 54.3514C132.055 54.0212 132.046 53.3271 131.925 51.2624C131.877 50.4289 131.823 49.5035 131.843 48.762C132.288 48.7403 132.824 48.743 133.348 48.7458C135.004 48.7552 135.887 48.7458 136.266 48.3507C136.328 48.2883 136.377 48.2139 136.409 48.132C136.441 48.05 136.456 47.9623 136.453 47.8744C136.447 47.5808 136.424 46.9598 131.832 45.7515Z" fill="#71869D"/>
<path d="M143.517 59.9583C143.896 58.3766 144.713 56.711 145.844 55.5312C146.792 54.5302 147.955 53.7588 149.246 53.2757C150.216 52.9307 152.187 52.5437 153.083 53.2662C153.868 53.8981 153.529 54.9237 152.812 55.3648C152.028 55.8465 151.11 55.9561 150.242 56.1455C149.373 56.3349 147.767 56.9356 147.696 58.1858" stroke="#71869D" stroke-width="0.947123" stroke-linecap="round" stroke-linejoin="round"/>
<path d="M158.897 48.4413C159.541 48.4332 160.239 48.5834 160.301 49.3803C160.364 50.1773 159.974 50.6955 159.394 51.004" stroke="#71869D" stroke-width="0.947123" stroke-linecap="round" stroke-linejoin="round"/>
<path d="M157.762 53.7087C156.831 53.3028 157.449 51.855 157.917 51.4423C158.482 50.9444 159.663 50.7198 160.121 51.5127C160.392 51.9741 160.442 52.5789 159.881 53.0984C159.319 53.618 158.218 53.9062 157.762 53.7087Z" stroke="#71869D" stroke-width="0.947123" stroke-linecap="round" stroke-linejoin="round"/>
<path d="M160.184 52.8076C160.411 52.9902 160.523 53.3014 160.512 53.7669C160.509 54.0739 160.431 54.3755 160.286 54.6461C160.141 54.9167 159.933 55.1484 159.679 55.3215C159.147 55.6895 158.076 56.1712 157.525 55.6259C157.093 55.1984 157.137 54.0902 157.525 53.5544" stroke="#71869D" stroke-width="0.947123" stroke-linecap="round" stroke-linejoin="round"/>
<path d="M159.492 55.4406C160.181 55.4757 160.251 56.4215 159.937 57.1576C159.623 57.8936 158.735 58.6107 157.921 58.2481" stroke="#71869D" stroke-width="0.947123" stroke-linecap="round" stroke-linejoin="round"/>
<path d="M148.832 53.1039C148.832 53.1039 149.361 47.2615 149.446 46.5024C149.501 46.0234 149.508 45.3875 149.902 45.1196C150.388 44.7895 152.202 44.734 154.631 44.9586C157.059 45.1832 158.615 45.6351 158.825 45.9788C159.035 46.3225 158.813 47.9569 158.732 48.6551C158.71 48.8459 158.629 49.8634 158.534 51.0987" stroke="#71869D" stroke-width="0.947123" stroke-linecap="round" stroke-linejoin="round"/>
<path d="M148.523 56.9816C148.523 56.9816 148.143 59.298 148.278 59.6485C148.645 60.6064 150.882 60.5252 151.72 60.6619C152.992 60.8689 154.317 60.9325 155.604 61.0083C156.608 61.0665 157.377 61.0083 157.555 59.9001C157.668 59.1966 158.135 56.3349 158.135 56.3349" stroke="#71869D" stroke-width="0.947123" stroke-linecap="round" stroke-linejoin="round"/>
<path d="M153.935 61.0786C152.892 63.2435 150.418 64.4937 149.335 64.4612" stroke="#71869D" stroke-width="0.947123" stroke-linecap="round" stroke-linejoin="round"/>
<path d="M146.393 48.421L145.354 48.1369" stroke="#71869D" stroke-width="0.947123" stroke-linecap="round" stroke-linejoin="round"/>
<path d="M147.285 42.3067L146.845 41.733" stroke="#71869D" stroke-width="0.947123" stroke-linecap="round" stroke-linejoin="round"/>
<path d="M148.268 41.1985L148.055 40.5734" stroke="#71869D" stroke-width="0.947123" stroke-linecap="round" stroke-linejoin="round"/>
<path d="M160.219 41.5666L161.105 40.683" stroke="#71869D" stroke-width="0.947123" stroke-linecap="round" stroke-linejoin="round"/>
<path d="M162.926 47.3494L163.936 47.114" stroke="#71869D" stroke-width="0.947123" stroke-linecap="round" stroke-linejoin="round"/>
<path d="M163.007 49.3059L163.722 49.4804" stroke="#71869D" stroke-width="0.947123" stroke-linecap="round" stroke-linejoin="round"/>
<path d="M46.5641 51.2895C45.1975 49.5873 41.6932 49.2396 40.1548 50.7929C39.8508 51.0989 39.6227 51.4718 39.4887 51.8818C39.3548 52.2918 39.3188 52.7275 39.3835 53.1539C39.4972 53.8304 40.2535 55.0644 41.083 54.6423" stroke="#71869D" stroke-width="0.947123" stroke-linecap="round" stroke-linejoin="round"/>
<path d="M42.2993 51.8537C42.2993 52.0674 42.4197 52.2785 42.4049 52.5153C42.482 52.5288 42.5726 52.5018 42.6443 52.5153" stroke="#71869D" stroke-width="0.947123" stroke-linecap="round" stroke-linejoin="round"/>
<path d="M39.4688 51.4248C37.6977 52.3232 36.6004 54.2567 37.5286 56.0345C37.9833 56.8356 38.6524 57.4939 39.4607 57.9355C40.4173 58.4078 41.8962 58.1994 41.6256 57.0277" stroke="#71869D" stroke-width="0.947123" stroke-linecap="round" stroke-linejoin="round"/>
<path d="M36.898 55.2011C35.7953 56.6217 37.2241 58.7257 38.3539 59.5443C39.0575 60.0544 40.0073 60.5144 40.8069 59.9204C41.4253 59.4618 41.6296 58.2751 40.5769 58.1317" stroke="#71869D" stroke-width="0.947123" stroke-linecap="round" stroke-linejoin="round"/>
<path d="M36.8628 58.3022C36.1687 59.2602 36.7478 60.528 37.8749 61.0881C39.002 61.6483 39.9883 61.3519 40.328 60.3791" stroke="#71869D" stroke-width="0.947123" stroke-linecap="round" stroke-linejoin="round"/>
<path d="M40.3306 60.5144C42.2776 62.5967 45.4167 62.4506 47.0241 59.8027" stroke="#71869D" stroke-width="0.947123" stroke-linecap="round" stroke-linejoin="round"/>
<path d="M47.062 62.4276C46.3571 61.8864 45.6535 61.2694 45.6535 61.2694" stroke="#71869D" stroke-width="0.947123" stroke-linecap="round" stroke-linejoin="round"/>
<path d="M43.9933 57.6189C43.3615 56.3809 45.2719 54.576 45.2719 54.576C44.4033 55.2985 43.214 56.9762 41.9543 56.9708C40.3577 56.9627 41.1993 54.6125 41.7405 53.7899C43.3831 51.2989 47.7548 50.2165 49.6869 52.9226C50.3079 53.7926 51.5744 55.8302 51.5744 55.8302" stroke="#71869D" stroke-width="0.947123" stroke-linecap="round" stroke-linejoin="round"/>
<path d="M86.7627 76.9416C87.2579 77.3475 88.9817 78.4164 89.002 78.001C89.002 77.9279 89.002 77.8562 89.002 77.7845C88.8382 77.0307 88.6073 76.293 88.3119 75.5804C87.8389 76.0813 87.3202 76.5369 86.7627 76.9416Z" fill="#71869D"/>
<path d="M93.3872 61.3912C92.846 62.5061 91.3996 62.705 90.3131 62.824C89.2266 62.9431 87.8154 62.9296 86.8412 63.3937C85.4882 64.0404 84.1135 64.8969 84.6182 66.8561C83.211 66.94 83.0351 68.9235 83.2476 70.1494C83.2138 71.3152 83.4621 72.4719 83.9714 73.5211C84.2418 73.2456 84.5283 72.9862 84.8293 72.7445C85.5095 73.2737 86.322 73.606 87.1781 73.7051C87.5651 73.7525 87.6598 73.2776 87.4799 73.0286C86.6383 71.8704 86.6491 70.7149 86.7411 69.3578C86.7863 68.8914 86.6966 68.4217 86.4827 68.0048C86.5121 67.9901 86.543 67.9784 86.5747 67.9696C88.1685 67.699 89.416 67.0455 90.4985 66.4285C92.3589 65.3732 93.4819 63.8212 94.1057 61.7227C94.2328 61.3019 93.5902 60.9731 93.3872 61.3912Z" fill="#71869D"/>
<path d="M84.882 75.5371L85.6369 74.9905" stroke="#71869D" stroke-width="0.947123" stroke-linecap="round" stroke-linejoin="round"/>
<path d="M115.992 96.7243C115.992 96.7243 116.301 98.7876 116.23 99.8146" stroke="#71869D" stroke-width="0.947123" stroke-linecap="round" stroke-linejoin="round"/>
<path d="M114.676 96.2264C114.726 97.8297 115.082 99.5088 114.788 101.116" stroke="#71869D" stroke-width="0.947123" stroke-linecap="round" stroke-linejoin="round"/>
</svg>
