<?xml version="1.0" standalone="no"?>
<!DOCTYPE svg PUBLIC "-//W3C//DTD SVG 20010904//EN"
 "http://www.w3.org/TR/2001/REC-SVG-20010904/DTD/svg10.dtd">
<svg version="1.0" xmlns="http://www.w3.org/2000/svg"
 width="570.000000pt" height="570.000000pt" viewBox="0 0 570.000000 570.000000"
 preserveAspectRatio="xMidYMid meet">
<metadata>
Created by potrace 1.14, written by Peter Selinger 2001-2017
</metadata>
<g transform="translate(0.000000,570.000000) scale(0.100000,-0.100000)"
fill="#000000" stroke="none">
<path d="M3460 5207 c-224 -43 -327 -233 -266 -492 9 -39 37 -118 50 -144 9
-17 13 -31 9 -31 -5 0 -1 -5 7 -10 13 -8 12 -10 -5 -11 -11 -1 -24 0 -30 1 -5
1 -14 2 -20 2 -5 -1 -68 -3 -140 -6 -71 -3 -193 -8 -270 -11 -298 -14 -266
-16 -279 16 -6 16 -14 29 -18 29 -4 0 -8 5 -8 11 0 6 -13 31 -30 56 -16 24
-30 46 -30 48 0 27 -203 245 -228 245 -5 0 -15 7 -23 16 -17 20 -144 80 -189
89 -58 12 -177 14 -222 4 -69 -15 -179 -74 -232 -125 -53 -51 -108 -132 -100
-145 3 -5 1 -9 -4 -9 -15 0 -32 -109 -26 -169 6 -73 45 -146 108 -206 79 -75
192 -130 326 -159 21 -5 15 -20 -28 -75 -20 -26 -46 -60 -57 -75 -65 -89 -98
-132 -109 -138 -6 -4 -7 -8 -3 -8 5 0 2 -7 -5 -15 -21 -23 -31 -37 -68 -90
-19 -27 -40 -56 -47 -65 -7 -8 -33 -43 -58 -78 -25 -35 -49 -61 -53 -58 -10 6
-53 15 -112 23 -59 9 -283 9 -338 0 -63 -10 -160 -45 -222 -80 -64 -36 -163
-135 -187 -186 -9 -20 -22 -39 -27 -43 -6 -4 -8 -8 -4 -8 4 0 3 -12 -3 -27
-27 -71 -35 -176 -19 -255 36 -177 160 -292 325 -301 106 -6 266 55 368 139
50 42 47 48 104 -191 2 -12 32 -118 62 -225 12 -41 24 -86 27 -100 6 -28 22
-84 35 -118 14 -35 12 -38 -33 -79 -93 -85 -164 -163 -211 -233 -20 -30 -41
-60 -47 -67 -5 -7 -10 -15 -10 -18 0 -3 -10 -27 -21 -53 -12 -26 -21 -48 -21
-49 1 -2 -6 -22 -14 -45 -23 -66 -25 -192 -3 -275 51 -204 242 -359 439 -356
94 2 158 30 228 100 29 29 52 55 52 58 0 3 11 26 24 53 30 59 56 176 59 264 1
38 3 68 5 68 3 0 121 -50 182 -78 19 -9 38 -15 43 -14 4 1 7 -3 7 -8 0 -6 6
-10 13 -10 8 0 27 -6 43 -14 16 -8 90 -40 164 -71 74 -32 155 -66 180 -77 l45
-19 1 -57 c4 -216 75 -445 173 -562 43 -51 96 -100 108 -100 7 0 13 -4 13 -9
0 -5 24 -20 53 -34 83 -40 117 -48 212 -51 86 -3 161 15 241 59 56 30 114 77
114 92 0 3 7 11 15 17 8 6 26 38 39 70 20 49 24 74 22 137 -5 115 -52 205
-171 325 l-90 91 115 59 c63 33 117 61 120 64 3 3 32 18 65 35 33 16 125 65
204 108 l143 79 37 -29 c119 -94 284 -174 426 -206 64 -14 172 -16 245 -3 79
14 189 73 250 136 50 51 132 180 114 180 -3 0 0 7 7 17 10 11 14 47 14 122 0
94 -3 113 -27 163 -14 31 -43 73 -65 93 -40 39 -122 83 -170 91 -16 2 -34 7
-42 10 -28 9 -186 4 -252 -9 -60 -12 -66 -12 -64 2 2 9 4 16 5 16 2 0 5 14 13
60 7 38 14 72 32 160 8 39 16 84 19 100 7 42 15 86 20 110 2 11 7 40 11 65 4
25 9 54 12 65 2 11 6 31 8 45 2 14 6 34 9 45 2 11 5 25 5 32 1 7 20 17 44 23
23 6 58 17 77 24 19 8 38 15 42 16 4 1 18 4 30 8 63 16 225 110 306 177 54 45
165 220 165 261 0 8 3 14 7 14 4 0 7 48 8 106 1 88 -3 117 -22 169 -46 126
-116 209 -221 261 -52 25 -71 29 -145 29 -67 0 -95 -5 -133 -23 -103 -49 -211
-166 -272 -294 -9 -21 -20 -38 -24 -38 -3 1 -24 23 -45 50 -22 28 -43 50 -48
50 -4 0 -8 6 -8 13 0 7 -9 19 -20 27 -11 8 -20 18 -20 22 0 4 -12 20 -27 36
-25 27 -99 111 -146 166 -10 12 -40 46 -67 76 -105 118 -102 111 -71 176 11
22 23 54 27 70 4 16 10 34 14 39 4 6 11 26 16 45 4 19 9 40 10 45 34 120 36
325 5 409 -5 11 -8 23 -8 26 1 3 -12 32 -28 65 -62 128 -214 243 -345 261 -67
10 -125 10 -170 1z m187 -364 c18 -13 37 -38 41 -56 14 -49 5 -172 -18 -257
-14 -52 -25 -44 -76 47 -43 77 -61 132 -67 208 -4 47 -1 61 14 76 23 23 59 17
106 -18z m-1712 -159 c40 -19 175 -151 175 -171 0 -7 5 -13 11 -13 5 0 7 -5 3
-11 -15 -24 -177 7 -259 50 -118 62 -130 115 -35 155 39 16 54 15 105 -10z
m1539 -529 c-14 -22 -22 -25 -48 -19 -54 12 -80 11 -111 -4 -39 -19 -75 -52
-75 -69 0 -7 -4 -13 -10 -13 -8 0 -26 -66 -22 -82 4 -17 -90 -52 -198 -73 -53
-10 -230 -13 -236 -3 -3 5 -9 6 -14 3 -4 -3 -26 2 -48 9 -22 8 -43 12 -46 9
-7 -8 -7 -11 -10 107 -2 52 -7 110 -11 129 -5 23 -4 31 4 27 6 -4 11 -1 12 6
0 10 2 10 6 0 2 -6 8 -10 12 -7 10 5 132 12 359 20 97 3 196 8 220 10 44 4 94
33 125 72 l18 23 45 -60 c44 -58 45 -59 28 -85z m-1204 6 c3 -1 6 -9 7 -19 1
-9 3 -24 5 -32 2 -8 -7 -19 -19 -24 -11 -5 -33 -28 -48 -50 -22 -35 -25 -49
-21 -91 7 -71 8 -75 18 -75 4 0 8 -6 8 -13 0 -7 11 -24 24 -38 l24 -26 -23
-67 c-22 -64 -82 -174 -122 -224 -27 -35 -92 -102 -98 -102 -3 0 -18 -11 -33
-25 -15 -14 -30 -25 -35 -25 -4 0 -36 23 -70 50 -34 28 -79 58 -99 68 -21 9
-38 22 -38 28 0 10 79 125 110 161 5 7 10 17 10 23 0 5 3 10 8 10 4 0 18 17
32 38 28 41 32 47 60 81 11 13 20 27 20 30 0 3 14 22 30 41 49 56 100 134 106
160 7 30 7 55 -1 96 l-5 31 72 -2 c40 -2 75 -4 78 -4z m1493 -293 c8 -13 34
-44 58 -69 40 -43 87 -96 165 -188 16 -18 41 -47 57 -63 15 -16 27 -31 27 -34
0 -3 18 -24 40 -46 22 -23 40 -45 40 -49 0 -11 70 -33 110 -34 33 -2 35 -3 32
-36 -1 -19 -5 -41 -9 -49 -3 -8 -8 -24 -10 -35 -2 -11 -7 -23 -12 -28 -14 -14
-71 2 -71 20 0 44 -70 101 -132 106 -35 3 -113 -16 -133 -33 -23 -19 -129 52
-225 152 -68 70 -80 85 -80 97 0 5 -4 11 -9 13 -5 2 -23 32 -40 68 -29 61 -30
66 -14 77 40 29 99 80 132 116 41 43 53 45 74 15z m1086 -248 c17 -9 31 -47
36 -95 2 -30 -20 -68 -58 -102 -45 -39 -150 -103 -171 -103 -9 0 -16 -4 -16
-10 0 -5 -7 -10 -15 -10 -11 0 -14 7 -10 23 4 13 7 30 9 38 5 31 67 147 98
183 26 31 90 82 106 85 2 1 11 -3 21 -9z m-2223 -38 c15 -14 142 -35 229 -38
44 -2 82 -4 85 -5 3 -1 9 -1 15 1 5 1 34 3 65 5 30 3 78 9 105 15 114 24 125
24 125 3 0 -11 3 -23 8 -27 4 -4 7 -11 7 -14 1 -13 58 -117 88 -162 42 -61
114 -146 161 -189 35 -33 52 -47 109 -92 21 -16 21 -16 -15 -85 -30 -58 -62
-136 -73 -179 -1 -5 -3 -13 -4 -17 -1 -4 -6 -22 -11 -39 -9 -30 -15 -67 -25
-141 -3 -18 -5 -72 -6 -119 -1 -73 -4 -87 -17 -85 -8 2 -40 -3 -71 -11 -31 -7
-65 -15 -76 -18 -95 -21 -309 -133 -376 -195 -59 -55 -56 -55 -110 -6 -27 24
-71 58 -97 75 -26 17 -51 34 -57 38 -16 13 -151 73 -163 73 -7 0 -12 4 -12 8
0 5 -6 9 -12 9 -7 1 -40 8 -73 18 -33 9 -71 18 -85 21 -40 7 -52 13 -46 23 6
8 10 158 6 171 -1 3 -3 16 -4 30 -2 14 -7 48 -11 75 -5 28 -10 55 -10 60 -1 6
-4 17 -8 25 -3 8 -13 40 -22 70 -9 30 -26 73 -36 94 -10 22 -19 45 -19 52 0 7
-4 14 -9 16 -4 2 -12 13 -15 26 -6 16 -3 24 11 29 10 4 20 9 23 13 3 3 25 21
50 40 117 92 255 270 305 398 17 42 46 56 71 34z m-1468 -291 c34 -1 27 -18
-29 -69 -63 -58 -165 -122 -195 -122 -13 0 -25 -4 -28 -9 -8 -13 -67 -5 -76 9
-13 21 0 90 22 120 11 16 39 35 62 44 43 16 153 33 196 29 14 -1 35 -2 48 -2z
m422 -161 c0 -96 63 -159 166 -164 60 -4 73 -11 97 -51 56 -92 104 -219 114
-300 7 -62 9 -175 3 -176 -3 0 -12 -2 -20 -4 -8 -2 -26 -6 -40 -9 -51 -11 -66
-15 -124 -35 -33 -12 -60 -20 -62 -19 -1 2 -12 39 -23 83 -12 44 -25 87 -28
95 -8 21 -15 47 -27 98 -2 9 -12 44 -22 77 -10 33 -19 65 -20 70 -9 33 -16 63
-20 85 -19 97 -56 156 -113 181 -17 8 -31 16 -31 19 0 3 10 17 23 31 12 15 33
40 46 57 23 30 24 31 52 16 24 -12 29 -21 29 -54z m2442 -234 c35 -8 88 -18
118 -21 30 -4 56 -8 57 -9 1 -1 -2 -19 -7 -41 -8 -35 -14 -71 -26 -150 -5 -37
-16 -97 -20 -119 -10 -45 -32 -157 -38 -198 -2 -14 -7 -35 -11 -47 -19 -59 -1
-147 37 -184 19 -18 19 -19 1 -33 -10 -7 -26 -14 -35 -14 -10 0 -18 -5 -18
-12 0 -6 -3 -9 -6 -5 -4 3 -19 0 -34 -8 -25 -13 -29 -12 -49 9 -22 23 -28 46
-11 46 5 0 14 19 21 43 13 49 0 116 -29 146 -29 30 -88 71 -94 66 -15 -15 -30
34 -33 105 -2 44 -7 85 -10 90 -3 6 -3 10 2 10 4 0 9 24 10 52 4 87 76 288
103 288 5 0 37 -6 72 -14z m-1728 -822 c12 -2 36 -7 54 -10 18 -3 35 -10 38
-15 3 -5 9 -7 13 -4 5 2 27 -4 49 -15 23 -11 46 -20 52 -20 5 0 10 -4 10 -9 0
-5 14 -12 30 -16 17 -4 30 -10 30 -13 0 -4 23 -23 50 -42 27 -19 50 -40 50
-47 0 -6 -16 -46 -35 -88 -19 -41 -37 -86 -39 -98 -3 -12 -5 -24 -6 -27 -2 -3
-2 -8 -1 -12 2 -13 -24 -9 -65 9 -22 9 -41 17 -44 18 -3 1 -23 9 -44 18 -22
10 -50 20 -63 23 -13 4 -23 10 -23 15 0 5 -7 9 -16 9 -9 0 -37 10 -63 23 -25
13 -48 24 -51 25 -12 2 -61 23 -135 57 -91 42 -159 49 -212 21 -19 -9 -34 -12
-34 -6 -1 5 -2 13 -3 18 -1 4 -5 25 -9 47 -5 22 -10 48 -13 58 -4 13 3 21 28
31 30 13 34 13 56 -9 44 -44 110 -52 175 -21 22 11 41 25 44 33 3 7 11 13 19
13 8 0 14 5 14 10 0 37 43 44 144 24z m1296 -46 c34 -69 50 -99 66 -119 27
-35 23 -47 -24 -71 -26 -14 -96 -52 -157 -85 -60 -33 -164 -88 -230 -123 -134
-70 -159 -91 -176 -153 -7 -23 -14 -44 -15 -46 -2 -2 -33 12 -69 30 -60 31
-65 36 -61 62 3 16 6 31 8 33 4 4 44 12 65 13 7 1 30 18 52 40 45 45 59 100
43 174 -8 41 -7 47 18 73 14 16 44 43 65 59 21 17 44 36 51 43 26 25 135 81
196 101 35 11 70 22 78 25 46 14 59 7 90 -56z m1052 -168 c15 -7 29 -19 32
-27 8 -21 -19 -69 -56 -96 -27 -20 -42 -24 -80 -21 -73 6 -236 66 -253 94 -7
12 25 25 120 50 79 20 194 20 237 0z m-3098 -210 c-2 -110 -5 -123 -37 -187
-27 -56 -53 -65 -89 -31 -58 54 -62 105 -14 199 32 64 56 97 106 148 l25 26 6
-30 c3 -16 5 -73 3 -125z m1480 -575 c60 -47 86 -73 86 -85 0 -5 3 -10 8 -10
9 0 42 -57 52 -92 12 -40 -14 -65 -65 -63 -69 2 -96 22 -137 104 -20 40 -38
85 -41 100 -3 14 -7 35 -10 46 -9 34 -9 39 -8 57 1 15 5 15 39 -5 21 -12 56
-35 76 -52z"/>
</g>
</svg>
