<svg width="32" height="32" viewBox="0 0 32 32" fill="none" xmlns="http://www.w3.org/2000/svg">
<g clip-path="url(#clip0)">
<path opacity="0.85" d="M9.6 20.2C14.9019 20.2 19.2 15.9019 19.2 10.6C19.2 5.29807 14.9019 1 9.6 1C4.29807 1 0 5.29807 0 10.6C0 15.9019 4.29807 20.2 9.6 20.2Z" fill="#377dff"/>
<path opacity="0.85" d="M22.4 20.2C27.702 20.2 32 15.9019 32 10.6C32 5.29807 27.702 1 22.4 1C17.0981 1 12.8 5.29807 12.8 10.6C12.8 15.9019 17.0981 20.2 22.4 20.2Z" fill="#377dff"/>
<path opacity="0.85" d="M16.2001 31C21.502 31 25.8001 26.7019 25.8001 21.4C25.8001 16.0981 21.502 11.8 16.2001 11.8C10.8982 11.8 6.6001 16.0981 6.6001 21.4C6.6001 26.7019 10.8982 31 16.2001 31Z" fill="#377dff"/>
</g>
<defs>
<clipPath id="clip0">
<rect width="32" height="32" fill="white"/>
</clipPath>
</defs>
</svg>
