<svg width="71" height="64" viewBox="0 0 71 64" fill="none" xmlns="http://www.w3.org/2000/svg">
<path d="M47.4324 1.59973H19.9038C17.9233 1.59973 16.438 3.08509 16.438 5.06556V55.9638C16.438 57.9442 17.9233 59.4296 19.9038 59.4296H56.0475C58.0279 59.4296 59.5133 57.9442 59.5133 55.9638V47.4477V21.3055V13.8787L47.4324 1.59973Z" stroke="#21325B" stroke-width="1.98047"/>
<path d="M48.6206 14.8689C47.5313 14.8689 46.8381 13.9776 46.8381 13.0864V2.29285L59.4141 14.8689H48.6206Z" fill="#21325B"/>
<path d="M47.7294 21.1074H27.7266" stroke="#21325B" stroke-width="1.98047" stroke-linecap="round"/>
<path d="M47.7294 27.9401H27.7266" stroke="#21325B" stroke-width="1.98047" stroke-linecap="round"/>
<path d="M47.7294 34.7727H27.7266" stroke="#21325B" stroke-width="1.98047" stroke-linecap="round"/>
<path d="M47.7294 41.9023H27.7266" stroke="#21325B" stroke-width="1.98047" stroke-linecap="round"/>
<path opacity="0.2" d="M16.9331 55.7657V10.4128C16.9331 9.02652 15.8439 7.93726 14.4575 7.93726H13.9624C12.5761 7.93726 11.4868 9.02652 11.4868 10.4128V61.014C11.4868 62.4003 12.5761 63.4896 13.9624 63.4896H16.8341H51.1953C52.5817 63.4896 53.6709 62.4003 53.6709 61.014V60.5188C53.6709 59.1325 52.5817 58.0433 51.1953 58.0433H19.3097C17.9234 58.1423 16.9331 57.152 16.9331 55.7657Z" fill="#21325B"/>
</svg>
