<svg width="71" height="64" viewBox="0 0 71 64" fill="none" xmlns="http://www.w3.org/2000/svg">
<path d="M36.4408 14.7697L41.59 25.3653C41.59 25.5633 41.7881 25.5633 41.8871 25.6624L53.4729 27.2467C53.7699 27.2467 53.968 27.7419 53.7699 28.0389L45.3529 36.1589C45.1549 36.3569 45.1549 36.4559 45.1549 36.654L47.1353 48.2398C47.1353 48.5368 46.8383 48.9329 46.4422 48.7349L36.0447 43.1896C35.8466 43.1896 35.7476 43.1896 35.5496 43.1896L25.1521 48.7349C24.855 48.9329 24.3599 48.5368 24.4589 48.2398L26.4394 36.654C26.4394 36.4559 26.4394 36.3569 26.2413 36.1589L17.8243 28.138C17.5273 27.8409 17.6263 27.3458 18.1214 27.3458L29.7072 25.6624C29.9052 25.6624 30.0042 25.4643 30.0042 25.3653L35.2525 14.7697C35.7476 14.3737 36.2427 14.3737 36.4408 14.7697Z" fill="#F5CA99"/>
<path opacity="0.25" d="M55.4534 6.15489L56.9387 8.92754C56.9387 8.92754 56.9387 8.92754 57.1368 8.92754L60.2065 9.42266C60.4046 9.42266 60.4046 9.62072 60.2065 9.62072L57.929 11.8982C57.929 11.8982 57.929 11.8982 57.929 12.0963L58.4241 15.166C58.4241 15.3641 58.226 15.3641 58.226 15.3641L55.4534 13.7797H55.2553L52.4827 15.265C52.2846 15.265 52.2846 15.265 52.2846 15.067L52.7797 11.9973V11.7992L50.5022 9.5217V9.42266L53.5719 8.92754C53.5719 8.92754 53.5719 8.92754 53.77 8.92754L55.2553 6.15489C55.2553 5.95684 55.2553 5.95684 55.4534 6.15489Z" fill="#F5CA99"/>
<path opacity="0.25" d="M12.1799 0.609375L13.4672 3.38204C13.4672 3.38204 13.4672 3.38204 13.6653 3.38204L16.636 3.87716C16.834 3.87716 16.834 4.07521 16.636 4.07521L14.5565 6.1547C14.5565 6.1547 14.5565 6.1547 14.5565 6.35275L15.0516 9.32346C15.0516 9.52151 14.8535 9.52151 14.8535 9.52151L12.2789 8.03616C12.2789 8.03616 12.2789 8.03616 12.0809 8.03616L9.40723 9.42249C9.20918 9.42249 9.20918 9.42249 9.20918 9.22444L9.7043 6.25373C9.7043 6.25373 9.7043 6.25373 9.7043 6.05568L7.42676 3.97618V3.87716L10.3975 3.38204C10.3975 3.38204 10.3975 3.38204 10.5955 3.38204L11.8828 0.609375C11.9818 0.609375 12.1799 0.609375 12.1799 0.609375Z" fill="#F5CA99"/>
<path opacity="0.25" d="M13.7643 49.7252L15.2496 52.4978C15.2496 52.4978 15.2496 52.4978 15.4477 52.4978L18.5174 52.993C18.7155 52.993 18.7155 53.191 18.5174 53.191L16.2399 55.4685C16.2399 55.4685 16.2399 55.4685 16.2399 55.6666L16.735 58.7363C16.735 58.9344 16.5369 58.9344 16.5369 58.9344L13.7643 57.449H13.5662L10.8926 58.8353C10.6945 58.8353 10.6945 58.8354 10.6945 58.6373L11.1897 55.5676V55.3695L8.91211 53.191V52.993L11.9818 52.4978C11.9818 52.4978 11.9818 52.4978 12.1799 52.4978L13.4672 49.7252C13.6652 49.6261 13.7643 49.6261 13.7643 49.7252Z" fill="#F5CA99"/>
<path opacity="0.25" d="M60.2063 53.2901L61.7907 56.3598C61.7907 56.3598 61.7907 56.3598 61.9888 56.3598L65.4546 56.8549C65.6526 56.8549 65.6526 57.053 65.4546 57.152L62.979 59.6276C62.979 59.6276 62.979 59.6276 62.979 59.8257L63.6722 63.2915C63.6722 63.4895 63.4741 63.4895 63.4741 63.4895L60.4044 61.9052H60.2063L57.1366 63.4895C56.9386 63.4895 56.9386 63.4895 56.9386 63.2915L57.6317 59.8257V59.6276L55.1561 57.152C54.9581 56.954 55.1561 56.954 55.1561 56.8549L58.622 56.3598H58.82L60.4044 53.2901C59.8102 53.1911 60.0083 53.1911 60.2063 53.2901Z" fill="#F5CA99"/>
</svg>
