<svg width="46" height="47" viewBox="0 0 46 47" fill="none" xmlns="http://www.w3.org/2000/svg">
<g clip-path="url(#clip0)">
<path opacity="0.65" d="M23 41.1C13.1 41.1 5 33.1 5 23.1C5 13.2 13 5.09998 23 5.09998H34.3C38 5.09998 40.9 8.09998 40.9 11.7V23.1C41 33 32.9 41.1 23 41.1Z" fill="#E1E4EA"/>
<path opacity="0.5" d="M28 36C18.1 36 10 28 10 18C10 8.1 18 0 28 0H39.3C43 0.1 46 3.1 46 6.7V18.1C46 28 38 36 28 36Z" fill="white"/>
<path opacity="0.7" d="M18 46.1C8 46.1 0 38.1 0 28.1C0 18.2 8 10.1 18 10.1H29.3C33 10.1 35.9 13.1 35.9 16.7V28.1C35.9 38.1 27.9 46.1 18 46.1Z" fill="white"/>
<path d="M17.3999 34.1V18.4H27.5999V21.3H21.1999V24.7H25.9999V27.6H21.1999V34.1H17.3999V34.1Z" fill="#377dff"/>
</g>
<defs>
<clipPath id="clip0">
<rect width="46" height="46.1" fill="white"/>
</clipPath>
</defs>
</svg>
