<svg width="1200" height="478" viewBox="0 0 1200 478" fill="none" xmlns="http://www.w3.org/2000/svg">
<g clip-path="url(#clip0)">
<path d="M969.183 265.174C969.183 265.174 973.868 305.153 969.183 326.392C964.498 347.631 961.062 352.629 961.062 352.629L954.815 349.193C955.128 348.881 946.382 270.484 969.183 265.174Z" fill="url(#paint0_linear)"/>
<path d="M917.959 179.594C917.959 179.594 911.088 168.35 925.768 163.04C925.768 163.04 937.324 153.358 950.13 161.166C962.936 168.974 951.379 185.841 951.379 185.841C951.379 185.841 948.256 180.843 943.259 187.402C938.574 193.961 937.324 186.153 937.324 186.153C937.324 186.153 922.957 183.967 923.894 176.471C923.894 176.471 919.521 177.72 917.959 179.594Z" fill="black"/>
<path d="M952.629 311.713L954.815 313.274L960.125 278.292L946.694 273.295L957.626 213.014L939.823 221.447L939.511 220.198C939.511 220.198 935.138 221.447 934.513 218.011L933.889 218.636L933.264 215.825L935.138 208.954L926.08 209.578C926.08 209.578 916.085 208.954 914.211 221.135C912.337 233.941 908.277 266.111 909.839 285.789L909.526 321.707L955.752 348.568L954.19 312.025C953.566 312.337 953.253 312.025 952.629 311.713Z" fill="#2D208E"/>
<path d="M918.584 178.969C918.584 178.345 918.584 178.345 918.584 178.969C918.896 178.657 919.209 178.345 919.833 178.345C920.146 178.032 921.083 177.72 921.707 177.095C922.957 176.783 923.581 176.471 924.831 176.471C926.08 176.471 926.705 176.471 927.954 176.471C928.579 176.471 929.828 176.783 930.765 177.095C931.39 177.408 932.327 177.72 932.952 178.345C933.576 178.657 934.201 178.969 934.826 179.594C935.138 179.906 935.45 180.219 936.075 180.843L936.387 181.156C936.387 181.156 939.511 183.967 942.322 189.589C942.946 188.964 943.883 187.715 943.883 187.715L943.571 193.649C943.883 194.898 944.196 195.835 944.196 197.085C944.508 198.959 944.196 200.521 943.571 202.395C942.946 203.956 942.009 205.206 940.448 206.143C939.198 207.392 937.637 207.704 936.7 208.329C935.45 208.641 934.513 208.954 932.952 209.578C932.327 209.891 931.39 209.891 930.14 210.203C929.516 210.515 928.579 210.515 927.329 210.515C926.705 210.203 925.455 209.266 925.455 208.641C925.455 208.329 925.455 208.329 925.455 208.017V207.704C925.768 206.455 925.455 205.83 925.455 205.83C923.269 204.581 924.206 203.019 924.206 203.019C924.206 203.019 922.644 202.707 923.581 201.458C923.581 201.145 923.894 200.833 923.894 200.208C923.894 199.896 923.894 199.896 923.581 199.896C923.269 199.896 923.269 199.896 922.957 199.896C922.644 199.896 922.644 200.208 922.332 200.208C922.02 200.208 921.707 200.208 921.707 200.208C921.395 200.208 921.395 200.208 921.083 199.896C920.77 199.584 920.77 199.271 920.77 199.271C920.77 198.959 920.77 198.647 921.083 198.022C921.083 197.71 921.395 197.397 921.395 197.397C921.707 196.773 921.707 196.148 921.707 195.523C921.707 195.211 922.02 194.898 922.02 193.961C922.02 193.649 922.332 193.337 922.332 192.4C922.332 192.087 922.332 191.15 922.332 190.838C922.332 190.526 922.02 189.589 921.707 189.276C921.395 189.276 921.395 188.964 921.083 188.652C921.083 188.339 920.77 188.339 920.77 188.027C920.458 187.715 920.458 186.778 920.146 186.465C919.833 185.216 919.833 184.279 919.833 183.342C919.833 182.405 919.833 181.78 919.833 181.468C919.833 181.156 919.833 180.843 919.833 180.219C918.584 179.282 918.584 178.969 918.584 178.969Z" fill="#FFC107"/>
<path d="M920.458 165.539C920.458 165.539 920.458 183.654 932.952 185.216C932.952 185.216 930.141 186.778 925.143 183.654C920.146 180.531 916.71 172.41 916.71 172.41C916.71 172.41 917.022 167.725 920.458 165.539Z" fill="black"/>
<path d="M927.329 169.287C927.329 169.287 920.458 181.78 928.579 187.402C928.579 187.402 926.392 187.402 923.894 183.03C921.707 178.657 922.332 172.098 922.332 172.098C922.332 172.098 924.206 169.287 927.329 169.287Z" fill="black"/>
<path d="M934.826 164.914C934.826 164.914 927.954 177.408 936.075 183.03C936.075 183.03 933.889 183.03 931.39 178.657C929.203 174.284 929.828 167.725 929.828 167.725C929.828 167.725 931.702 164.914 934.826 164.914Z" fill="black"/>
<path d="M934.826 217.699L932.952 220.822L929.828 221.447C929.828 221.447 932.952 218.636 934.826 217.699Z" fill="url(#paint1_linear)"/>
<path d="M954.191 202.707L958.563 212.702L943.571 226.132L940.135 220.198C939.511 220.198 954.815 211.452 954.191 202.707Z" fill="#2D1582"/>
<path d="M951.692 202.707C951.692 202.707 953.253 202.395 954.503 203.956C954.503 203.956 955.128 208.641 951.379 210.828L951.692 202.707Z" fill="#2D208E"/>
<path d="M931.702 196.773L940.135 195.523L937.012 191.15L948.881 190.526L949.505 194.274L952.316 209.891C952.316 209.891 944.82 219.573 937.949 220.198C931.077 220.51 935.138 212.077 935.138 212.077L931.702 196.773Z" fill="#FFC107"/>
<path d="M946.07 182.093L951.067 183.342C951.067 183.03 951.379 183.03 951.379 182.717C954.815 173.035 954.191 166.788 954.191 166.788C954.191 166.788 967.309 159.292 965.435 178.345C965.435 179.906 964.81 181.468 964.81 183.03C964.81 184.904 964.81 186.465 965.122 188.339C965.435 189.901 966.372 191.775 966.372 193.649C966.684 195.523 966.372 197.397 965.747 199.583C965.122 202.707 963.561 206.143 960.437 207.704H960.125C957.314 208.954 954.815 207.704 952.004 206.455C952.004 206.455 948.256 201.458 948.256 193.961L946.07 182.093Z" fill="black"/>
<path d="M943.259 186.465C943.259 186.153 943.259 186.153 943.259 186.465C943.571 185.841 943.883 184.904 944.82 184.591C945.445 183.967 946.382 183.342 947.631 183.967C949.818 184.591 950.442 187.09 949.818 189.276C949.818 189.901 949.505 190.838 948.568 191.463C948.256 191.775 947.944 192.087 947.944 192.087C947.631 192.087 947.631 192.4 947.319 192.4C947.007 192.4 947.007 192.712 946.694 193.024C946.694 193.337 946.382 193.337 946.07 193.337C945.757 193.649 944.82 193.649 944.508 193.337C943.883 193.024 943.883 192.087 943.883 191.463C943.883 190.838 943.883 189.589 943.883 188.652C942.946 187.715 942.946 187.09 943.259 186.465Z" fill="#EFA02E"/>
<path d="M913.587 231.13C913.587 231.13 909.214 248.933 903.592 250.182C903.592 250.182 901.718 254.555 904.217 257.991C907.028 261.426 910.463 253.306 910.463 253.306L913.587 231.13Z" fill="#2D1582"/>
<path d="M904.217 260.177C904.529 261.426 904.841 263.613 905.466 264.862L906.091 266.736C906.403 267.985 906.091 268.298 905.466 267.048L874.857 234.878C874.232 234.253 873.295 232.067 873.295 230.505L873.608 223.946C873.608 222.697 874.232 222.384 875.169 223.321L901.405 252.993C902.03 254.243 903.279 255.804 903.592 257.366L904.217 260.177Z" fill="url(#paint2_linear)"/>
<path d="M874.232 223.321L873.607 224.258L906.091 267.673L906.403 266.424L874.232 223.321Z" fill="url(#paint3_linear)"/>
<path d="M904.529 259.24C904.841 260.489 905.153 262.676 905.778 263.925L906.403 265.799C906.715 267.048 906.403 267.361 905.778 266.111L875.169 234.253C874.544 233.628 873.607 231.442 873.607 229.88L873.92 223.321C873.92 222.072 874.544 221.759 875.481 222.696L901.718 252.369C902.342 253.618 903.592 255.18 903.904 256.741L904.529 259.24Z" fill="url(#paint4_linear)"/>
<path d="M903.904 248.933C904.217 248.933 904.529 249.245 904.529 249.245C904.529 248.933 904.841 248.933 904.841 248.933C906.091 248.933 906.403 249.557 906.715 250.494C908.902 251.744 912.025 254.242 916.71 260.489C916.71 260.489 912.962 264.862 910.776 265.799C910.776 265.799 899.531 262.051 896.096 254.555C893.285 247.059 900.781 247.683 903.904 248.933Z" fill="#FFC107"/>
<path d="M942.946 226.445L939.511 220.198L940.135 223.321L942.946 226.445Z" fill="url(#paint5_linear)"/>
<path d="M957.939 213.014C957.939 213.014 972.306 220.51 974.492 225.82C976.679 231.13 981.988 252.681 970.744 263.3L953.254 290.161C953.254 290.161 950.442 297.657 941.697 291.411C932.639 285.164 909.526 267.361 909.526 267.361C909.526 267.361 917.647 262.988 917.647 258.303L939.823 272.983L952.629 243.623L957.939 213.014Z" fill="url(#paint6_linear)"/>
<path d="M936.387 212.077C936.387 212.077 934.513 215.825 935.138 217.387L930.141 221.135C930.141 221.135 931.702 213.014 934.513 208.641L935.763 208.329L936.387 212.077Z" fill="#2D1582"/>
<path d="M890.161 251.744C890.161 251.744 885.789 250.494 885.789 247.059L890.161 251.744Z" fill="#FFC107"/>
<g opacity="0.4">
<path opacity="0.4" d="M99.3233 448.516C94.0136 445.393 94.0136 440.396 99.3233 437.272L160.541 401.978C165.851 398.855 174.597 398.855 179.906 401.978L241.124 437.272C246.434 440.396 246.434 445.393 241.124 448.516L179.906 483.81C174.597 486.934 165.851 486.934 160.541 483.81L99.3233 448.516Z" fill="#1E2022"/>
</g>
<path d="M99.3233 445.081C94.0136 441.957 94.0136 436.96 99.3233 433.836L160.541 398.542C165.851 395.419 174.597 395.419 179.906 398.542L241.124 433.836C246.434 436.96 246.434 441.957 241.124 445.081L179.906 480.375C174.597 483.498 165.851 483.498 160.541 480.375L99.3233 445.081Z" fill="#19A0FF"/>
<path d="M95.2629 384.175V439.146L244.872 439.459V384.175H95.2629Z" fill="#19A0FF"/>
<path d="M244.872 384.175V439.459C244.872 441.333 243.935 443.207 242.061 444.144L179.594 480.375C173.66 483.81 166.476 483.81 160.541 480.375L144.612 471.005L134.305 410.099L159.604 424.779C166.163 428.527 174.284 428.527 180.531 424.466L244.872 384.175Z" fill="url(#paint7_linear)"/>
<path d="M99.3233 389.797C94.0136 386.674 94.0136 381.676 99.3233 378.553L160.541 343.571C165.851 340.448 174.597 340.448 179.906 343.571L241.124 378.865C246.434 381.989 246.434 386.986 241.124 390.109L179.906 425.403C174.597 428.527 165.851 428.527 160.541 425.403L99.3233 389.797Z" fill="url(#paint8_linear)"/>
<path d="M238.001 467.257C238.001 467.257 225.195 472.567 219.261 470.38C219.261 470.38 225.508 461.322 234.565 462.259C243.623 463.196 238.001 467.257 238.001 467.257Z" fill="#3170E5"/>
<path d="M246.122 516.294C245.809 516.294 244.872 515.357 244.872 515.357L241.124 508.798C241.124 508.798 238.626 497.241 238.313 490.994C238.313 490.994 238.626 486.934 237.064 482.874C235.502 478.813 237.064 462.259 237.064 462.259C237.064 462.259 228.631 461.01 220.51 467.569L221.759 483.186C221.759 483.186 213.639 491.931 218.324 495.367C223.009 498.803 225.195 503.488 228.319 512.858C231.13 522.228 245.809 516.294 245.809 516.294C245.809 516.294 246.434 516.294 246.122 516.294Z" fill="#FFC107"/>
<path d="M158.667 400.729L206.455 403.54C206.455 403.54 214.576 404.165 211.765 417.595C210.515 422.905 210.828 428.527 212.077 433.837C212.702 436.648 213.326 439.146 214.263 441.957C215.825 446.33 217.074 450.703 217.387 455.076C218.011 460.073 218.636 465.07 219.261 470.068L219.885 469.443C220.51 469.131 221.135 468.506 221.759 468.194C223.633 466.944 225.82 465.695 228.006 464.758C230.193 463.821 232.691 463.196 235.19 463.509C235.815 463.509 236.752 463.821 237.376 464.446C238.001 464.758 238.626 465.07 238.626 466.007C238.626 466.32 238.313 466.632 238.313 466.632C239.563 466.32 240.187 465.07 240.5 463.821C240.5 462.884 240.5 461.947 240.187 461.322C239.25 457.574 239.25 453.514 238.938 449.766C238.626 443.831 238.001 437.897 237.689 431.963C237.689 429.464 237.376 426.653 237.376 424.154C237.064 420.718 237.064 417.283 236.127 414.159C235.19 410.411 234.565 406.663 233.941 402.603C233.316 398.542 233.628 394.794 233.941 391.046C233.941 390.422 233.941 389.485 233.941 388.86C233.628 387.298 233.004 385.424 232.067 383.863C229.568 379.802 224.883 377.616 220.198 377.928C216.45 378.241 213.014 379.49 209.578 381.052C190.526 391.671 193.649 398.543 158.667 400.729Z" fill="#33218E"/>
<path d="M268.922 431.963C270.172 430.713 271.733 428.527 266.111 429.464C258.303 431.025 251.119 440.708 251.119 441.02C251.119 441.02 252.993 442.894 265.174 434.774C265.174 434.774 269.547 432.587 270.484 431.338C270.484 431.026 269.859 431.338 268.922 431.963Z" fill="#3170E5"/>
<path d="M251.119 439.459C251.119 439.459 258.615 448.829 258.928 455.388C258.928 455.388 252.056 463.196 260.177 466.944C267.985 470.692 272.67 481.312 272.67 481.312C272.67 481.312 287.975 496.304 296.408 481.624C296.408 481.624 290.786 482.561 284.227 466.007C277.668 449.453 263.925 430.401 263.925 430.401L251.119 439.459Z" fill="#FFC107"/>
<path d="M268.61 426.34C266.736 424.466 265.174 421.655 263.925 419.157C261.739 415.096 259.552 410.724 257.678 406.351C254.555 399.479 251.119 392.296 248.621 385.112C247.371 381.676 246.434 377.928 245.497 374.18C244.872 370.744 244.872 366.684 243.311 363.248C242.374 361.062 240.187 359.5 238.001 358.563C232.379 356.065 225.508 356.065 219.573 356.377C217.699 356.377 215.825 356.689 213.639 356.689C213.639 356.689 201.145 359.188 197.71 354.815C193.961 350.442 143.363 357.939 143.363 357.939C143.363 357.939 128.058 395.731 158.667 401.041C189.276 406.663 206.455 386.674 206.455 386.674C207.08 386.049 207.704 385.737 208.329 385.424C209.891 384.487 211.452 383.55 213.014 382.926C217.387 381.051 222.384 380.739 226.132 383.55C232.379 387.923 231.442 395.107 232.379 401.666C232.691 404.477 233.316 407.288 234.565 410.099C236.439 415.721 238.938 421.031 241.749 426.028C242.998 428.527 244.56 430.713 245.809 433.212C246.122 433.837 250.807 441.02 250.807 441.02C250.807 441.02 276.419 422.592 267.361 432.9L266.424 433.836C266.424 433.836 268.922 432.587 269.235 432.275C270.796 431.338 272.358 429.776 268.61 426.34Z" fill="#2D1582"/>
<path d="M257.054 458.511C257.054 458.511 252.056 465.695 257.054 471.942C257.054 471.942 258.303 477.251 257.991 482.561C257.991 482.561 259.24 485.06 262.676 483.186V474.753C262.676 474.753 267.985 474.128 274.544 488.808C274.544 488.808 287.975 495.679 300.781 490.994C300.781 490.994 308.902 486.309 300.781 483.186L296.408 481.624C296.408 481.624 290.474 493.493 277.043 484.435C276.106 483.81 275.481 483.186 274.857 482.561C274.232 481.936 273.295 480.999 272.67 480.062C272.046 479.125 271.733 478.188 271.421 477.251C270.172 474.44 268.298 472.254 266.424 470.068C264.862 468.506 262.676 466.632 260.177 465.695C255.804 465.07 257.054 458.511 257.054 458.511Z" fill="#1E2022"/>
<g opacity="0.15">
<path opacity="0.15" d="M14.0552 542.842C-4.37272 532.223 -4.37272 514.732 14.0552 503.8L564.394 186.153C582.821 175.534 613.118 175.534 631.858 186.153L1182.51 504.112C1200.94 514.732 1200.94 532.223 1182.51 543.155L631.858 860.802C613.431 871.421 583.134 871.421 564.394 860.802L14.0552 542.842Z" fill="#1E2022"/>
</g>
<path d="M15.3046 504.737C-3.12333 494.118 -3.12333 476.627 15.3046 465.695L565.643 148.048C584.071 137.428 614.368 137.428 633.108 148.048L1183.76 466.007C1202.19 476.627 1202.19 494.118 1183.76 505.049L633.108 822.696C614.68 833.316 584.383 833.316 565.643 822.696L15.3046 504.737Z" fill="white"/>
<g opacity="0.4">
<path opacity="0.4" d="M15.3046 504.737C-3.12333 494.118 -3.12333 476.627 15.3046 465.695L565.643 148.048C584.071 137.428 614.368 137.428 633.108 148.048L1183.76 466.007C1202.19 476.627 1202.19 494.118 1183.76 505.049L633.108 822.696C614.68 833.316 584.383 833.316 565.643 822.696L15.3046 504.737Z" fill="#B2CBED"/>
</g>
<path d="M164.289 484.435C145.861 473.816 145.861 456.325 164.289 445.393L564.393 214.576C582.821 203.956 613.118 203.956 631.858 214.576L1031.96 445.393C1050.39 456.012 1050.39 473.503 1031.96 484.435L631.858 715.252C613.43 725.872 583.134 725.872 564.393 715.252L164.289 484.435Z" fill="url(#paint9_linear)"/>
<path opacity="0.85" d="M1045.71 465.07V489.433L1040.71 477.251C1040.71 477.564 1046.02 472.254 1045.71 465.07Z" fill="#9FBEE2"/>
<path opacity="0.85" d="M150.547 465.383V489.433L155.544 477.251C155.544 477.564 150.547 472.566 150.547 465.383Z" fill="#9FBEE2"/>
<path d="M164.289 509.422C145.861 498.803 145.861 481.312 164.289 470.38L564.393 239.563C582.821 228.943 613.118 228.943 631.858 239.563L1031.96 470.38C1050.39 480.999 1050.39 498.49 1031.96 509.422L631.858 740.239C613.43 750.859 583.134 750.859 564.393 740.239L164.289 509.422Z" fill="url(#paint10_linear)"/>
<g opacity="0.5">
<path opacity="0.5" d="M83.7064 501.926C65.2785 491.307 65.2785 473.816 83.7064 462.884L564.393 185.528C582.821 174.909 613.118 174.909 631.858 185.528L1112.55 462.884C1130.97 473.503 1130.97 490.994 1112.55 501.926L631.858 779.282C613.43 789.901 583.134 789.901 564.393 779.282L83.7064 501.926Z" stroke="#9FBEE2" stroke-width="0.6228" stroke-miterlimit="10"/>
</g>
<g opacity="0.6">
<path opacity="0.6" d="M407.6 501.926C389.172 491.307 389.172 473.816 407.6 462.884L564.394 372.306C582.821 361.687 613.118 361.687 631.858 372.306L788.652 462.884C807.08 473.503 807.08 490.994 788.652 501.926L631.858 592.504C613.431 603.123 583.134 603.123 564.394 592.504L407.6 501.926Z" stroke="#62E0FA" stroke-width="0.6228" stroke-miterlimit="10"/>
</g>
<path d="M407.6 449.453C389.172 438.834 389.172 421.343 407.6 410.411L564.394 319.833C582.821 309.214 613.118 309.214 631.858 319.833L788.652 410.411C807.08 421.031 807.08 438.522 788.652 449.453L631.858 540.031C613.431 550.651 583.134 550.651 564.394 540.031L407.6 449.453Z" fill="white"/>
<g opacity="0.15">
<path opacity="0.15" d="M407.6 396.981C389.172 386.361 389.172 368.87 407.6 357.939L564.394 267.361C582.821 256.741 613.118 256.741 631.858 267.361L788.652 357.939C807.08 368.558 807.08 386.049 788.652 396.981L631.858 487.559C613.431 498.178 583.134 498.178 564.394 487.559L407.6 396.981Z" fill="#3170E5"/>
</g>
<path d="M407.6 344.508C389.172 333.889 389.172 316.398 407.6 305.466L564.394 214.888C582.821 204.269 613.118 204.269 631.858 214.888L788.652 305.466C807.08 316.085 807.08 333.576 788.652 344.508L631.858 435.086C613.431 445.705 583.134 445.705 564.394 435.086L407.6 344.508Z" fill="#48C9FB"/>
<path d="M803.019 0H395.731V323.581H803.019V0Z" fill="url(#paint11_linear)"/>
<path d="M764.289 179.282V50.5986" stroke="url(#paint12_linear)" stroke-width="0.6228" stroke-miterlimit="10"/>
<path d="M589.381 231.754V103.071" stroke="url(#paint13_linear)" stroke-width="0.6228" stroke-miterlimit="10"/>
<path d="M449.141 231.754V103.071" stroke="url(#paint14_linear)" stroke-width="0.6228" stroke-miterlimit="10"/>
<path d="M694.326 284.539V155.856" stroke="url(#paint15_linear)" stroke-width="0.6228" stroke-miterlimit="10"/>
<path d="M431.025 365.435V236.752" stroke="url(#paint16_linear)" stroke-width="0.6228" stroke-miterlimit="10"/>
<path d="M386.986 274.545C368.558 263.925 368.558 246.434 386.986 235.502L564.706 133.056C583.134 122.436 613.431 122.436 632.171 133.056L809.891 235.502C828.319 246.122 828.319 263.613 809.891 274.545L632.171 376.991C613.743 387.611 583.446 387.611 564.706 376.991L386.986 274.545Z" stroke="url(#paint17_linear)" stroke-width="0.6228" stroke-miterlimit="10"/>
<path d="M386.986 204.269C368.558 193.649 368.558 176.158 386.986 165.227L564.706 62.7799C583.134 52.1604 613.431 52.1604 632.171 62.7799L809.578 165.539C828.006 176.158 828.006 193.649 809.578 204.581L631.858 307.028C613.431 317.647 583.134 317.647 564.394 307.028L386.986 204.269Z" stroke="url(#paint18_linear)" stroke-width="0.6228" stroke-miterlimit="10"/>
<path d="M178.345 263.925C178.345 263.925 186.153 257.366 189.276 249.245C192.4 241.124 184.591 214.576 213.639 216.137C213.639 216.137 238.313 224.258 231.754 246.746C231.754 246.746 231.442 247.059 231.13 247.059C230.817 247.371 230.505 247.996 230.193 248.308C229.568 249.245 229.256 250.182 228.943 251.119C228.631 252.056 228.943 253.306 229.256 254.243C229.568 255.18 229.568 256.429 229.88 257.366C229.88 257.991 230.193 258.615 230.193 259.24C230.193 260.177 229.256 260.177 228.631 260.177C228.006 260.177 227.382 260.489 226.757 260.489C226.132 260.489 225.508 260.802 224.883 261.114C224.258 261.739 223.946 262.363 223.634 263.3C223.009 264.55 222.384 265.799 221.76 266.736C221.135 267.673 220.51 268.922 219.573 269.547C217.699 270.172 209.266 267.048 209.266 267.048C209.266 267.048 202.082 264.237 198.334 277.043C194.586 290.474 167.413 274.232 178.345 263.925Z" fill="#FFC107"/>
<path d="M178.345 263.925C178.345 263.925 186.153 257.366 189.276 249.245C192.4 241.124 184.591 214.576 213.639 216.137C213.639 216.137 238.313 224.258 231.754 246.746C231.754 246.746 231.442 247.059 231.13 247.059C230.817 247.371 230.505 247.996 230.193 248.308C229.568 249.245 229.256 250.182 228.943 251.119C228.631 252.056 228.943 253.306 229.256 254.243C229.568 255.18 229.568 256.429 229.88 257.366C229.88 257.991 230.193 258.615 230.193 259.24C230.193 260.177 229.256 260.177 228.631 260.177C228.006 260.177 227.382 260.489 226.757 260.489C226.132 260.489 225.508 260.802 224.883 261.114C224.258 261.739 223.946 262.363 223.634 263.3C223.009 264.55 222.384 265.799 221.76 266.736C221.135 267.673 220.51 268.922 219.573 269.547C217.699 270.172 209.266 267.048 209.266 267.048C209.266 267.048 202.082 264.237 198.334 277.043C194.586 290.474 167.413 274.232 178.345 263.925Z" fill="url(#paint19_linear)"/>
<path d="M208.641 212.389C196.46 212.077 189.589 215.825 185.528 221.135C181.78 220.198 180.219 220.822 180.219 220.822C180.219 220.822 173.347 221.135 173.347 230.817C173.347 234.253 175.534 237.376 178.032 239.563C169.287 241.437 164.602 254.867 179.594 260.802C196.46 267.361 196.772 252.993 196.772 252.993C197.085 252.056 197.709 251.432 198.334 250.495C199.271 249.87 199.896 249.245 200.208 247.371C202.395 243.935 204.893 241.437 207.392 239.875C207.704 239.875 207.704 240.187 207.704 240.187C207.704 240.187 212.389 254.555 215.513 245.809C218.636 237.064 227.382 240.812 227.382 240.812C227.382 240.812 226.757 239.563 226.132 238.001C230.193 239.563 233.004 241.749 233.004 241.749C233.004 241.749 241.749 213.326 208.641 212.389Z" fill="#1E2022"/>
<path d="M207.392 239.25C207.392 239.25 200.833 235.19 202.395 245.809C202.395 245.809 203.644 251.432 207.392 246.434C211.452 241.124 207.392 239.25 207.392 239.25Z" fill="#EFA02E"/>
<path d="M171.786 354.815C171.786 354.815 195.211 361.062 199.896 351.379C204.581 341.697 204.893 336.075 204.893 336.075L171.786 354.815Z" fill="#62E0FA"/>
<path opacity="0.3" d="M171.786 354.815C171.786 354.815 195.211 361.062 199.896 351.379C204.581 341.697 204.893 336.075 204.893 336.075L171.786 354.815Z" fill="url(#paint20_linear)"/>
<path opacity="0.15" d="M299.531 363.248L360.75 336.075L293.909 296.408L299.531 363.248Z" fill="url(#paint21_linear)"/>
<path opacity="0.15" d="M362.624 261.426L327.954 281.728C327.954 281.728 326.08 284.852 331.078 287.35C331.39 287.35 331.702 287.663 331.702 287.663C332.015 287.663 332.327 287.975 332.639 287.975C332.952 288.287 333.264 288.287 333.576 288.6C333.889 288.912 334.201 288.912 334.826 289.224C335.138 289.537 335.763 289.537 336.075 289.849C336.387 290.161 337.012 290.161 337.324 290.474C337.637 290.786 338.261 291.098 338.574 291.098C338.886 291.411 339.511 291.723 339.823 291.723C340.448 292.035 340.76 292.348 341.385 292.348C342.009 292.66 342.322 292.972 342.946 292.972C343.571 293.285 343.883 293.597 344.508 293.597C344.82 293.909 345.445 294.222 345.757 294.222C346.07 294.534 346.694 294.846 347.007 294.846C347.319 295.159 347.944 295.159 348.256 295.471C348.568 295.783 349.193 295.783 349.505 296.096C349.818 296.408 350.13 296.408 350.755 296.72C351.067 297.033 351.379 297.033 351.692 297.345C352.004 297.657 352.316 297.657 352.629 297.97C352.941 298.282 353.253 298.282 353.566 298.594C353.878 298.907 354.19 298.907 354.503 299.219C354.815 299.219 354.815 299.531 355.127 299.531C355.44 299.531 355.752 299.844 355.752 299.844C356.065 299.844 356.377 299.844 356.689 300.156C357.002 300.156 357.314 300.156 357.626 300.156C357.939 300.156 358.251 300.156 358.563 300.156C358.876 300.156 359.188 300.156 359.813 300.156C360.125 300.156 360.75 300.156 361.062 299.844C361.374 299.844 361.999 299.531 362.311 299.531C362.936 299.531 363.248 299.219 363.873 299.219C364.498 298.907 364.81 298.907 365.435 298.594C366.059 298.282 366.684 297.97 366.996 297.97C367.621 297.657 368.246 297.345 368.87 297.033C369.495 296.72 370.12 296.408 370.744 296.096C371.369 295.783 371.994 295.471 372.618 294.846C392.608 282.041 392.296 278.917 392.296 278.917L362.624 261.426Z" fill="url(#paint22_linear)"/>
<path d="M362.624 260.177L327.954 280.479C327.954 280.479 326.08 283.602 331.078 286.101C331.39 286.101 331.702 286.413 331.702 286.413C332.015 286.413 332.327 286.726 332.639 286.726C332.952 287.038 333.264 287.038 333.576 287.35C333.889 287.663 334.201 287.663 334.826 287.975C335.138 288.287 335.763 288.287 336.075 288.6C336.387 288.912 337.012 288.912 337.324 289.224C337.637 289.537 338.261 289.849 338.574 289.849C338.886 290.161 339.511 290.474 339.823 290.474C340.448 290.786 340.76 291.098 341.385 291.098C342.009 291.411 342.322 291.723 342.946 291.723C343.571 292.035 343.883 292.348 344.508 292.348C344.82 292.66 345.445 292.972 345.757 292.972C346.07 293.285 346.694 293.597 347.007 293.597C347.319 293.909 347.944 293.909 348.256 294.222C348.568 294.534 349.193 294.534 349.505 294.846C349.818 295.159 350.13 295.159 350.755 295.471C351.067 295.783 351.379 295.783 351.692 296.096C352.004 296.408 352.316 296.408 352.629 296.72C352.941 297.033 353.253 297.033 353.566 297.345C353.878 297.657 354.19 297.657 354.503 297.97C354.815 297.97 354.815 298.282 355.127 298.282C355.44 298.282 355.752 298.594 355.752 298.594C356.065 298.594 356.377 298.594 356.689 298.907C357.002 298.907 357.314 298.907 357.626 298.907C357.939 298.907 358.251 298.907 358.563 298.907C358.876 298.907 359.188 298.907 359.813 298.907C360.125 298.907 360.75 298.907 361.062 298.594C361.374 298.594 361.999 298.282 362.311 298.282C362.936 298.282 363.248 297.97 363.873 297.97C364.498 297.657 364.81 297.657 365.435 297.345C366.059 297.033 366.684 296.72 366.996 296.72C367.621 296.408 368.246 296.096 368.87 295.783C369.495 295.471 370.12 295.159 370.744 294.846C371.369 294.534 371.994 294.222 372.618 293.597C392.608 280.791 392.296 277.668 392.296 277.668L362.624 260.177Z" fill="white"/>
<path opacity="0.15" d="M362.624 260.177L327.954 280.479C327.954 280.479 326.08 283.602 331.078 286.101C331.39 286.101 331.702 286.413 331.702 286.413C332.015 286.413 332.327 286.726 332.639 286.726C332.952 287.038 333.264 287.038 333.576 287.35C333.889 287.663 334.201 287.663 334.826 287.975C335.138 288.287 335.763 288.287 336.075 288.6C336.387 288.912 337.012 288.912 337.324 289.224C337.637 289.537 338.261 289.849 338.574 289.849C338.886 290.161 339.511 290.474 339.823 290.474C340.448 290.786 340.76 291.098 341.385 291.098C342.009 291.411 342.322 291.723 342.946 291.723C343.571 292.035 343.883 292.348 344.508 292.348C344.82 292.66 345.445 292.972 345.757 292.972C346.07 293.285 346.694 293.597 347.007 293.597C347.319 293.909 347.944 293.909 348.256 294.222C348.568 294.534 349.193 294.534 349.505 294.846C349.818 295.159 350.13 295.159 350.755 295.471C351.067 295.783 351.379 295.783 351.692 296.096C352.004 296.408 352.316 296.408 352.629 296.72C352.941 297.033 353.253 297.033 353.566 297.345C353.878 297.657 354.19 297.657 354.503 297.97C354.815 297.97 354.815 298.282 355.127 298.282C355.44 298.282 355.752 298.594 355.752 298.594C356.065 298.594 356.377 298.594 356.689 298.907C357.002 298.907 357.314 298.907 357.626 298.907C357.939 298.907 358.251 298.907 358.563 298.907C358.876 298.907 359.188 298.907 359.813 298.907C360.125 298.907 360.75 298.907 361.062 298.594C361.374 298.594 361.999 298.282 362.311 298.282C362.936 298.282 363.248 297.97 363.873 297.97C364.498 297.657 364.81 297.657 365.435 297.345C366.059 297.033 366.684 296.72 366.996 296.72C367.621 296.408 368.246 296.096 368.87 295.783C369.495 295.471 370.12 295.159 370.744 294.846C371.369 294.534 371.994 294.222 372.618 293.597C392.608 280.791 392.296 277.668 392.296 277.668L362.624 260.177Z" fill="url(#paint23_linear)"/>
<g opacity="0.5">
<path opacity="0.5" d="M357.939 275.481C358.251 275.481 358.251 275.169 357.939 275.481L355.127 273.607C354.815 273.607 354.503 273.607 354.19 273.607L350.755 275.481C350.442 275.481 350.442 275.794 350.755 275.794L353.566 277.355C353.878 277.355 354.19 277.355 354.503 277.355L357.939 275.481Z" fill="#9FBEE2"/>
</g>
<path opacity="0.5" d="M370.12 285.789L357.314 278.292C357.001 278.292 356.689 278.292 356.377 278.292C356.064 278.605 356.064 278.605 356.377 278.917L369.183 286.413C369.495 286.413 369.807 286.413 370.12 286.413C370.12 286.101 370.12 285.789 370.12 285.789Z" fill="#9FBEE2"/>
<path opacity="0.5" d="M364.498 279.542L359.812 277.043C359.5 277.043 359.188 277.043 358.875 277.043C358.563 277.355 358.563 277.355 358.875 277.668L363.561 280.166C363.873 280.166 364.185 280.166 364.498 280.166C364.498 279.854 364.498 279.542 364.498 279.542Z" fill="#9FBEE2"/>
<path d="M355.44 274.544H352.629C352.316 274.544 352.004 274.857 352.004 274.857V275.169C352.004 275.481 352.316 275.481 352.629 275.481H354.19C354.503 275.481 354.815 275.481 354.815 275.794L354.503 279.229C354.503 279.542 354.815 279.542 355.127 279.542H355.44C355.752 279.542 356.064 279.229 356.064 279.229V274.857C356.064 274.857 355.752 274.544 355.44 274.544Z" fill="#3170E5"/>
<g opacity="0.5">
<path opacity="0.5" d="M347.631 281.728C347.944 281.728 347.944 281.416 347.631 281.728L344.82 279.854C344.508 279.854 344.196 279.854 343.883 279.854L340.448 281.728C340.135 281.728 340.135 282.04 340.448 282.04L343.259 283.602C343.571 283.602 343.883 283.602 344.196 283.602L347.631 281.728Z" fill="#9FBEE2"/>
</g>
<path opacity="0.5" d="M359.5 292.035L346.694 284.539C346.382 284.539 346.07 284.539 345.757 284.539C345.445 284.852 345.445 284.852 345.757 285.164L358.563 292.66C358.876 292.66 359.188 292.66 359.5 292.66C359.813 292.348 359.813 292.035 359.5 292.035Z" fill="#9FBEE2"/>
<path opacity="0.5" d="M353.878 285.788L349.193 283.29C348.881 283.29 348.568 283.29 348.256 283.29C347.944 283.602 347.944 283.602 348.256 283.914L352.941 286.413C353.253 286.413 353.566 286.413 353.878 286.413C354.191 286.101 354.191 285.788 353.878 285.788Z" fill="#9FBEE2"/>
<path d="M345.133 280.791H342.322C342.009 280.791 341.697 281.103 341.697 281.103V281.416C341.697 281.728 342.009 281.728 342.322 281.728H343.883C344.196 281.728 344.508 281.728 344.508 282.04L344.196 285.476C344.196 285.789 344.508 285.789 344.82 285.789H345.133C345.445 285.789 345.757 285.476 345.757 285.476L346.382 281.416C345.757 281.103 345.445 280.791 345.133 280.791Z" fill="#3170E5"/>
<path d="M358.251 263.3C357.626 261.739 357.001 260.177 355.752 258.615C354.503 257.054 352.941 255.492 351.067 254.555C350.755 254.555 350.755 254.243 350.442 254.243C333.576 244.248 323.894 238.938 323.894 238.938C324.206 238.938 324.206 239.25 324.518 239.563C325.143 240.187 325.455 240.5 326.08 241.124C326.705 242.061 327.642 242.686 328.266 243.623C329.203 244.872 329.828 245.809 330.453 247.059C331.077 248.308 331.702 249.87 332.014 251.432C332.327 252.993 332.639 254.867 332.951 256.741C332.951 258.615 332.951 260.802 332.327 262.676C331.702 264.862 331.077 267.361 329.828 269.547C327.954 273.295 324.206 277.043 325.768 281.416C326.392 283.602 327.954 285.164 329.828 286.101C329.828 286.101 330.14 286.101 330.14 286.413C331.702 287.35 333.264 287.975 334.825 288.912C337.949 290.474 341.072 292.348 344.196 293.909C347.319 295.471 350.442 297.345 353.566 298.907C351.692 297.97 350.442 295.159 350.13 293.285C349.818 290.786 350.755 288.287 351.692 286.101C352.941 283.915 354.19 282.041 355.44 279.854C356.689 277.98 357.314 275.482 357.938 273.295C358.251 271.733 358.563 270.172 358.563 268.61C358.876 266.424 358.563 264.862 358.251 263.3Z" fill="#E7EAF3"/>
<path d="M284.227 248.308C285.476 247.996 287.663 249.245 287.663 249.245L342.009 280.479C342.634 280.791 342.946 281.416 342.946 282.041L343.259 334.826C343.259 334.826 343.259 337.012 341.697 337.637L341.385 334.826L288.287 304.217C287.663 303.904 287.35 303.279 287.35 302.655L286.726 249.87L284.227 248.308Z" fill="#E7EAF3"/>
<path d="M284.539 305.466L340.448 337.949C341.072 338.261 341.385 337.949 341.385 337.324V282.353C341.385 281.728 341.072 281.104 340.448 280.791L284.539 248.308C283.915 247.996 283.602 248.308 283.602 248.933V303.904C283.915 304.529 284.227 305.153 284.539 305.466Z" fill="white"/>
<path d="M286.413 304.529L338.886 334.826C339.198 335.138 339.823 334.826 339.823 334.201V282.978C339.823 282.353 339.511 281.728 338.886 281.416L286.413 251.119C286.101 250.807 285.476 251.119 285.476 251.744V303.28C285.476 303.592 286.101 304.217 286.413 304.529Z" fill="#E7EAF3"/>
<path d="M286.726 301.093L336.7 329.828C337.324 330.141 337.637 329.828 337.637 329.204V282.665C337.637 282.041 337.324 281.416 336.7 281.104L286.726 252.369C286.101 252.056 285.789 252.369 285.789 252.993V299.532C285.789 300.156 286.413 300.781 286.726 301.093Z" fill="url(#paint24_linear)"/>
<path d="M242.374 328.891L282.978 306.715C283.602 306.403 284.227 306.403 284.852 306.715L338.886 338.886L341.072 338.261V340.448C341.072 340.76 341.072 340.76 340.76 341.072L300.156 363.248C299.531 363.561 298.907 363.561 298.282 363.248L242.686 330.141C242.061 329.516 242.061 329.204 242.374 328.891Z" fill="#E7EAF3"/>
<path d="M242.061 329.828L298.282 362.311C298.907 362.624 299.531 362.624 300.156 362.311L341.072 338.886C341.697 338.574 341.697 338.261 341.072 337.949L284.852 305.466C284.227 305.153 283.602 305.153 282.978 305.466L242.061 328.891C241.437 328.891 241.437 329.516 242.061 329.828Z" fill="#F8FAFD"/>
<path d="M327.642 338.261L329.828 339.511C330.14 339.823 330.765 339.823 331.077 339.511L332.952 338.574C333.264 338.261 333.264 337.949 332.952 337.949L330.765 336.7C330.453 336.387 329.828 336.387 329.516 336.7L327.642 337.637C327.329 337.637 327.329 337.949 327.642 338.261Z" fill="#E7EAF3"/>
<path d="M323.894 336.075L326.08 337.324C326.392 337.637 327.017 337.637 327.329 337.324L329.203 336.387C329.516 336.075 329.516 335.763 329.203 335.763L327.017 334.513C326.705 334.201 326.08 334.201 325.768 334.513L323.894 335.45C323.581 335.45 323.581 335.763 323.894 336.075Z" fill="#E7EAF3"/>
<path d="M320.146 333.889L322.332 335.138C322.644 335.45 323.269 335.45 323.581 335.138L325.455 334.201C325.768 333.889 325.768 333.576 325.455 333.576L323.269 332.327C322.957 332.015 322.332 332.015 322.02 332.327L320.146 333.264C319.833 333.264 319.833 333.576 320.146 333.889Z" fill="#E7EAF3"/>
<path d="M316.398 331.702L318.584 332.952C318.896 333.264 319.521 333.264 319.833 332.952L321.707 332.015C322.02 331.702 322.02 331.39 321.707 331.39L319.521 330.141C319.209 329.828 318.584 329.828 318.272 330.141L316.398 331.078C316.085 331.078 316.085 331.39 316.398 331.702Z" fill="#E7EAF3"/>
<path d="M312.65 329.516L314.836 330.765C315.148 331.078 315.773 331.078 316.085 330.765L317.959 329.828C318.272 329.516 318.272 329.204 317.959 329.204L315.773 327.954C315.461 327.642 314.836 327.642 314.524 327.954L312.65 328.891C312.337 329.204 312.337 329.516 312.65 329.516Z" fill="#E7EAF3"/>
<path d="M308.901 327.329L311.088 328.579C311.4 328.891 312.025 328.891 312.337 328.579L314.211 327.642C314.524 327.329 314.524 327.017 314.211 327.017L312.025 325.768C311.713 325.455 311.088 325.455 310.776 325.768L308.901 326.705C308.589 327.017 308.589 327.329 308.901 327.329Z" fill="#E7EAF3"/>
<path d="M305.153 325.143L307.34 326.393C307.652 326.705 308.277 326.705 308.589 326.393L310.463 325.456C310.776 325.143 310.776 324.831 310.463 324.831L308.277 323.582C307.964 323.269 307.34 323.269 307.027 323.582L305.153 324.519C304.841 324.831 304.841 325.143 305.153 325.143Z" fill="#E7EAF3"/>
<path d="M301.405 323.269L303.592 324.518C303.904 324.831 304.529 324.831 304.841 324.518L306.715 323.581C307.027 323.269 307.027 322.957 306.715 322.957L304.529 321.707C304.216 321.395 303.592 321.395 303.279 321.707L301.405 322.644C301.405 322.644 301.093 322.957 301.405 323.269Z" fill="#E7EAF3"/>
<path d="M297.97 321.083L300.156 322.332C300.468 322.644 301.093 322.644 301.405 322.332L303.279 321.395C303.592 321.083 303.592 320.77 303.279 320.77L301.093 319.521C300.781 319.209 300.156 319.209 299.844 319.521L297.97 320.458C297.657 320.458 297.345 320.77 297.97 321.083Z" fill="#E7EAF3"/>
<path d="M294.222 318.896L296.408 320.146C296.72 320.458 297.345 320.458 297.657 320.146L299.531 319.209C299.844 318.896 299.844 318.584 299.531 318.584L297.345 317.335C297.033 317.022 296.408 317.022 296.096 317.335L294.222 318.272C293.909 318.272 293.909 318.584 294.222 318.896Z" fill="#E7EAF3"/>
<path d="M290.474 316.71L292.66 317.959C292.972 318.272 293.597 318.272 293.909 317.959L295.783 317.022C296.096 316.71 296.096 316.398 295.783 316.398L293.597 315.148C293.285 314.836 292.66 314.836 292.348 315.148L290.474 316.085C290.161 316.085 290.161 316.398 290.474 316.71Z" fill="#E7EAF3"/>
<path d="M286.726 314.524L288.912 315.773C289.224 316.085 289.849 316.085 290.161 315.773L292.035 314.836C292.348 314.524 292.348 314.211 292.035 314.211L289.849 312.962C289.537 312.65 288.912 312.65 288.6 312.962L286.726 313.899C286.413 313.899 286.413 314.211 286.726 314.524Z" fill="#E7EAF3"/>
<path d="M281.416 311.4L285.164 313.587C285.476 313.899 286.101 313.899 286.413 313.587L288.287 312.65C288.6 312.337 288.6 312.025 288.287 312.025L284.539 309.839C284.227 309.526 283.602 309.526 283.29 309.839L281.416 310.776C281.103 311.088 281.103 311.4 281.416 311.4Z" fill="#E7EAF3"/>
<path d="M279.854 314.836L277.668 313.587C277.355 313.274 277.355 312.962 277.668 312.962L279.542 312.025C279.854 311.713 280.479 311.713 280.791 312.025L282.978 313.274C283.29 313.587 283.29 313.899 282.978 313.899L281.103 314.836C280.791 315.148 280.166 315.148 279.854 314.836Z" fill="#E7EAF3"/>
<path d="M283.602 317.022L281.416 315.773C281.103 315.461 281.103 315.148 281.416 315.148L283.29 314.211C283.602 313.899 284.227 313.899 284.539 314.211L286.726 315.461C287.038 315.773 287.038 316.085 286.726 316.085L284.852 317.022C284.539 317.335 283.915 317.335 283.602 317.022Z" fill="#E7EAF3"/>
<path d="M287.35 319.209L285.164 317.959C284.852 317.647 284.852 317.335 285.164 317.335L287.038 316.398C287.35 316.085 287.975 316.085 288.287 316.398L290.474 317.647C290.786 317.959 290.786 318.272 290.474 318.272L288.6 319.209C287.975 319.521 287.663 319.521 287.35 319.209Z" fill="#E7EAF3"/>
<path d="M290.786 321.395L288.6 320.146C288.287 319.833 288.287 319.521 288.6 319.521L290.474 318.584C290.786 318.272 291.411 318.272 291.723 318.584L293.909 319.833C294.222 320.146 294.222 320.458 293.909 320.458L292.035 321.395C291.723 321.707 291.411 321.707 290.786 321.395Z" fill="#E7EAF3"/>
<path d="M294.534 323.581L292.348 322.332C292.035 322.02 292.035 321.707 292.348 321.707L294.222 320.77C294.534 320.458 295.159 320.458 295.471 320.77L297.657 322.02C297.97 322.332 297.97 322.644 297.657 322.644L295.783 323.581C295.471 323.581 294.846 323.581 294.534 323.581Z" fill="#E7EAF3"/>
<path d="M298.282 325.768L296.096 324.519C295.783 324.206 295.783 323.894 296.096 323.894L297.97 322.957C298.282 322.645 298.907 322.645 299.219 322.957L301.405 324.206C301.718 324.519 301.718 324.831 301.405 324.831L299.531 325.768C299.219 325.768 298.594 325.768 298.282 325.768Z" fill="#E7EAF3"/>
<path d="M302.03 327.954L299.844 326.705C299.531 326.393 299.531 326.08 299.844 326.08L301.718 325.143C302.03 324.831 302.655 324.831 302.967 325.143L305.153 326.393C305.466 326.705 305.466 327.017 305.153 327.017L303.279 327.954C302.967 327.954 302.342 327.954 302.03 327.954Z" fill="#E7EAF3"/>
<path d="M305.778 329.828L303.592 328.579C303.279 328.267 303.279 327.954 303.592 327.954L305.466 327.017C305.778 326.705 306.403 326.705 306.715 327.017L308.901 328.267C309.214 328.579 309.214 328.891 308.901 328.891L307.027 329.828C306.715 330.141 306.09 330.141 305.778 329.828Z" fill="#E7EAF3"/>
<path d="M309.526 332.015L307.34 330.765C307.028 330.453 307.028 330.141 307.34 330.141L309.214 329.204C309.526 328.891 310.151 328.891 310.463 329.204L312.65 330.453C312.962 330.765 312.962 331.078 312.65 331.078L310.776 332.015C310.463 332.327 309.839 332.327 309.526 332.015Z" fill="#E7EAF3"/>
<path d="M313.274 334.201L311.088 332.952C310.776 332.639 310.776 332.327 311.088 332.327L312.962 331.39C313.274 331.078 313.899 331.078 314.211 331.39L316.398 332.639C316.71 332.952 316.71 333.264 316.398 333.264L314.524 334.201C314.211 334.513 313.587 334.513 313.274 334.201Z" fill="#E7EAF3"/>
<path d="M317.022 336.387L314.836 335.138C314.524 334.826 314.524 334.513 314.836 334.513L316.71 333.576C317.022 333.264 317.647 333.264 317.959 333.576L320.146 334.826C320.458 335.138 320.458 335.45 320.146 335.45L318.272 336.387C317.959 336.7 317.335 336.7 317.022 336.387Z" fill="#E7EAF3"/>
<path d="M320.77 338.574L318.584 337.324C318.272 337.012 318.272 336.7 318.584 336.7L320.458 335.763C320.77 335.45 321.395 335.45 321.707 335.763L323.894 337.012C324.206 337.324 324.206 337.637 323.894 337.637L322.02 338.574C321.707 338.574 321.083 338.886 320.77 338.574Z" fill="#E7EAF3"/>
<path d="M326.08 341.697L322.332 339.511C322.02 339.198 322.02 338.886 322.332 338.886L324.206 337.949C324.518 337.637 325.143 337.637 325.455 337.949L329.203 340.135C329.516 340.448 329.516 340.76 329.203 340.76L327.329 341.697C326.705 341.697 326.392 341.697 326.08 341.697Z" fill="#E7EAF3"/>
<path d="M313.587 338.886L315.773 340.135C316.085 340.448 316.71 340.448 317.022 340.135L318.896 339.198C319.209 338.886 319.209 338.574 318.896 338.574L316.71 337.324C316.398 337.012 315.773 337.012 315.461 337.324L313.587 338.261C313.274 338.261 313.274 338.574 313.587 338.886Z" fill="#E7EAF3"/>
<path d="M309.839 336.7L312.025 337.949C312.337 338.261 312.962 338.261 313.274 337.949L315.148 337.012C315.461 336.7 315.461 336.387 315.148 336.387L312.962 335.138C312.65 334.826 312.025 334.826 311.713 335.138L309.839 336.075C309.526 336.075 309.526 336.387 309.839 336.7Z" fill="#E7EAF3"/>
<path d="M306.091 334.513L308.277 335.763C308.589 336.075 309.214 336.075 309.526 335.763L311.4 334.826C311.713 334.513 311.713 334.201 311.4 334.201L309.214 332.952C308.902 332.639 308.277 332.639 307.965 332.952L306.091 333.889C305.778 334.201 305.778 334.513 306.091 334.513Z" fill="#E7EAF3"/>
<path d="M302.343 332.327L304.529 333.576C304.841 333.889 305.466 333.889 305.778 333.576L307.652 332.639C307.965 332.327 307.965 332.015 307.652 332.015L305.466 330.765C305.154 330.453 304.529 330.453 304.217 330.765L302.343 331.702C302.343 332.015 302.03 332.327 302.343 332.327Z" fill="#E7EAF3"/>
<path d="M298.907 330.141L301.093 331.39C301.406 331.702 302.03 331.702 302.343 331.39L304.217 330.453C304.529 330.141 304.529 329.828 304.217 329.828L302.03 328.579C301.718 328.267 301.093 328.267 300.781 328.579L298.907 329.516C298.594 329.828 298.594 330.141 298.907 330.141Z" fill="#E7EAF3"/>
<path d="M295.159 328.267L297.345 329.516C297.657 329.828 298.282 329.828 298.594 329.516L300.468 328.579C300.781 328.267 300.781 327.954 300.468 327.954L298.282 326.705C297.97 326.393 297.345 326.393 297.033 326.705L295.159 327.642C294.846 327.642 294.846 327.954 295.159 328.267Z" fill="#E7EAF3"/>
<path d="M291.411 326.08L293.597 327.33C293.909 327.642 294.534 327.642 294.846 327.33L296.72 326.393C297.033 326.08 297.033 325.768 296.72 325.768L294.534 324.519C294.222 324.206 293.597 324.206 293.285 324.519L291.411 325.456C291.098 325.456 291.098 325.768 291.411 326.08Z" fill="#E7EAF3"/>
<path d="M287.663 323.894L289.849 325.143C290.161 325.456 290.786 325.456 291.098 325.143L292.972 324.206C293.285 323.894 293.285 323.582 292.972 323.582L290.786 322.332C290.474 322.02 289.849 322.02 289.537 322.332L287.663 323.269C287.35 323.269 287.35 323.582 287.663 323.894Z" fill="#E7EAF3"/>
<path d="M283.915 321.708L286.101 322.957C286.413 323.269 287.038 323.269 287.35 322.957L289.224 322.02C289.537 321.708 289.537 321.395 289.224 321.395L287.038 320.146C286.726 319.834 286.101 319.834 285.789 320.146L283.915 321.083C283.602 321.083 283.602 321.395 283.915 321.708Z" fill="#E7EAF3"/>
<path d="M280.167 319.521L282.353 320.77C282.665 321.083 283.29 321.083 283.602 320.77L285.476 319.833C285.789 319.521 285.789 319.209 285.476 319.209L283.29 317.959C282.978 317.647 282.353 317.647 282.041 317.959L280.167 318.896C279.854 318.896 279.854 319.521 280.167 319.521Z" fill="#E7EAF3"/>
<path d="M317.335 341.072L322.02 343.883C322.332 344.196 322.957 344.196 323.269 343.883L325.143 342.946C325.456 342.634 325.456 342.322 325.143 342.322L320.458 339.511C320.146 339.198 319.521 339.198 319.209 339.511L317.335 340.448C317.022 340.448 317.022 340.76 317.335 341.072Z" fill="#E7EAF3"/>
<path d="M273.92 315.773L278.605 318.584C278.917 318.896 279.542 318.896 279.854 318.584L281.728 317.647C282.041 317.335 282.041 317.022 281.728 317.022L277.043 314.211C276.731 313.899 276.106 313.899 275.794 314.211L273.92 315.148C273.607 315.461 273.607 315.773 273.92 315.773Z" fill="#E7EAF3"/>
<path d="M307.965 339.823L310.151 341.072C310.463 341.385 311.088 341.385 311.4 341.072L313.274 340.135C313.587 339.823 313.587 339.511 313.274 339.511L311.088 338.261C310.776 337.949 310.151 337.949 309.839 338.261L307.965 339.198C307.652 339.511 307.652 339.823 307.965 339.823Z" fill="#E7EAF3"/>
<path d="M304.216 337.949L306.403 339.198C306.715 339.511 307.34 339.511 307.652 339.198L309.526 338.261C309.839 337.949 309.839 337.637 309.526 337.637L307.34 336.387C307.027 336.075 306.403 336.075 306.09 336.387L304.216 337.324C303.904 337.324 303.904 337.637 304.216 337.949Z" fill="#E7EAF3"/>
<path d="M300.469 335.763L302.655 337.012C302.967 337.324 303.592 337.324 303.904 337.012L305.778 336.075C306.091 335.763 306.091 335.45 305.778 335.45L303.592 334.201C303.28 333.889 302.655 333.889 302.343 334.201L300.469 335.138C300.156 335.138 300.156 335.45 300.469 335.763Z" fill="#E7EAF3"/>
<path d="M296.72 333.576L298.907 334.826C299.219 335.138 299.844 335.138 300.156 334.826L302.03 333.889C302.342 333.576 302.342 333.264 302.03 333.264L299.844 332.015C299.531 331.702 298.907 331.702 298.594 332.015L296.72 332.952C296.408 332.952 296.408 333.264 296.72 333.576Z" fill="#E7EAF3"/>
<path d="M292.972 331.39L295.159 332.639C295.471 332.952 296.096 332.952 296.408 332.639L298.282 331.702C298.594 331.39 298.594 331.077 298.282 331.077L296.096 329.828C295.783 329.516 295.159 329.516 294.846 329.828L292.972 330.765C292.66 330.765 292.66 331.077 292.972 331.39Z" fill="#E7EAF3"/>
<path d="M289.224 329.203L291.411 330.453C291.723 330.765 292.348 330.765 292.66 330.453L294.534 329.516C294.846 329.203 294.846 328.891 294.534 328.891L292.348 327.642C292.035 327.329 291.411 327.329 291.098 327.642L289.224 328.579C289.224 328.579 288.912 328.891 289.224 329.203Z" fill="#E7EAF3"/>
<path d="M285.789 327.017L287.975 328.267C288.287 328.579 288.912 328.579 289.224 328.267L291.098 327.33C291.411 327.017 291.411 326.705 291.098 326.705L288.912 325.456C288.6 325.143 287.975 325.143 287.663 325.456L285.789 326.393C285.476 326.705 285.164 327.017 285.789 327.017Z" fill="#E7EAF3"/>
<path d="M282.041 324.831L284.227 326.08C284.539 326.393 285.164 326.393 285.476 326.08L287.35 325.143C287.663 324.831 287.663 324.519 287.35 324.519L285.164 323.269C284.852 322.957 284.227 322.957 283.915 323.269L282.041 324.206C281.728 324.519 281.728 324.831 282.041 324.831Z" fill="#E7EAF3"/>
<path d="M278.292 322.644L280.479 323.894C280.791 324.206 281.416 324.206 281.728 323.894L283.602 322.957C283.915 322.644 283.915 322.332 283.602 322.332L281.416 321.083C281.103 320.77 280.479 320.77 280.166 321.083L278.292 322.02C277.98 322.332 277.98 322.644 278.292 322.644Z" fill="#E7EAF3"/>
<path d="M269.859 317.959L276.418 321.707C276.731 322.02 277.355 322.02 277.668 321.707L279.542 320.77C279.854 320.458 279.854 320.146 279.542 320.146L272.983 316.398C272.67 316.085 272.046 316.085 271.733 316.398L269.859 317.335C269.859 317.647 269.547 317.959 269.859 317.959Z" fill="#E7EAF3"/>
<path d="M311.713 342.009L318.272 345.757C318.584 346.07 319.209 346.07 319.521 345.757L321.395 344.82C321.707 344.508 321.707 344.196 321.395 344.196L314.836 340.448C314.524 340.135 313.899 340.135 313.587 340.448L311.713 341.385C311.4 341.697 311.4 342.009 311.713 342.009Z" fill="#E7EAF3"/>
<path d="M312.337 346.695L314.524 347.944C314.836 348.256 315.461 348.256 315.773 347.944L317.647 347.007C317.959 346.695 317.959 346.382 317.647 346.382L315.461 345.133C315.148 344.82 314.524 344.82 314.211 345.133L312.337 346.07C312.025 346.382 312.025 346.695 312.337 346.695Z" fill="#E7EAF3"/>
<path d="M308.589 344.82L310.776 346.07C311.088 346.382 311.713 346.382 312.025 346.07L313.899 345.133C314.211 344.82 314.211 344.508 313.899 344.508L311.713 343.259C311.4 342.946 310.776 342.946 310.463 343.259L308.589 344.196C308.277 344.196 308.277 344.508 308.589 344.82Z" fill="#E7EAF3"/>
<path d="M304.841 342.634L307.028 343.883C307.34 344.196 307.965 344.196 308.277 343.883L310.151 342.946C310.463 342.634 310.463 342.322 310.151 342.322L307.965 341.072C307.652 340.76 307.027 340.76 306.715 341.072L304.841 342.009C304.529 342.009 304.529 342.322 304.841 342.634Z" fill="#E7EAF3"/>
<path d="M301.093 340.448L303.279 341.697C303.592 342.009 304.216 342.009 304.529 341.697L306.403 340.76C306.715 340.448 306.715 340.135 306.403 340.135L304.216 338.886C303.904 338.574 303.279 338.574 302.967 338.886L301.093 339.823C300.781 339.823 300.781 340.135 301.093 340.448Z" fill="#E7EAF3"/>
<path d="M277.355 326.705L279.542 327.954C279.854 328.267 280.479 328.267 280.791 327.954L282.665 327.017C282.978 326.705 282.978 326.393 282.665 326.393L280.479 325.143C280.167 324.831 279.542 324.831 279.23 325.143L277.355 326.08C277.043 326.08 277.043 326.705 277.355 326.705Z" fill="#E7EAF3"/>
<path d="M273.607 324.519L275.794 325.768C276.106 326.08 276.731 326.08 277.043 325.768L278.917 324.831C279.23 324.519 279.23 324.206 278.917 324.206L276.731 322.957C276.418 322.645 275.794 322.645 275.481 322.957L273.607 323.894C273.607 324.206 273.295 324.519 273.607 324.519Z" fill="#E7EAF3"/>
<path d="M270.172 322.332L272.358 323.582C272.67 323.894 273.295 323.894 273.607 323.582L275.481 322.645C275.794 322.332 275.794 322.02 275.481 322.02L273.295 320.77C272.983 320.458 272.358 320.458 272.046 320.77L270.172 321.707C269.859 322.02 269.859 322.332 270.172 322.332Z" fill="#E7EAF3"/>
<path d="M266.424 320.458L268.61 321.708C268.922 322.02 269.547 322.02 269.859 321.708L271.733 320.771C272.046 320.458 272.046 320.146 271.733 320.146L269.547 318.896C269.235 318.584 268.61 318.584 268.298 318.896L266.424 319.834C266.111 319.834 266.111 320.146 266.424 320.458Z" fill="#E7EAF3"/>
<path d="M284.539 327.017L292.035 331.39L300.156 336.075L302.967 337.637C303.279 337.949 303.279 338.261 302.967 338.261L301.093 339.198C300.781 339.511 300.156 339.511 299.844 339.198L297.033 337.637L288.912 332.952L281.416 328.579C281.103 328.267 281.103 327.954 281.416 327.954L283.29 327.017C283.602 327.017 284.227 326.705 284.539 327.017Z" fill="#E7EAF3"/>
<path d="M265.487 338.574L282.978 348.568C283.602 348.881 284.539 348.881 285.164 348.568L294.846 342.946C295.471 342.634 295.471 342.009 294.846 341.697L277.355 331.702C276.731 331.39 275.794 331.39 275.169 331.702L265.487 337.324C264.862 337.637 264.862 338.261 265.487 338.574Z" fill="#E7EAF3"/>
<path d="M324.206 238.626C317.335 234.565 312.025 235.19 307.965 237.064C301.718 240.187 298.907 247.683 300.781 254.555C302.342 259.24 302.967 263.925 302.967 268.61C302.967 270.796 302.655 272.67 302.03 274.857C301.405 277.355 300.468 279.542 299.219 281.728C297.97 283.602 296.72 285.164 295.471 287.038C294.222 288.912 293.597 290.786 293.285 292.66C292.66 296.096 293.285 299.219 294.534 302.342C294.846 303.279 295.471 304.529 296.096 305.466C296.096 305.778 296.408 306.403 296.72 306.715L323.894 322.332C323.894 322.332 323.894 322.02 323.581 322.02C322.957 321.083 322.644 320.146 322.332 319.209C321.083 314.836 321.707 310.151 323.269 306.091C324.831 301.718 327.954 298.282 329.516 293.909C331.078 289.537 331.39 285.164 331.39 280.479C331.39 278.605 331.078 276.418 331.078 274.544C330.453 270.484 329.828 266.111 331.702 262.363C333.264 258.928 336.387 256.429 339.511 254.867C341.072 254.243 342.946 253.618 344.82 253.618C346.07 253.618 347.631 253.618 348.881 253.618C349.505 253.618 350.13 253.93 350.442 253.93C350.442 253.93 342.634 249.245 324.206 238.626Z" fill="white"/>
<g opacity="0.5">
<path opacity="0.5" d="M310.151 272.046C310.151 272.358 309.839 272.358 310.151 272.046L307.028 270.796C306.715 270.796 306.715 270.484 306.715 270.172V266.111C306.715 265.799 307.028 265.799 307.028 265.799L309.838 267.361C310.151 267.361 310.151 267.673 310.151 267.985V272.046Z" fill="#9FBEE2"/>
</g>
<path opacity="0.5" d="M324.831 277.668L312.025 270.172C311.713 270.172 311.713 269.547 311.713 269.235C311.713 268.922 312.025 268.61 312.025 268.922L324.831 276.418C325.143 276.418 325.143 277.043 324.831 277.668C325.143 277.668 325.455 277.668 324.831 277.668Z" fill="#9FBEE2"/>
<path opacity="0.5" d="M316.71 275.794L312.025 273.295C311.713 273.295 311.713 272.67 311.713 272.358C311.713 272.046 312.025 271.733 312.025 272.046L316.71 274.544C317.022 274.544 317.022 275.169 316.71 275.794C317.022 275.794 317.335 275.794 316.71 275.794Z" fill="#9FBEE2"/>
<path d="M308.277 270.484L307.027 267.985C307.027 267.673 307.027 267.361 307.027 267.361C307.027 267.361 307.34 267.361 307.652 267.673L308.277 268.922C308.277 269.235 308.589 269.235 308.901 269.235L311.712 267.048C311.712 267.048 312.025 267.048 312.337 267.361V267.673C312.337 267.985 312.337 268.298 312.337 268.298L308.901 270.796C308.589 271.109 308.277 270.796 308.277 270.484Z" fill="#3170E5"/>
<g opacity="0.5">
<path opacity="0.5" d="M310.151 281.416C310.151 281.728 309.839 281.728 310.151 281.416L307.028 280.166C306.715 280.166 306.715 279.854 306.715 279.542V275.481C306.715 275.169 307.028 275.169 307.028 275.169L309.838 276.731C310.151 276.731 310.151 277.043 310.151 277.355V281.416Z" fill="#9FBEE2"/>
</g>
<path opacity="0.5" d="M324.831 286.726L312.025 279.229C311.713 279.229 311.713 278.605 311.713 278.292C311.713 277.98 312.025 277.668 312.025 277.98L324.831 285.476C325.143 285.476 325.143 286.101 324.831 286.726C325.143 286.726 325.455 286.726 324.831 286.726Z" fill="#9FBEE2"/>
<path opacity="0.5" d="M316.71 284.852L312.025 282.353C311.713 282.353 311.713 281.728 311.713 281.416C311.713 281.103 312.025 280.791 312.025 281.103L316.71 283.602C317.022 283.602 317.022 284.227 316.71 284.852C317.022 285.164 317.335 284.852 316.71 284.852Z" fill="#9FBEE2"/>
<path d="M308.277 279.854L307.027 277.355C307.027 277.043 307.027 276.731 307.027 276.731C307.027 276.731 307.34 276.731 307.652 277.043L308.277 278.292C308.277 278.605 308.589 278.605 308.901 278.605L311.712 276.418C311.712 276.418 312.025 276.418 312.337 276.731V277.043C312.337 277.355 312.337 277.668 312.337 277.668L308.901 280.167C308.589 280.167 308.277 280.167 308.277 279.854Z" fill="#3170E5"/>
<g opacity="0.5">
<path opacity="0.5" d="M310.151 262.988C310.151 263.3 309.839 263.3 310.151 262.988L307.028 261.739C306.715 261.739 306.715 261.426 306.715 261.114V257.054C306.715 256.741 307.028 256.741 307.028 256.741L309.838 258.303C310.151 258.303 310.151 258.615 310.151 258.928V262.988Z" fill="#9FBEE2"/>
</g>
<path opacity="0.5" d="M324.831 268.298L312.025 260.802C311.713 260.802 311.713 260.177 311.713 259.865C311.713 259.552 312.025 259.24 312.025 259.552L324.831 267.048C325.143 267.048 325.143 267.673 324.831 268.298C325.143 268.61 325.455 268.298 324.831 268.298Z" fill="#9FBEE2"/>
<path opacity="0.5" d="M316.71 266.736L312.025 264.237C311.713 264.237 311.713 263.613 311.713 263.3C311.713 262.988 312.025 262.676 312.025 262.988L316.71 265.487C317.022 265.487 317.022 266.111 316.71 266.736C317.022 266.736 317.335 266.736 316.71 266.736Z" fill="#9FBEE2"/>
<path d="M308.277 261.426L307.027 258.928C307.027 258.615 307.027 258.303 307.027 258.303C307.027 258.303 307.34 258.303 307.652 258.615L308.277 259.865C308.277 260.177 308.589 260.177 308.901 260.177L311.712 257.991C311.712 257.991 312.025 257.991 312.337 258.303V258.615C312.337 258.928 312.337 259.24 312.337 259.24L308.901 261.739C308.589 261.739 308.277 261.739 308.277 261.426Z" fill="#3170E5"/>
<g opacity="0.5">
<path opacity="0.5" d="M367.621 269.859C367.933 269.859 367.933 269.547 367.621 269.859L364.81 267.985C364.498 267.985 364.185 267.985 363.873 267.985L360.437 269.859C360.125 269.859 360.125 270.172 360.437 270.172L363.248 271.733C363.561 271.733 363.873 271.733 364.185 271.733L367.621 269.859Z" fill="#9FBEE2"/>
</g>
<path opacity="0.5" d="M379.802 279.854L366.996 272.358C366.684 272.358 366.372 272.358 366.059 272.358C365.747 272.67 365.747 272.67 366.059 272.983L378.865 280.479C379.177 280.479 379.49 280.479 379.802 280.479C379.802 280.166 379.802 280.166 379.802 279.854Z" fill="#9FBEE2"/>
<path opacity="0.5" d="M374.18 273.607L369.495 271.109C369.183 271.109 368.87 271.109 368.558 271.109C368.246 271.421 368.246 271.421 368.558 271.733L373.243 274.232C373.555 274.232 373.868 274.232 374.18 274.232C374.18 274.232 374.18 273.92 374.18 273.607Z" fill="#9FBEE2"/>
<path d="M365.122 268.922H362.311C361.999 268.922 361.686 269.235 361.686 269.235V269.547C361.686 269.859 361.999 269.859 362.311 269.859H363.873C364.185 269.859 364.497 269.859 364.497 270.172L364.185 273.607C364.185 273.92 364.497 273.92 364.81 273.92H365.122C365.435 273.92 365.747 273.607 365.747 273.607L366.372 269.547C365.747 268.922 365.435 268.922 365.122 268.922Z" fill="#3170E5"/>
<path d="M251.744 303.592C251.744 303.592 249.557 309.839 239.25 308.902L217.699 282.665C217.699 282.665 216.137 268.61 200.208 272.983L196.772 278.293C196.772 278.293 195.835 279.23 195.211 278.917C195.211 278.917 188.652 277.98 178.032 264.862C178.032 264.862 174.597 263.3 170.224 265.799C170.224 265.799 148.048 267.673 148.673 289.224C149.61 311.088 148.673 331.39 148.673 331.39C148.673 331.39 150.234 342.009 143.675 347.631C137.116 353.254 143.675 357.314 143.675 357.314C143.675 357.314 155.544 362.311 173.66 353.878C173.66 353.878 203.956 337.324 205.206 335.763C206.455 334.201 212.389 324.206 215.2 312.962L244.248 336.387C244.248 336.387 258.615 348.256 257.991 330.453C256.741 312.337 251.744 303.592 251.744 303.592Z" fill="#62E0FA"/>
<path d="M241.124 278.605C240.5 277.98 239.875 277.98 239.25 277.668C238.626 277.356 238.313 276.731 238.001 276.419C236.752 275.169 235.502 273.295 234.878 271.734C231.754 265.487 226.132 267.048 226.132 267.048L221.76 267.673C221.76 267.673 218.949 270.484 221.447 272.983C221.447 272.983 220.823 281.728 227.382 280.791C227.382 280.791 231.13 284.852 232.691 285.789C232.691 285.789 233.628 286.413 233.941 287.663L239.25 310.463C251.432 312.65 252.369 305.154 252.369 305.154C252.369 304.841 252.056 304.217 251.744 303.904C251.432 302.967 250.807 301.718 250.495 300.781C249.87 299.219 249.245 297.658 248.621 296.096C247.996 294.534 247.059 292.66 246.434 291.098C245.81 289.537 245.185 287.663 244.248 286.101C243.623 284.852 242.998 283.29 242.686 282.041C242.374 281.416 242.061 280.791 242.061 280.479C241.749 279.23 241.437 278.917 241.124 278.605Z" fill="#FFC107"/>
<path d="M252.056 304.217C252.056 304.217 251.119 312.025 239.25 309.839C239.25 309.839 240.5 332.327 242.999 335.763C242.999 335.763 255.804 347.007 257.054 333.889C257.366 333.889 257.991 316.71 252.056 304.217Z" fill="#48C9FB"/>
<path opacity="0.3" d="M252.056 304.217C252.056 304.217 251.119 312.025 239.25 309.839C239.25 309.839 240.5 332.327 242.999 335.763C242.999 335.763 255.804 347.007 257.054 333.889C257.366 333.889 257.991 316.71 252.056 304.217Z" fill="url(#paint25_linear)"/>
<path d="M238.938 308.902L239.25 310.151C239.25 310.151 240.812 333.889 242.998 336.075L214.576 313.274C214.576 313.274 218.324 293.909 217.387 282.978L238.938 308.902Z" fill="#48C9FB"/>
<path opacity="0.3" d="M238.938 308.902L239.25 310.151C239.25 310.151 240.812 333.889 242.998 336.075L214.576 313.274C214.576 313.274 218.324 293.909 217.387 282.978L238.938 308.902Z" fill="url(#paint26_linear)"/>
<path d="M174.909 261.114C174.909 261.114 177.095 259.24 181.78 261.426L177.408 265.799L174.909 261.114Z" fill="#48C9FB"/>
<path d="M174.909 261.114C174.909 261.114 177.095 259.24 181.78 261.426L177.408 265.799L174.909 261.114Z" fill="url(#paint27_linear)"/>
<path d="M169.912 266.111L174.909 261.114C174.909 261.114 185.216 276.731 194.899 279.23V286.726C194.899 286.726 178.657 285.476 169.912 266.111Z" fill="#48C9FB"/>
<path d="M201.77 270.484C201.458 270.796 201.145 271.109 200.833 271.421C200.521 271.733 200.208 272.358 200.208 272.671C199.896 273.295 199.584 273.92 199.271 274.232C198.959 274.857 198.647 275.482 198.022 276.106C197.71 276.731 197.397 277.043 197.085 277.668C196.773 277.98 196.773 278.293 196.46 278.605L199.271 284.852C199.271 284.852 203.019 281.416 204.269 277.356C204.269 275.794 202.082 270.172 201.77 270.484Z" fill="#48C9FB"/>
<path d="M196.46 278.605L198.022 285.476C198.022 285.476 198.647 285.476 199.271 284.852L196.46 278.605Z" fill="url(#paint28_linear)"/>
<path d="M285.789 342.946C286.101 342.322 285.789 341.385 285.476 340.448C283.915 337.012 280.167 334.826 276.419 333.889C271.733 332.639 267.361 333.576 262.363 334.201C258.615 334.826 254.867 335.45 251.119 335.45C242.686 335.763 225.82 330.765 225.82 330.765C223.634 336.387 225.82 344.196 225.82 344.196C225.82 344.196 233.004 344.82 247.059 344.508C251.744 344.508 256.429 344.508 261.426 345.445C263.613 345.757 265.799 346.382 267.985 347.007C270.172 347.319 272.67 347.631 274.857 347.319C277.043 347.319 279.23 347.007 281.104 346.07C283.29 346.07 285.164 344.82 285.789 342.946Z" fill="#FFC107"/>
<path d="M226.757 330.453C226.757 330.453 227.069 330.765 227.069 331.39H226.445L226.757 330.453Z" fill="#3BC1EA"/>
<path d="M226.757 330.453L213.326 327.954C191.775 322.957 176.158 294.534 176.158 294.534C166.476 274.232 150.859 278.293 150.859 278.293C150.859 278.293 145.861 283.915 150.547 298.282V298.595V298.907C150.859 299.844 151.171 300.469 151.484 300.781C157.418 314.211 177.095 330.453 177.095 330.453C186.153 342.322 201.458 343.883 201.458 343.883L226.757 344.82C225.508 337.324 226.757 330.453 226.757 330.453Z" fill="#48C9FB"/>
<path opacity="0.3" d="M226.757 330.453L213.326 327.954C191.775 322.957 176.158 294.534 176.158 294.534C166.476 274.232 150.859 278.293 150.859 278.293C150.859 278.293 145.861 283.915 150.547 298.282V298.595V298.907C150.859 299.844 151.171 300.469 151.484 300.781C157.418 314.211 177.095 330.453 177.095 330.453C186.153 342.322 201.458 343.883 201.458 343.883L226.757 344.82C225.508 337.324 226.757 330.453 226.757 330.453Z" fill="url(#paint29_linear)"/>
<path opacity="0.15" d="M600.937 343.883C611.632 343.883 620.302 337.87 620.302 330.453C620.302 323.035 611.632 317.022 600.937 317.022C590.242 317.022 581.572 323.035 581.572 330.453C581.572 337.87 590.242 343.883 600.937 343.883Z" fill="#3170E5"/>
<path d="M638.73 177.72C638.73 177.72 667.465 173.035 679.958 212.389C682.457 220.51 684.956 228.943 686.517 237.689C686.83 240.5 687.454 242.998 687.454 245.809C687.454 247.371 687.142 248.933 686.83 250.182C686.205 251.744 684.956 252.993 683.082 252.681C679.334 252.369 677.46 247.683 675.898 244.872C674.649 242.686 673.399 240.5 672.15 238.313C668.714 232.379 665.278 226.445 662.155 220.51C658.407 213.639 654.659 206.767 650.911 199.896C647.788 193.961 644.352 188.027 641.229 182.093C640.916 181.468 639.042 177.72 638.73 177.72Z" fill="#48C9FB"/>
<path opacity="0.15" d="M655.284 180.219C655.284 180.219 659.969 182.405 662.78 184.591C662.78 184.591 666.215 198.646 662.155 220.198L658.095 213.014L655.284 180.219Z" fill="#3170E5"/>
<path d="M657.782 182.405C656.845 182.405 656.221 182.405 655.284 182.405C653.722 179.594 651.536 177.095 649.037 174.909C639.667 166.476 625.924 164.602 613.743 164.602C602.186 164.602 590.63 166.163 579.073 168.662C572.827 169.911 566.268 171.161 560.333 173.347C555.96 175.221 552.525 177.72 549.714 180.843H543.155C542.842 181.156 542.842 182.093 542.842 182.717C542.842 183.654 542.842 184.591 542.842 185.528C541.905 208.954 545.029 231.13 552.837 253.305C558.459 269.547 566.58 285.789 580.635 296.096C582.509 297.345 584.383 298.594 586.257 299.844C589.068 301.405 593.753 303.592 599.688 303.904C611.244 304.216 621.551 297.345 629.36 289.537C639.667 279.542 647.475 266.736 653.097 253.618C657.47 242.686 660.281 231.13 660.906 219.573C661.53 209.266 660.593 198.334 659.344 188.027C659.344 186.778 659.032 182.405 657.782 182.405Z" fill="#62E0FA"/>
<path d="M636.231 161.478C661.218 171.161 665.903 188.652 646.538 199.896C627.173 211.14 590.942 212.389 565.643 202.707C540.656 193.024 535.971 175.533 555.336 164.289C574.701 153.045 610.932 151.796 636.231 161.478Z" fill="url(#paint30_linear)"/>
<path d="M556.897 166.788C551.588 173.035 556.273 193.961 571.265 197.085C584.383 199.896 596.877 187.402 595.94 179.594C594.69 167.725 563.769 158.355 556.897 166.788Z" fill="url(#paint31_linear)"/>
<path opacity="0.15" d="M525.664 273.607C527.225 271.109 528.475 268.61 530.036 266.424C534.721 258.928 539.719 251.119 544.404 243.311C549.089 235.502 553.774 227.694 555.648 218.636C557.21 212.077 558.459 203.332 553.462 197.709C548.152 191.463 539.719 193.649 534.721 198.646C528.162 205.206 524.414 214.576 521.603 223.321C511.296 254.867 513.795 270.796 513.795 270.796C514.107 273.295 515.357 277.98 518.48 278.917C519.729 279.229 520.979 278.605 521.916 277.668C523.165 276.731 524.414 275.169 525.664 273.607Z" fill="#3170E5"/>
<path d="M523.165 271.421C524.727 268.922 525.976 266.424 527.538 264.237C532.223 256.741 537.22 248.933 541.905 241.124C546.59 233.316 551.275 225.507 553.149 216.45C554.711 209.891 555.96 201.145 550.963 195.523C545.653 189.276 537.22 191.463 532.223 196.46C525.664 203.019 521.916 212.389 519.105 221.135C508.797 252.681 511.296 268.61 511.296 268.61C511.608 271.109 512.858 275.794 515.981 276.731C517.231 277.043 518.48 276.418 519.417 275.481C520.666 274.544 521.916 272.983 523.165 271.421Z" fill="#62E0FA"/>
<path d="M560.645 172.41C554.399 168.037 549.714 162.103 547.527 154.295C544.716 143.987 545.653 133.056 548.777 123.061C550.026 119 551.588 115.252 553.462 111.504C556.897 104.945 561.895 98.6985 567.829 94.3258C581.26 84.0187 599.063 79.3336 615.929 81.52C621.864 82.1447 627.798 84.0187 633.42 86.5174C641.853 90.5778 649.662 97.1369 655.596 104.633C660.593 111.192 664.966 118.688 666.528 126.809C670.9 148.673 647.788 163.04 631.234 171.473C624.362 174.909 617.178 177.72 609.682 179.282C609.058 179.282 608.745 179.594 608.121 179.594C596.564 181.78 583.758 181.78 572.514 178.032C567.829 176.471 564.081 174.597 560.645 172.41Z" fill="white"/>
<path opacity="0.2" d="M560.645 172.41C554.399 168.037 549.714 162.103 547.527 154.295C544.716 143.987 545.653 133.056 548.777 123.061C550.026 119 551.588 115.252 553.462 111.504C556.897 104.945 561.895 98.6985 567.829 94.3258C581.26 84.0187 599.063 79.3336 615.929 81.52C621.864 82.1447 627.798 84.0187 633.42 86.5174C641.853 90.5778 649.662 97.1369 655.596 104.633C660.593 111.192 664.966 118.688 666.528 126.809C670.9 148.673 647.788 163.04 631.234 171.473C624.362 174.909 617.178 177.72 609.682 179.282C609.058 179.282 608.745 179.594 608.121 179.594C596.564 181.78 583.758 181.78 572.514 178.032C567.829 176.471 564.081 174.597 560.645 172.41Z" fill="#62E0FA"/>
<path d="M626.861 152.733C621.864 154.919 616.554 156.793 611.244 158.355C600.312 161.166 586.257 162.728 577.199 154.919C576.262 153.982 575.325 153.045 574.701 152.108C571.265 147.735 570.953 141.489 571.89 136.179C572.514 132.431 573.764 128.683 575.325 125.247C580.323 114.003 589.38 104.633 600.625 99.3231C611.244 94.3257 623.738 93.701 634.982 96.8244C644.352 99.3231 653.722 105.882 655.284 116.189C656.845 126.496 649.974 136.491 642.478 143.05C637.793 147.111 632.171 150.234 626.861 152.733Z" fill="#2B2F33"/>
<g opacity="0.8">
<path opacity="0.8" d="M587.506 137.429C586.882 136.492 586.882 135.555 587.194 134.618C587.506 133.68 588.131 132.743 588.756 132.119C592.191 128.371 597.189 125.247 602.499 124.623C605.31 124.31 608.433 125.247 610.932 126.809C611.869 127.434 612.806 128.058 613.118 128.995C614.055 130.557 612.493 131.806 611.244 132.743C609.37 133.68 607.496 134.618 605.31 135.242C603.123 136.179 600.937 136.804 598.751 137.429C596.252 138.366 593.753 139.303 591.254 139.303C589.693 138.99 588.131 138.678 587.506 137.429Z" fill="#62E0FA"/>
<path opacity="0.8" d="M623.113 123.686C622.488 123.061 622.176 122.124 622.176 121.187C622.176 120.25 622.488 119.313 623.113 118.688C625.299 114.628 629.047 110.88 633.732 109.63C636.231 109.006 639.354 109.006 641.853 109.943C642.79 110.255 643.727 110.567 644.352 111.504C645.601 112.754 644.352 114.003 643.415 114.94C641.853 116.189 640.291 117.126 638.73 118.063C636.856 119 635.294 120.25 633.42 121.187C631.546 122.436 629.36 123.686 627.173 124.31C625.924 124.623 624.362 124.623 623.113 123.686Z" fill="#62E0FA"/>
</g>
<path opacity="0.15" d="M623.738 94.9506C623.738 94.9506 646.85 107.132 652.16 130.869L652.473 130.557C652.785 129.932 653.097 129.62 653.097 128.995C653.41 128.371 653.722 127.434 654.034 126.497C654.347 125.56 654.659 124.623 654.971 123.373C655.284 122.124 655.284 120.875 655.596 119.938C655.596 118.688 655.596 117.439 655.284 115.877C654.971 114.316 654.659 113.066 654.034 111.817C653.41 110.255 652.785 109.006 651.536 107.756C651.223 107.444 650.911 106.819 650.599 106.507C650.286 106.195 650.286 105.882 649.974 105.57C649.662 105.258 649.349 104.945 649.037 104.633C648.725 104.321 648.1 103.696 647.787 103.384C647.163 102.759 646.538 102.447 646.226 102.134C645.601 101.51 644.976 101.197 644.039 100.885C643.102 100.26 642.478 99.948 641.541 99.6357C640.604 99.011 639.667 98.6987 638.73 98.3863C637.793 98.074 636.543 97.4493 635.294 97.137C634.045 96.8246 632.795 96.5123 631.546 96.2C629.984 95.8876 628.735 95.5753 627.173 95.5753C626.236 95.263 624.987 95.263 623.738 94.9506Z" fill="white"/>
<g opacity="0.5">
<path opacity="0.5" d="M633.42 284.852C633.42 284.852 603.436 304.529 569.391 284.852C569.391 284.852 571.265 287.35 571.577 287.663C571.577 287.663 599.063 305.778 630.609 287.663L633.42 284.852Z" fill="white"/>
<path opacity="0.5" d="M562.207 274.232C562.207 274.232 599.063 302.655 641.853 274.232L639.354 277.98C639.354 277.98 603.748 304.841 564.394 277.98L562.207 274.232Z" fill="white"/>
</g>
<g opacity="0.5">
<path opacity="0.5" d="M945.133 296.408C945.133 292.035 942.009 287.038 938.261 284.852L809.578 211.14C805.83 208.954 802.707 210.828 802.707 215.2V281.104C802.707 285.476 805.83 290.474 809.578 292.66L938.261 365.747C942.009 367.933 945.133 366.059 945.133 361.687V296.408Z" fill="#48C9FB"/>
</g>
<path opacity="0.33" d="M833.941 244.872V291.411" stroke="#48C9FB" stroke-width="0.6228" stroke-miterlimit="10" stroke-linecap="round"/>
<path opacity="0.33" d="M862.676 261.426V307.965" stroke="#48C9FB" stroke-width="0.6228" stroke-miterlimit="10" stroke-linecap="round"/>
<path opacity="0.33" d="M891.723 278.605V325.143" stroke="#48C9FB" stroke-width="0.6228" stroke-miterlimit="10" stroke-linecap="round"/>
<path opacity="0.33" d="M923.269 296.72V343.259" stroke="#48C9FB" stroke-width="0.6228" stroke-miterlimit="10" stroke-linecap="round"/>
<path d="M932.952 337.637C909.214 294.222 892.035 284.539 880.167 285.789C872.046 286.413 867.985 292.035 859.552 291.411C844.248 289.849 833.004 269.547 825.82 249.87" stroke="url(#paint32_linear)" stroke-width="0.6228" stroke-miterlimit="10" stroke-linecap="round"/>
<g opacity="0.4">
<path opacity="0.4" d="M252.993 383.238C254.555 384.175 254.555 385.424 252.993 386.361L228.943 400.104C227.382 401.041 225.195 401.041 223.633 400.104L185.216 377.928C183.654 376.991 183.654 375.742 185.216 374.805L209.266 361.062C210.828 360.125 213.014 360.125 214.576 361.062L252.993 383.238Z" fill="white"/>
</g>
<g opacity="0.4">
<path opacity="0.4" d="M252.993 383.238C254.555 384.175 254.555 385.424 252.993 386.361L228.943 400.104C227.382 401.041 225.195 401.041 223.633 400.104L185.216 377.928C183.654 376.991 183.654 375.742 185.216 374.805L209.266 361.062C210.828 360.125 213.014 360.125 214.576 361.062L252.993 383.238Z" fill="#3170E5"/>
</g>
<path d="M252.993 382.613C254.555 383.55 254.555 384.8 252.993 385.737L228.943 399.479C227.382 400.416 225.195 400.416 223.634 399.479L184.904 377.303C183.342 376.366 183.342 375.117 184.904 374.18L208.954 360.437C210.515 359.5 212.702 359.5 214.263 360.437L252.993 382.613Z" fill="#F8FAFD"/>
<path opacity="0.5" d="M224.883 389.485L239.563 381.052C239.875 381.052 240.187 381.052 240.187 381.052L240.5 381.364C240.812 381.364 240.812 381.676 240.5 381.676L225.82 390.109C225.508 390.109 225.195 390.109 225.195 390.109L224.883 389.485C224.571 389.485 224.883 389.797 224.883 389.485Z" fill="#9FBEE2"/>
<path opacity="0.5" d="M231.13 382.301L236.752 379.177C237.064 379.177 237.376 379.177 237.376 379.177L237.689 379.49C238.001 379.49 238.001 379.802 237.689 379.802L232.067 382.925C231.754 382.925 231.442 382.925 231.442 382.925L231.13 382.301Z" fill="#9FBEE2"/>
<path opacity="0.5" d="M215.513 383.862L230.193 375.429C230.505 375.429 230.817 375.429 230.817 375.429L231.13 375.742C231.442 375.742 231.442 376.054 231.13 376.054L216.45 384.487C216.137 384.487 215.825 384.487 215.825 384.487L215.513 383.862C215.513 384.175 215.513 384.175 215.513 383.862Z" fill="#9FBEE2"/>
<path opacity="0.5" d="M222.072 376.991L227.694 373.868C228.006 373.868 228.319 373.868 228.319 373.868L228.631 374.18C228.943 374.18 228.943 374.492 228.631 374.492L223.009 377.616C222.697 377.616 222.384 377.616 222.384 377.616L222.072 376.991C221.76 376.991 221.76 377.303 222.072 376.991Z" fill="#9FBEE2"/>
<path opacity="0.5" d="M206.455 378.553L221.135 370.12C221.447 370.12 221.76 370.12 221.76 370.12L222.072 370.432C222.384 370.432 222.384 370.744 222.072 370.744L207.392 379.178C207.08 379.178 206.767 379.178 206.767 379.178L206.455 378.553C206.143 378.865 206.143 378.865 206.455 378.553Z" fill="#9FBEE2"/>
<path opacity="0.5" d="M212.702 371.681L218.324 368.558C218.636 368.558 218.949 368.558 218.949 368.558L219.261 368.87C219.573 368.87 219.573 369.183 219.261 369.183L213.639 372.306C213.326 372.306 213.014 372.306 213.014 372.306L212.702 371.681C212.389 371.681 212.389 371.994 212.702 371.681Z" fill="#9FBEE2"/>
<path d="M198.959 376.054C198.647 376.366 198.022 375.742 197.397 376.054C197.085 376.054 196.773 376.991 196.46 376.991C196.148 376.991 195.523 376.366 195.211 376.366C194.899 376.366 194.274 376.991 193.962 376.991C193.649 376.991 193.337 376.054 193.024 376.054C192.712 376.054 192.087 376.366 191.463 376.366C191.15 376.054 191.463 375.429 191.15 375.117C190.838 374.805 190.213 375.117 190.213 374.805C190.213 374.492 190.838 374.18 190.838 373.868C190.838 373.555 190.213 372.931 190.526 372.931C190.838 372.618 191.463 372.931 191.775 372.931C192.087 372.618 191.775 371.994 192.087 371.681C192.4 371.369 193.025 371.994 193.649 371.681C193.962 371.681 194.274 370.744 194.586 370.744C194.899 370.744 195.523 371.369 195.836 371.369C196.148 371.369 196.773 370.744 197.085 370.744C197.397 370.744 197.71 371.681 198.022 371.681C198.334 371.681 198.959 371.369 199.584 371.369C199.896 371.681 199.584 372.306 199.896 372.618C200.208 372.931 200.833 372.618 200.833 372.931C200.833 373.243 200.208 373.555 200.208 373.868C200.208 374.18 200.833 374.805 200.521 374.805C200.208 375.117 199.584 374.805 199.271 374.805C199.271 375.117 199.271 375.742 198.959 376.054Z" fill="#DE4437"/>
<path opacity="0.3" d="M195.72 375.122C197.261 374.934 198.426 374.088 198.322 373.232C198.217 372.375 196.883 371.834 195.342 372.021C193.801 372.209 192.636 373.056 192.741 373.912C192.845 374.768 194.179 375.31 195.72 375.122Z" fill="#1E2022"/>
<path opacity="0.4" d="M242.998 367.933L218.636 353.878L217.387 354.503L217.074 355.44V356.065L241.437 370.432H243.935L244.56 369.495L242.998 367.933Z" fill="#B2CBED"/>
<path d="M242.061 367.933L242.998 367.309L218.636 353.253L217.387 353.878L242.061 367.933Z" fill="#19A0FF"/>
<path d="M217.387 353.878L217.074 354.815L241.437 369.183L242.061 367.933L217.387 353.878Z" fill="#3170E5"/>
<path d="M217.074 354.815V355.44L241.437 369.807V369.183L217.074 354.815Z" fill="#2D1582"/>
<path d="M242.998 367.309L244.56 369.183L243.935 369.807H241.437V369.183L242.061 367.933L242.998 367.309Z" fill="white"/>
<path d="M244.548 369.625C244.702 369.316 244.702 369.003 244.547 368.926C244.393 368.849 244.143 369.037 243.989 369.346C243.835 369.654 243.835 369.967 243.989 370.044C244.143 370.121 244.393 369.933 244.548 369.625Z" fill="#2D1582"/>
<path d="M244.872 369.807L244.56 369.183L244.248 369.807H244.872Z" fill="#2D1582"/>
<path opacity="0.15" d="M161.166 413.847L149.297 418.844C147.736 419.469 146.174 418.22 146.174 416.658L147.423 406.976C147.736 405.414 148.985 404.789 150.547 405.101L161.478 409.787C163.04 410.411 163.04 412.91 161.166 413.847Z" fill="url(#paint33_linear)"/>
<path d="M163.977 392.608H153.045C153.045 392.608 153.045 402.29 158.043 410.099C160.854 414.159 166.788 414.159 169.599 410.099C174.597 402.29 174.597 392.608 174.597 392.608H163.977Z" fill="#62E0FA"/>
<path d="M163.977 399.167C169.842 399.167 174.596 396.23 174.596 392.608C174.596 388.985 169.842 386.049 163.977 386.049C158.112 386.049 153.358 388.985 153.358 392.608C153.358 396.23 158.112 399.167 163.977 399.167Z" fill="#BBF5F9"/>
<path d="M154.919 396.044C154.919 396.044 163.04 389.797 172.722 396.044C172.722 396.044 164.602 402.915 154.919 396.044Z" fill="#3170E5"/>
<path d="M170.848 407.6L169.911 406.975V406.663L172.098 397.918C172.098 397.605 172.41 397.293 173.035 396.981C174.284 396.044 175.846 395.731 177.408 396.356C178.969 396.981 180.219 398.23 180.531 399.792C180.843 402.603 178.032 404.477 175.846 405.414H175.533C174.284 406.038 173.035 406.663 171.473 406.975C171.473 406.975 171.473 406.975 171.161 406.975C170.848 407.6 170.848 407.6 170.848 407.6ZM173.347 398.542L171.473 406.038C172.41 405.726 173.659 405.101 174.596 404.477H174.909C176.783 403.54 178.969 401.978 178.969 400.104C178.969 399.167 178.032 398.23 177.095 397.918C176.158 397.605 174.909 397.918 173.972 398.542C173.972 398.23 173.659 398.23 173.347 398.542C173.659 398.542 173.659 398.542 173.347 398.542ZM174.909 405.414C174.596 405.414 174.596 405.726 174.284 405.726C174.284 405.726 174.596 405.414 174.909 405.414ZM179.594 399.479C179.594 399.792 179.594 399.792 179.594 400.104C179.906 402.603 177.095 404.164 175.221 405.101H174.909H175.221C177.095 404.164 179.906 402.603 179.594 400.104C179.594 399.792 179.594 399.792 179.594 399.479ZM173.347 397.918C173.347 397.918 173.035 397.918 173.347 397.918C173.035 397.918 173.347 397.918 173.347 397.918ZM176.158 396.981C175.221 396.981 174.284 397.293 173.659 397.918C174.596 397.293 175.846 396.981 176.783 396.981C176.47 396.981 176.158 396.981 176.158 396.981Z" fill="#62E0FA"/>
<path d="M1042.89 370.432V361.999H1029.46V370.432L1017.28 393.857L1036.34 393.545L1055.08 393.857L1042.89 370.432Z" fill="#62E0FA"/>
<path opacity="0.35" d="M1042.27 374.18C1042.27 375.43 1041.33 376.367 1040.08 376.367C1038.83 376.367 1037.9 375.43 1037.9 374.18C1037.9 372.931 1038.83 371.994 1040.08 371.994C1041.33 371.994 1042.27 372.931 1042.27 374.18Z" fill="white"/>
<path opacity="0.35" d="M1035.09 367.933C1035.09 368.558 1034.46 369.183 1033.84 369.183C1033.21 369.183 1032.59 368.558 1032.59 367.933C1032.59 367.309 1033.21 366.684 1033.84 366.684C1034.46 366.684 1035.09 367.309 1035.09 367.933Z" fill="white"/>
<path opacity="0.15" d="M1042.89 370.432V361.999H1029.46V370.432L1017.28 393.857L1036.34 393.545L1055.08 393.857L1042.89 370.432Z" fill="url(#paint34_linear)"/>
<path d="M1022.28 406.351C1014.47 401.666 1014.47 394.17 1022.28 389.797C1030.09 385.424 1042.58 385.424 1050.39 389.797C1058.2 394.17 1058.2 401.666 1050.39 406.351C1042.58 411.036 1029.78 411.036 1022.28 406.351Z" fill="#48C9FB"/>
<g opacity="0.15">
<path opacity="0.15" d="M1022.28 408.85C1014.47 404.165 1014.47 396.668 1022.28 392.296C1030.09 387.923 1042.58 387.923 1050.39 392.296C1058.2 396.668 1058.2 404.165 1050.39 408.85C1042.58 413.535 1029.78 413.535 1022.28 408.85Z" fill="#2D1582"/>
</g>
<path d="M1016.35 398.23V396.981L1056.01 397.293V398.23H1016.35Z" fill="#48C9FB"/>
<path d="M1022.28 405.414C1014.47 401.041 1014.47 393.545 1022.28 389.172C1030.09 384.8 1042.58 384.8 1050.39 389.172C1058.2 393.545 1058.2 401.041 1050.39 405.414C1042.58 409.787 1029.78 409.787 1022.28 405.414Z" fill="#62E0FA"/>
<path d="M1022.59 404.789C1015.1 400.417 1015.1 393.545 1022.59 389.172C1030.09 384.8 1042.27 384.8 1049.77 389.172C1057.26 393.545 1057.26 400.417 1049.77 404.789C1042.27 409.162 1030.09 409.162 1022.59 404.789Z" fill="#2D1582"/>
<path d="M1023.84 382.301L1017.91 393.545L1054.45 393.857L1048.52 382.301H1023.84Z" fill="#2D1582"/>
<path d="M1027.28 389.172C1022.28 386.361 1022.28 381.676 1027.28 378.865C1032.27 376.054 1040.4 376.054 1045.39 378.865C1050.39 381.676 1050.39 386.361 1045.39 389.172C1040.4 391.983 1032.27 391.983 1027.28 389.172Z" fill="#512DCF"/>
<path d="M1030.4 362.936C1027.28 361.062 1027.28 358.251 1030.4 356.377C1033.52 354.503 1038.52 354.503 1041.96 356.377C1045.08 358.251 1045.08 361.062 1041.96 362.936C1038.83 364.81 1033.52 364.81 1030.4 362.936Z" fill="#48C9FB"/>
<path d="M1028.21 357.314V359.813H1044.14V357.314H1028.21Z" fill="#48C9FB"/>
<path d="M1030.4 360.75C1027.28 358.876 1027.28 356.065 1030.4 354.191C1033.52 352.317 1038.52 352.317 1041.96 354.191C1045.08 356.065 1045.08 358.876 1041.96 360.75C1038.83 362.311 1033.52 362.311 1030.4 360.75Z" fill="#62E0FA"/>
<path d="M1032.27 359.5C1030.09 358.251 1030.09 356.377 1032.27 355.128C1034.46 353.878 1037.9 353.878 1040.08 355.128C1042.27 356.377 1042.27 358.251 1040.08 359.5C1037.9 360.75 1034.46 360.75 1032.27 359.5Z" fill="#48C9FB"/>
<path d="M1032.59 359.188C1030.71 357.939 1030.71 356.377 1032.59 355.128C1034.46 353.878 1037.58 353.878 1039.46 355.128C1041.33 356.377 1041.33 357.939 1039.46 359.188C1037.9 360.437 1034.46 360.437 1032.59 359.188Z" fill="#62E0FA"/>
<g opacity="0.15">
<path opacity="0.15" d="M1032.59 359.188C1030.71 357.939 1030.71 356.377 1032.59 355.128C1034.46 353.878 1037.58 353.878 1039.46 355.128C1041.33 356.377 1041.33 357.939 1039.46 359.188C1037.9 360.437 1034.46 360.437 1032.59 359.188Z" fill="url(#paint35_linear)"/>
</g>
<path d="M1050.7 396.044C1051.39 396.044 1051.95 395.484 1051.95 394.794C1051.95 394.104 1051.39 393.545 1050.7 393.545C1050.01 393.545 1049.45 394.104 1049.45 394.794C1049.45 395.484 1050.01 396.044 1050.7 396.044Z" fill="#4431A3"/>
<path d="M1028.21 398.855C1028.9 398.855 1029.46 398.295 1029.46 397.605C1029.46 396.915 1028.9 396.356 1028.21 396.356C1027.52 396.356 1026.97 396.915 1026.97 397.605C1026.97 398.295 1027.52 398.855 1028.21 398.855Z" fill="#4431A3"/>
<path d="M1030.71 399.48C1031.23 399.48 1031.65 399.06 1031.65 398.543C1031.65 398.025 1031.23 397.606 1030.71 397.606C1030.2 397.606 1029.78 398.025 1029.78 398.543C1029.78 399.06 1030.2 399.48 1030.71 399.48Z" fill="#4431A3"/>
<path d="M1051.64 396.981C1051.81 396.981 1051.95 396.841 1051.95 396.668C1051.95 396.496 1051.81 396.356 1051.64 396.356C1051.47 396.356 1051.33 396.496 1051.33 396.668C1051.33 396.841 1051.47 396.981 1051.64 396.981Z" fill="#4431A3"/>
<path d="M1048.52 396.669C1048.86 396.669 1049.14 396.389 1049.14 396.044C1049.14 395.699 1048.86 395.419 1048.52 395.419C1048.17 395.419 1047.89 395.699 1047.89 396.044C1047.89 396.389 1048.17 396.669 1048.52 396.669Z" fill="#4431A3"/>
<path opacity="0.1" d="M1054.14 344.82C1061.04 344.82 1066.63 339.227 1066.63 332.327C1066.63 325.427 1061.04 319.833 1054.14 319.833C1047.24 319.833 1041.64 325.427 1041.64 332.327C1041.64 339.227 1047.24 344.82 1054.14 344.82Z" fill="white"/>
<path opacity="0.1" d="M1057.89 348.881C1057.57 350.755 1056.32 352.004 1054.76 352.004C1052.89 352.004 1051.64 350.443 1051.64 348.881C1051.64 347.007 1053.2 345.757 1054.76 345.757C1056.64 345.757 1058.2 347.319 1057.89 348.881Z" fill="white"/>
<path opacity="0.1" d="M1040.08 337.324C1040.08 338.261 1039.46 338.886 1038.52 338.886C1037.58 338.886 1036.96 338.261 1036.96 337.324C1036.96 336.387 1037.58 335.763 1038.52 335.763C1039.46 335.763 1040.4 336.387 1040.08 337.324Z" fill="white"/>
<path opacity="0.1" d="M1078.5 350.443C1078.19 354.815 1075.07 358.563 1070.38 358.563C1065.69 358.563 1062.26 355.128 1062.26 350.443C1062.26 346.07 1065.69 342.322 1070.38 342.322C1075.07 342.322 1079.13 346.07 1078.5 350.443Z" fill="white"/>
<path opacity="0.1" d="M1077.88 336.075C1077.88 338.574 1075.69 340.76 1073.19 340.76C1070.69 340.76 1068.51 338.574 1068.51 336.075C1068.51 333.576 1070.69 331.39 1073.19 331.39C1075.69 331.39 1077.88 333.576 1077.88 336.075Z" fill="white"/>
<path opacity="0.1" d="M1041.33 347.319C1041.33 349.818 1039.46 351.692 1036.96 351.692C1034.46 351.692 1032.59 349.818 1032.59 347.319C1032.59 344.821 1034.46 342.947 1036.96 342.947C1039.46 342.947 1041.33 344.821 1041.33 347.319Z" fill="white"/>
</g>
<defs>
<linearGradient id="paint0_linear" x1="953.59" y1="308.962" x2="971.412" y2="308.962" gradientUnits="userSpaceOnUse">
<stop offset="0.2991" stop-color="#2D208E"/>
<stop offset="0.5343" stop-color="#2D1B88"/>
<stop offset="1" stop-color="#2D1582"/>
</linearGradient>
<linearGradient id="paint1_linear" x1="933.256" y1="220.161" x2="931.27" y2="218.896" gradientUnits="userSpaceOnUse">
<stop stop-color="#2D208E" stop-opacity="0"/>
<stop offset="0.1358" stop-color="#2A1E83" stop-opacity="0.0678901"/>
<stop offset="0.3741" stop-color="#201766" stop-opacity="0.1871"/>
<stop offset="0.6867" stop-color="#110C36" stop-opacity="0.3434"/>
<stop offset="1" stop-opacity="0.5"/>
</linearGradient>
<linearGradient id="paint2_linear" x1="907.053" y1="246.139" x2="872.453" y2="244.637" gradientUnits="userSpaceOnUse">
<stop stop-color="white"/>
<stop offset="0.5164" stop-color="#C8DCED"/>
<stop offset="0.8054" stop-color="#AECBE5"/>
</linearGradient>
<linearGradient id="paint3_linear" x1="907.349" y1="246.195" x2="872.731" y2="244.693" gradientUnits="userSpaceOnUse">
<stop stop-color="white"/>
<stop offset="0.5164" stop-color="#C8DCED"/>
<stop offset="0.8054" stop-color="#AECBE5"/>
</linearGradient>
<linearGradient id="paint4_linear" x1="907.621" y1="245.372" x2="873.022" y2="243.871" gradientUnits="userSpaceOnUse">
<stop offset="0.1946" stop-color="#AECBE5"/>
<stop offset="0.4836" stop-color="#C8DCED"/>
<stop offset="1" stop-color="white"/>
</linearGradient>
<linearGradient id="paint5_linear" x1="943.659" y1="224.986" x2="938.498" y2="221.7" gradientUnits="userSpaceOnUse">
<stop stop-color="#2D208E" stop-opacity="0"/>
<stop offset="0.1358" stop-color="#2A1E83" stop-opacity="0.0678901"/>
<stop offset="0.3741" stop-color="#201766" stop-opacity="0.1871"/>
<stop offset="0.6867" stop-color="#110C36" stop-opacity="0.3434"/>
<stop offset="1" stop-opacity="0.5"/>
</linearGradient>
<linearGradient id="paint6_linear" x1="981.394" y1="238.86" x2="913.07" y2="274.451" gradientUnits="userSpaceOnUse">
<stop offset="0.2991" stop-color="#2D208E"/>
<stop offset="0.5343" stop-color="#2D1B88"/>
<stop offset="1" stop-color="#2D1582"/>
</linearGradient>
<linearGradient id="paint7_linear" x1="134.305" y1="433.563" x2="244.872" y2="433.563" gradientUnits="userSpaceOnUse">
<stop offset="6.46037e-07" stop-color="#19A0FF" stop-opacity="0"/>
<stop offset="0.0386763" stop-color="#1A9AFA" stop-opacity="0.1383"/>
<stop offset="0.0894264" stop-color="#1C8AEB" stop-opacity="0.3199"/>
<stop offset="0.1469" stop-color="#206FD3" stop-opacity="0.5255"/>
<stop offset="0.2093" stop-color="#2649B0" stop-opacity="0.7488"/>
<stop offset="0.2751" stop-color="#2C1985" stop-opacity="0.984"/>
<stop offset="0.2796" stop-color="#2D1582"/>
</linearGradient>
<linearGradient id="paint8_linear" x1="95.341" y1="384.487" x2="244.949" y2="384.487" gradientUnits="userSpaceOnUse">
<stop offset="3.2992e-07" stop-color="#377DFF"/>
<stop offset="0.3149" stop-color="#345FDB"/>
<stop offset="1" stop-color="#2D1582"/>
</linearGradient>
<linearGradient id="paint9_linear" x1="598.126" y1="206.611" x2="598.126" y2="723.217" gradientUnits="userSpaceOnUse">
<stop stop-color="#B2CBED" stop-opacity="0.4"/>
<stop offset="0.0476705" stop-color="#B0CAEC" stop-opacity="0.4436"/>
<stop offset="0.6559" stop-color="#9FBEE2"/>
</linearGradient>
<linearGradient id="paint10_linear" x1="150.468" y1="489.901" x2="1045.78" y2="489.901" gradientUnits="userSpaceOnUse">
<stop offset="6.46037e-07" stop-color="#512DCF"/>
<stop offset="0.2048" stop-color="#4D2AC6"/>
<stop offset="0.5387" stop-color="#4123AE"/>
<stop offset="0.9581" stop-color="#2F1686"/>
<stop offset="1" stop-color="#2D1582"/>
</linearGradient>
<linearGradient id="paint11_linear" x1="599.375" y1="323.581" x2="599.375" y2="0" gradientUnits="userSpaceOnUse">
<stop offset="0.19" stop-color="#48C9FB" stop-opacity="0.6"/>
<stop offset="0.3392" stop-color="#43D2F5" stop-opacity="0.4895"/>
<stop offset="0.6193" stop-color="#3FDBEF" stop-opacity="0.282"/>
<stop offset="1" stop-color="#3DDEED" stop-opacity="0"/>
</linearGradient>
<linearGradient id="paint12_linear" x1="-nan" y1="-nan" x2="-nan" y2="-nan" gradientUnits="userSpaceOnUse">
<stop offset="0.19" stop-color="#48C9FB" stop-opacity="0.6"/>
<stop offset="0.3392" stop-color="#43D2F5" stop-opacity="0.4895"/>
<stop offset="0.6193" stop-color="#3FDBEF" stop-opacity="0.282"/>
<stop offset="1" stop-color="#3DDEED" stop-opacity="0"/>
</linearGradient>
<linearGradient id="paint13_linear" x1="-nan" y1="-nan" x2="-nan" y2="-nan" gradientUnits="userSpaceOnUse">
<stop offset="0.19" stop-color="#48C9FB" stop-opacity="0.6"/>
<stop offset="0.3392" stop-color="#43D2F5" stop-opacity="0.4895"/>
<stop offset="0.6193" stop-color="#3FDBEF" stop-opacity="0.282"/>
<stop offset="1" stop-color="#3DDEED" stop-opacity="0"/>
</linearGradient>
<linearGradient id="paint14_linear" x1="-nan" y1="-nan" x2="-nan" y2="-nan" gradientUnits="userSpaceOnUse">
<stop offset="0.19" stop-color="#48C9FB" stop-opacity="0.6"/>
<stop offset="0.3392" stop-color="#43D2F5" stop-opacity="0.4895"/>
<stop offset="0.6193" stop-color="#3FDBEF" stop-opacity="0.282"/>
<stop offset="1" stop-color="#3DDEED" stop-opacity="0"/>
</linearGradient>
<linearGradient id="paint15_linear" x1="-nan" y1="-nan" x2="-nan" y2="-nan" gradientUnits="userSpaceOnUse">
<stop offset="0.19" stop-color="#48C9FB" stop-opacity="0.6"/>
<stop offset="0.3392" stop-color="#43D2F5" stop-opacity="0.4895"/>
<stop offset="0.6193" stop-color="#3FDBEF" stop-opacity="0.282"/>
<stop offset="1" stop-color="#3DDEED" stop-opacity="0"/>
</linearGradient>
<linearGradient id="paint16_linear" x1="-nan" y1="-nan" x2="-nan" y2="-nan" gradientUnits="userSpaceOnUse">
<stop offset="0.19" stop-color="#48C9FB" stop-opacity="0.6"/>
<stop offset="0.3392" stop-color="#43D2F5" stop-opacity="0.4895"/>
<stop offset="0.6193" stop-color="#3FDBEF" stop-opacity="0.282"/>
<stop offset="1" stop-color="#3DDEED" stop-opacity="0"/>
</linearGradient>
<linearGradient id="paint17_linear" x1="598.438" y1="385.928" x2="598.438" y2="124.119" gradientUnits="userSpaceOnUse">
<stop offset="0.19" stop-color="#62E0FA" stop-opacity="0.6"/>
<stop offset="0.4011" stop-color="#54DFF5" stop-opacity="0.4436"/>
<stop offset="0.7438" stop-color="#43DEEF" stop-opacity="0.1898"/>
<stop offset="1" stop-color="#3DDEED" stop-opacity="0"/>
</linearGradient>
<linearGradient id="paint18_linear" x1="598.282" y1="315.965" x2="598.282" y2="53.8427" gradientUnits="userSpaceOnUse">
<stop offset="0.19" stop-color="#62E0FA" stop-opacity="0.6"/>
<stop offset="0.4011" stop-color="#54DFF5" stop-opacity="0.4436"/>
<stop offset="0.7438" stop-color="#43DEEF" stop-opacity="0.1898"/>
<stop offset="1" stop-color="#3DDEED" stop-opacity="0"/>
</linearGradient>
<linearGradient id="paint19_linear" x1="175.769" y1="249.102" x2="232.863" y2="249.102" gradientUnits="userSpaceOnUse">
<stop stop-color="#EFA02E" stop-opacity="0"/>
<stop offset="0.0852944" stop-color="#E6972F" stop-opacity="0.0255883"/>
<stop offset="0.4856" stop-color="#BE7332" stop-opacity="0.1457"/>
<stop offset="0.8044" stop-color="#A65D34" stop-opacity="0.2413"/>
<stop offset="1" stop-color="#9D5535" stop-opacity="0.3"/>
</linearGradient>
<linearGradient id="paint20_linear" x1="171.728" y1="346.436" x2="204.836" y2="346.436" gradientUnits="userSpaceOnUse">
<stop offset="3.2992e-07" stop-color="white" stop-opacity="0"/>
<stop offset="0.0763343" stop-color="#E7E8E8" stop-opacity="0.0237474"/>
<stop offset="0.4374" stop-color="#7C7D7E" stop-opacity="0.1361"/>
<stop offset="0.6872" stop-color="#383A3C" stop-opacity="0.2138"/>
<stop offset="0.8036" stop-color="#1E2022" stop-opacity="0.25"/>
</linearGradient>
<linearGradient id="paint21_linear" x1="308.97" y1="366.684" x2="329.794" y2="309.469" gradientUnits="userSpaceOnUse">
<stop offset="6.59839e-07" stop-color="#2D1582"/>
<stop offset="1" stop-color="#62E0FA" stop-opacity="0"/>
</linearGradient>
<linearGradient id="paint22_linear" x1="327.298" y1="280.791" x2="391.658" y2="280.791" gradientUnits="userSpaceOnUse">
<stop offset="1.08255e-07" stop-color="white" stop-opacity="0"/>
<stop offset="1" stop-color="#2D1582"/>
</linearGradient>
<linearGradient id="paint23_linear" x1="327.298" y1="279.542" x2="391.658" y2="279.542" gradientUnits="userSpaceOnUse">
<stop offset="3.2992e-07" stop-color="white" stop-opacity="0"/>
<stop offset="1" stop-color="#377DFF" stop-opacity="0.7"/>
</linearGradient>
<linearGradient id="paint24_linear" x1="337.562" y1="291.098" x2="285.885" y2="291.098" gradientUnits="userSpaceOnUse">
<stop offset="3.2992e-07" stop-color="#377DFF"/>
<stop offset="0.4987" stop-color="#3FA1FD"/>
<stop offset="1" stop-color="#48C9FB"/>
</linearGradient>
<linearGradient id="paint25_linear" x1="239.22" y1="322.232" x2="257.275" y2="322.232" gradientUnits="userSpaceOnUse">
<stop offset="3.2992e-07" stop-color="white" stop-opacity="0"/>
<stop offset="0.0763343" stop-color="#E7E8E8" stop-opacity="0.0474949"/>
<stop offset="0.4374" stop-color="#7C7D7E" stop-opacity="0.2722"/>
<stop offset="0.6872" stop-color="#383A3C" stop-opacity="0.4276"/>
<stop offset="0.8036" stop-color="#1E2022" stop-opacity="0.5"/>
</linearGradient>
<linearGradient id="paint26_linear" x1="214.655" y1="309.526" x2="243.048" y2="309.526" gradientUnits="userSpaceOnUse">
<stop offset="3.2992e-07" stop-color="white" stop-opacity="0"/>
<stop offset="0.075992" stop-color="#E7E8E8" stop-opacity="0.0284969"/>
<stop offset="0.4355" stop-color="#7C7D7E" stop-opacity="0.1633"/>
<stop offset="0.6841" stop-color="#383A3C" stop-opacity="0.2566"/>
<stop offset="0.8" stop-color="#1E2022" stop-opacity="0.3"/>
</linearGradient>
<linearGradient id="paint27_linear" x1="174.881" y1="263.083" x2="181.738" y2="263.083" gradientUnits="userSpaceOnUse">
<stop stop-color="#EFA02E" stop-opacity="0"/>
<stop offset="0.0852944" stop-color="#E6972F" stop-opacity="0.0255883"/>
<stop offset="0.4856" stop-color="#BE7332" stop-opacity="0.1457"/>
<stop offset="0.8044" stop-color="#A65D34" stop-opacity="0.2413"/>
<stop offset="1" stop-color="#9D5535" stop-opacity="0.3"/>
</linearGradient>
<linearGradient id="paint28_linear" x1="196.583" y1="282.041" x2="199.377" y2="282.041" gradientUnits="userSpaceOnUse">
<stop stop-color="#EFA02E" stop-opacity="0"/>
<stop offset="0.0258661" stop-color="#E9A135" stop-opacity="0.01"/>
<stop offset="0.2923" stop-color="#B0AF7B" stop-opacity="0.0876903"/>
<stop offset="0.5323" stop-color="#84BAB2" stop-opacity="0.1597"/>
<stop offset="0.7377" stop-color="#63C2DA" stop-opacity="0.2213"/>
<stop offset="0.9004" stop-color="#4FC7F2" stop-opacity="0.2701"/>
<stop offset="1" stop-color="#48C9FB" stop-opacity="0.3"/>
</linearGradient>
<linearGradient id="paint29_linear" x1="148.542" y1="311.391" x2="226.757" y2="311.391" gradientUnits="userSpaceOnUse">
<stop offset="3.2992e-07" stop-color="white" stop-opacity="0"/>
<stop offset="0.075992" stop-color="#E7E8E8" stop-opacity="0.0284969"/>
<stop offset="0.4355" stop-color="#7C7D7E" stop-opacity="0.1633"/>
<stop offset="0.6841" stop-color="#383A3C" stop-opacity="0.2566"/>
<stop offset="0.8" stop-color="#1E2022" stop-opacity="0.3"/>
</linearGradient>
<linearGradient id="paint30_linear" x1="590.151" y1="211.725" x2="611.668" y2="152.612" gradientUnits="userSpaceOnUse">
<stop offset="0.19" stop-color="#64D7FA"/>
<stop offset="0.4724" stop-color="#63DDFA"/>
<stop offset="1" stop-color="#62E0FA"/>
</linearGradient>
<linearGradient id="paint31_linear" x1="554.726" y1="180.519" x2="596.021" y2="180.519" gradientUnits="userSpaceOnUse">
<stop offset="0.19" stop-color="#48C9FB" stop-opacity="0.6"/>
<stop offset="0.3392" stop-color="#43D2F5" stop-opacity="0.4895"/>
<stop offset="0.6193" stop-color="#3FDBEF" stop-opacity="0.282"/>
<stop offset="1" stop-color="#3DDEED" stop-opacity="0"/>
</linearGradient>
<linearGradient id="paint32_linear" x1="933.796" y1="293.753" x2="824.53" y2="293.753" gradientUnits="userSpaceOnUse">
<stop stop-color="#DE4437"/>
<stop offset="0.0303102" stop-color="#E14E33"/>
<stop offset="0.1575" stop-color="#EA7126"/>
<stop offset="0.2923" stop-color="#F28E1B"/>
<stop offset="0.4351" stop-color="#F8A512"/>
<stop offset="0.5894" stop-color="#FCB50C"/>
<stop offset="0.7636" stop-color="#FEBE08"/>
<stop offset="1" stop-color="#FFC107"/>
</linearGradient>
<linearGradient id="paint33_linear" x1="144.715" y1="414.422" x2="160.417" y2="406.926" gradientUnits="userSpaceOnUse">
<stop offset="3.2992e-07" stop-color="#62E0FA" stop-opacity="0"/>
<stop offset="1" stop-color="#2D1582"/>
</linearGradient>
<linearGradient id="paint34_linear" x1="1036.18" y1="362.091" x2="1036.18" y2="393.801" gradientUnits="userSpaceOnUse">
<stop stop-color="#2D1582" stop-opacity="0.8"/>
<stop offset="1" stop-color="#62E0FA" stop-opacity="0"/>
</linearGradient>
<linearGradient id="paint35_linear" x1="1036.02" y1="360.162" x2="1036.02" y2="354.453" gradientUnits="userSpaceOnUse">
<stop offset="4.38175e-07" stop-color="#2D1582" stop-opacity="0.7"/>
<stop offset="1" stop-color="#62E0FA" stop-opacity="0"/>
</linearGradient>
<clipPath id="clip0">
<rect width="1200" height="477.251" fill="white"/>
</clipPath>
</defs>
</svg>
